<?xml version="1.0" standalone="no"?>
<!DOCTYPE svg PUBLIC "-//W3C//DTD SVG 20010904//EN"
 "http://www.w3.org/TR/2001/REC-SVG-20010904/DTD/svg10.dtd">
<svg version="1.0" xmlns="http://www.w3.org/2000/svg"
 width="1098.000000pt" height="1098.000000pt" viewBox="0 0 1098.000000 1098.000000"
 preserveAspectRatio="xMidYMid meet">
<metadata>
Created by potrace 1.14, written by Peter Selinger 2001-2017
</metadata>
<g transform="translate(0.000000,1098.000000) scale(0.100000,-0.100000)"
fill="#000000" stroke="none">
<path d="M5219 10956 c-2 -2 -53 -7 -114 -10 -60 -4 -126 -9 -145 -11 -19 -2
-60 -6 -91 -9 -141 -14 -453 -68 -643 -111 -525 -119 -1119 -363 -1591 -654
-111 -68 -359 -234 -375 -251 -3 -3 -30 -23 -60 -45 -30 -22 -57 -42 -60 -45
-3 -3 -25 -21 -50 -40 -25 -19 -47 -37 -50 -40 -3 -4 -30 -26 -60 -51 -230
-186 -525 -485 -736 -744 -319 -395 -571 -807 -764 -1252 -28 -65 -56 -127
-60 -138 -23 -51 -102 -272 -154 -435 -39 -118 -112 -398 -123 -465 -2 -16 -8
-46 -13 -65 -5 -19 -12 -53 -15 -75 -4 -22 -8 -47 -10 -55 -3 -8 -7 -35 -10
-59 -3 -24 -7 -47 -9 -50 -2 -3 -7 -37 -11 -76 -3 -38 -8 -72 -10 -75 -1 -3
-6 -39 -10 -80 -4 -41 -9 -88 -11 -105 -16 -166 -19 -285 -16 -775 3 -556 3
-567 28 -700 14 -74 42 -187 63 -250 21 -63 41 -135 44 -160 3 -25 28 -90 56
-145 44 -87 93 -201 130 -300 6 -16 13 -46 16 -65 21 -164 330 -790 558 -1130
55 -83 168 -242 177 -250 3 -3 25 -32 50 -65 162 -217 469 -549 675 -730 38
-33 75 -67 84 -76 9 -9 84 -70 166 -136 232 -185 390 -292 730 -495 28 -17
149 -79 270 -138 301 -147 557 -248 850 -334 143 -42 382 -102 445 -111 24 -4
48 -9 52 -11 4 -3 20 -7 35 -9 24 -3 79 -12 243 -39 28 -5 113 -15 175 -22 22
-2 58 -6 80 -9 232 -27 820 -27 1045 0 19 2 62 7 95 10 63 6 66 6 215 30 52 8
113 17 135 21 22 3 60 10 85 16 25 5 59 12 75 15 69 11 380 92 495 129 361
116 624 225 924 382 399 209 809 498 1140 802 136 125 396 395 475 492 14 18
40 48 57 68 57 65 220 284 306 410 368 540 647 1178 794 1812 2 10 6 26 8 35
13 53 66 335 72 378 3 28 10 70 16 95 11 52 19 101 42 255 17 119 27 399 15
412 -14 15 -14 316 1 342 9 19 11 61 7 170 -5 144 -20 238 -50 316 -8 22 -18
49 -23 60 -4 11 -9 29 -10 40 -4 22 -17 87 -19 95 -1 3 -5 30 -10 60 -5 30 -9
57 -10 60 -1 3 -5 23 -9 45 -55 279 -195 730 -310 997 -8 18 -22 51 -31 73
-49 114 -160 337 -234 470 -294 528 -673 1002 -1131 1414 -45 41 -94 84 -109
95 -14 11 -31 25 -37 31 -6 5 -28 24 -49 40 -21 17 -43 35 -49 41 -44 42 -380
279 -511 361 -302 188 -715 387 -1040 503 -83 29 -291 97 -325 105 -8 2 -94
24 -190 49 -96 24 -195 47 -220 51 -24 4 -48 9 -52 11 -4 3 -23 7 -43 9 -19 3
-54 9 -77 14 -24 5 -68 12 -98 16 -30 3 -62 8 -70 10 -8 2 -40 7 -70 10 -30 3
-66 8 -80 10 -14 2 -61 7 -105 10 -44 4 -93 9 -110 12 -35 5 -661 14 -666 9z"/>
</g>
</svg>
