<svg xmlns="http://www.w3.org/2000/svg" xmlns:svg="http://www.w3.org/2000/svg" id="svg3" fill="none" version="1.1" viewBox="0 0 71 78"><g id="g1" filter="url(#filter0_d_115_497)"><path id="path1" fill="#fff" d="M 7.22222,73 C 5.23611,73 3.53588,72.2852 2.12153,70.8556 0.707176,69.426 0,67.7075 0,65.7 V 14.6 C 0,12.5925 0.707176,10.874 2.12153,9.44438 3.53588,8.01479 5.23611,7.3 7.22222,7.3 H 10.8333 V 0 h 7.2223 V 7.3 H 46.9444 V 0 h 7.2223 v 7.3 h 3.6111 c 1.9861,0 3.6863,0.71479 5.1007,2.14438 C 64.2928,10.874 65,12.5925 65,14.6 v 51.1 c 0,2.0075 -0.7072,3.726 -2.1215,5.1556 C 61.4641,72.2852 59.7639,73 57.7778,73 Z m 0,-7.3 H 57.7778 V 29.2 H 7.22222 Z m 0,-43.8 H 57.7778 V 14.6 H 7.22222 Z"/><rect style="fill:#fff" id="rect3" width="7.398" height="7.398" x="15.512" y="37.109"/><rect style="fill:#fff" id="rect3-9" width="7.398" height="7.398" x="28.631" y="37.074"/><rect style="fill:#fff" id="rect3-9-5" width="7.398" height="7.398" x="41.364" y="37.074"/><rect style="fill:#fff" id="rect3-2" width="7.398" height="7.398" x="15.569" y="48.887"/><rect style="fill:#fff" id="rect3-9-7" width="7.398" height="7.398" x="28.688" y="48.853"/><rect style="fill:#fff" id="rect3-9-5-3" width="7.398" height="7.398" x="41.421" y="48.853"/></g><defs id="defs3"><filter id="filter0_d_115_497" width="70.6" height="77.6" x="0" y="0" color-interpolation-filters="sRGB" filterUnits="userSpaceOnUse"><feFlood id="feFlood1" flood-opacity="0" result="BackgroundImageFix"/><feColorMatrix id="feColorMatrix1" in="SourceAlpha" result="hardAlpha" type="matrix" values="0 0 0 0 0 0 0 0 0 0 0 0 0 0 0 0 0 0 127 0"/><feOffset id="feOffset1" dx="4" dy="3"/><feGaussianBlur id="feGaussianBlur1" stdDeviation=".8"/><feComposite id="feComposite1" in2="hardAlpha" operator="out"/><feColorMatrix id="feColorMatrix2" type="matrix" values="0 0 0 0 0 0 0 0 0 0 0 0 0 0 0 0 0 0 0.65 0"/><feBlend id="feBlend2" in2="BackgroundImageFix" mode="normal" result="effect1_dropShadow_115_497"/><feBlend id="feBlend3" in="SourceGraphic" in2="effect1_dropShadow_115_497" mode="normal" result="shape"/></filter></defs></svg>