<svg xmlns="http://www.w3.org/2000/svg" width="34" height="34" fill="none" viewBox="0 0 34 34"><path fill="currentColor" d="M17.0001 16.9993V2.83268C17.0001 2.43129 17.1358 2.09484 17.4074 1.82331C17.6789 1.55178 18.0154 1.41602 18.4167 1.41602C18.8181 1.41602 19.1546 1.55178 19.4261 1.82331C19.6977 2.09484 19.8334 2.43129 19.8334 2.83268V16.9993H17.0001ZM11.3334 16.9993V4.24935C11.3334 3.84796 11.4692 3.5115 11.7407 3.23997C12.0122 2.96845 12.3487 2.83268 12.7501 2.83268C13.1515 2.83268 13.4879 2.96845 13.7595 3.23997C14.031 3.5115 14.1667 3.84796 14.1667 4.24935V16.9993H11.3334ZM17.7084 32.5827C14.3556 32.5827 11.5105 31.4139 9.173 29.0764C6.8355 26.7389 5.66675 23.8938 5.66675 20.541V7.08268C5.66675 6.68129 5.80251 6.34483 6.07404 6.07331C6.34557 5.80178 6.68203 5.66602 7.08341 5.66602C7.4848 5.66602 7.82126 5.80178 8.09279 6.07331C8.36432 6.34483 8.50008 6.68129 8.50008 7.08268V20.541C8.50008 23.1146 9.3914 25.2928 11.174 27.0754C12.9567 28.858 15.1348 29.7493 17.7084 29.7493C20.282 29.7493 22.4602 28.858 24.2428 27.0754C26.0254 25.2928 26.9167 23.1146 26.9167 20.541V15.5827C26.5154 15.5827 26.1789 15.7184 25.9074 15.99C25.6358 16.2615 25.5001 16.598 25.5001 16.9993V22.666H21.2501C20.4709 22.666 19.8039 22.9434 19.249 23.4983C18.6942 24.0532 18.4167 24.7202 18.4167 25.4993V26.916H15.5834V25.4993C15.5834 23.941 16.1383 22.607 17.248 21.4973C18.3577 20.3875 19.6917 19.8327 21.2501 19.8327H22.6667V5.66602C22.6667 5.26463 22.8025 4.92817 23.074 4.65664C23.3456 4.38511 23.682 4.24935 24.0834 4.24935C24.4848 4.24935 24.8213 4.38511 25.0928 4.65664C25.3643 4.92817 25.5001 5.26463 25.5001 5.66602V12.9973C25.7362 12.9264 25.9664 12.8674 26.1907 12.8202C26.415 12.773 26.657 12.7493 26.9167 12.7493H29.7501V20.541C29.7501 23.8938 28.5813 26.7389 26.2438 29.0764C23.9063 31.4139 21.0612 32.5827 17.7084 32.5827Z"/></svg>