<svg width="52" height="52" viewBox="0 0 52 52" fill="none" xmlns="http://www.w3.org/2000/svg">
  <path d="M15.1633 0C6.80272 0 0 6.80673 0 15.1694V36.8347C0 45.1963 6.80673 52 15.1694 52H36.8347C45.1963 52 52 45.1933 52 36.8306V15.1633C52 6.80272 45.1933 0 36.8306 0H15.1633ZM41.6 8.32C42.7482 8.32 43.68 9.25184 43.68 10.4C43.68 11.5482 42.7482 12.48 41.6 12.48C40.4518 12.48 39.52 11.5482 39.52 10.4C39.52 9.25184 40.4518 8.32 41.6 8.32ZM26 12.48C33.4568 12.48 39.52 18.5432 39.52 26C39.52 33.4568 33.4558 39.52 26 39.52C18.5432 39.52 12.48 33.4558 12.48 26C12.48 18.5442 18.5432 12.48 26 12.48ZM26 16.64C20.8302 16.64 16.64 20.8302 16.64 26C16.64 31.1698 20.8302 35.36 26 35.36C31.1698 35.36 35.36 31.1698 35.36 26C35.36 20.8302 31.1698 16.64 26 16.64Z" fill="currentColor"/>
</svg>