<svg width="78" height="80" viewBox="0 0 78 80" fill="none" xmlns="http://www.w3.org/2000/svg">
  <g filter="url(#filter0_d_120_504)">
    <path d="M72 72L57.8 57.8H8.1C6.1475 57.8 4.47604 57.1048 3.08562 55.7144C1.69521 54.324 1 52.6525 1 50.7V8.1C1 6.1475 1.69521 4.47604 3.08562 3.08562C4.47604 1.69521 6.1475 1 8.1 1H64.9C66.8525 1 68.524 1.69521 69.9144 3.08562C71.3048 4.47604 72 6.1475 72 8.1V72ZM8.1 50.7H60.8175L64.9 54.6937V8.1H8.1V50.7Z" fill="white"/>
    <path d="M72 72L57.8 57.8H8.1C6.1475 57.8 4.47604 57.1048 3.08562 55.7144C1.69521 54.324 1 52.6525 1 50.7V8.1C1 6.1475 1.69521 4.47604 3.08562 3.08562C4.47604 1.69521 6.1475 1 8.1 1H64.9C66.8525 1 68.524 1.69521 69.9144 3.08562C71.3048 4.47604 72 6.1475 72 8.1V72ZM8.1 50.7H60.8175L64.9 54.6937V8.1H8.1V50.7Z" stroke="white" stroke-width="2"/>
  </g>
  <defs>
    <filter id="filter0_d_120_504" x="0" y="0" width="77.3" height="79.7141" filterUnits="userSpaceOnUse" color-interpolation-filters="sRGB">
      <feFlood flood-opacity="0" result="BackgroundImageFix"/>
      <feColorMatrix in="SourceAlpha" type="matrix" values="0 0 0 0 0 0 0 0 0 0 0 0 0 0 0 0 0 0 127 0" result="hardAlpha"/>
      <feOffset dx="3" dy="4"/>
      <feGaussianBlur stdDeviation="0.65"/>
      <feComposite in2="hardAlpha" operator="out"/>
      <feColorMatrix type="matrix" values="0 0 0 0 0 0 0 0 0 0 0 0 0 0 0 0 0 0 0.65 0"/>
      <feBlend mode="normal" in2="BackgroundImageFix" result="effect1_dropShadow_120_504"/>
      <feBlend mode="normal" in="SourceGraphic" in2="effect1_dropShadow_120_504" result="shape"/>
    </filter>
  </defs>
</svg>