<svg width="63" height="76" viewBox="0 0 63 76" fill="none" xmlns="http://www.w3.org/2000/svg">
  <g filter="url(#filter0_d_115_495)">
    <path d="M28.5 35C30.3219 35 31.8815 34.3538 33.1789 33.0613C34.4763 31.7688 35.125 30.215 35.125 28.4C35.125 26.585 34.4763 25.0312 33.1789 23.7388C31.8815 22.4463 30.3219 21.8 28.5 21.8C26.6781 21.8 25.1185 22.4463 23.8211 23.7388C22.5237 25.0312 21.875 26.585 21.875 28.4C21.875 30.215 22.5237 31.7688 23.8211 33.0613C25.1185 34.3538 26.6781 35 28.5 35ZM28.5 59.255C35.2354 53.095 40.2318 47.4988 43.4891 42.4663C46.7464 37.4338 48.375 32.965 48.375 29.06C48.375 23.065 46.4565 18.1562 42.6195 14.3338C38.7826 10.5113 34.076 8.6 28.5 8.6C22.924 8.6 18.2174 10.5113 14.3805 14.3338C10.5435 18.1562 8.625 23.065 8.625 29.06C8.625 32.965 10.2536 37.4338 13.5109 42.4663C16.7682 47.4988 21.7646 53.095 28.5 59.255ZM28.5 68C19.6115 60.465 12.9727 53.4663 8.58359 47.0038C4.19453 40.5413 2 34.56 2 29.06C2 20.81 4.6638 14.2375 9.99141 9.3425C15.319 4.4475 21.4885 2 28.5 2C35.5115 2 41.681 4.4475 47.0086 9.3425C52.3362 14.2375 55 20.81 55 29.06C55 34.56 52.8055 40.5413 48.4164 47.0038C44.0273 53.4663 37.3885 60.465 28.5 68Z" fill="white"/>
    <path d="M27.8534 68.7628L28.5 69.311L29.1466 68.7628C38.0739 61.195 44.7854 54.1299 49.2437 47.5656C53.6999 41.0042 56 34.8283 56 29.06C56 20.5734 53.2487 13.7179 47.6852 8.60613C42.1795 3.54755 35.7707 1 28.5 1C21.2293 1 14.8205 3.54755 9.31483 8.60613C3.75126 13.7179 1 20.5734 1 29.06C1 34.8283 3.30013 41.0042 7.75634 47.5656C12.2146 54.1299 18.9261 61.195 27.8534 68.7628ZM28.5 36C30.588 36 32.4009 35.2478 33.8847 33.7697C35.3685 32.2914 36.125 30.4836 36.125 28.4C36.125 26.3165 35.3685 24.5086 33.8847 23.0303C32.4009 21.5522 30.588 20.8 28.5 20.8C26.412 20.8 24.5991 21.5522 23.1153 23.0303C21.6315 24.5086 20.875 26.3164 20.875 28.4C20.875 30.4836 21.6315 32.2915 23.1153 33.7697C24.5991 35.2478 26.412 36 28.5 36ZM42.6496 41.9229C39.5642 46.6897 34.8587 52.014 28.5 57.8963C22.1413 52.014 17.4358 46.6897 14.3504 41.9229C11.1459 36.972 9.625 32.6948 9.625 29.06C9.625 23.2997 11.4586 18.6561 15.0862 15.0422C18.7297 11.4125 23.1798 9.6 28.5 9.6C33.8202 9.6 38.2703 11.4125 41.9138 15.0422C45.5414 18.6561 47.375 23.2997 47.375 29.06C47.375 32.6948 45.8541 36.972 42.6496 41.9229Z" stroke="white" stroke-width="2"/>
  </g>
  <defs>
    <filter id="filter0_d_115_495" x="0" y="0" width="62.6" height="75.2211" filterUnits="userSpaceOnUse" color-interpolation-filters="sRGB">
      <feFlood flood-opacity="0" result="BackgroundImageFix"/>
      <feColorMatrix in="SourceAlpha" type="matrix" values="0 0 0 0 0 0 0 0 0 0 0 0 0 0 0 0 0 0 127 0" result="hardAlpha"/>
      <feOffset dx="4" dy="3"/>
      <feGaussianBlur stdDeviation="0.8"/>
      <feComposite in2="hardAlpha" operator="out"/>
      <feColorMatrix type="matrix" values="0 0 0 0 0 0 0 0 0 0 0 0 0 0 0 0 0 0 0.65 0"/>
      <feBlend mode="normal" in2="BackgroundImageFix" result="effect1_dropShadow_115_495"/>
      <feBlend mode="normal" in="SourceGraphic" in2="effect1_dropShadow_115_495" result="shape"/>
    </filter>
  </defs>
</svg>