<svg width="75" height="75" viewBox="0 0 75 75" fill="none" xmlns="http://www.w3.org/2000/svg">
  <g filter="url(#filter0_d_120_583)">
    <path d="M1 69V53.4225L30.3125 13.8925L24.45 6.02L29.81 2L34.5 8.28125L39.19 2L44.55 6.02L38.6875 13.8925L68 53.4225V69H1ZM34.5 19.5037L7.7 55.6V62.3H17.75L34.5 38.85L51.25 62.3H61.3V55.6L34.5 19.5037ZM25.9575 62.3H43.0425L34.5 50.4075L25.9575 62.3Z" fill="white"/>
    <path d="M1 69V53.4225L30.3125 13.8925L24.45 6.02L29.81 2L34.5 8.28125L39.19 2L44.55 6.02L38.6875 13.8925L68 53.4225V69H1ZM34.5 19.5037L7.7 55.6V62.3H17.75L34.5 38.85L51.25 62.3H61.3V55.6L34.5 19.5037ZM25.9575 62.3H43.0425L34.5 50.4075L25.9575 62.3Z" stroke="white" stroke-width="2"/>
  </g>
  <defs>
    <filter id="filter0_d_120_583" x="0" y="0.599609" width="74.6" height="74.0004" filterUnits="userSpaceOnUse" color-interpolation-filters="sRGB">
      <feFlood flood-opacity="0" result="BackgroundImageFix"/>
      <feColorMatrix in="SourceAlpha" type="matrix" values="0 0 0 0 0 0 0 0 0 0 0 0 0 0 0 0 0 0 127 0" result="hardAlpha"/>
      <feOffset dx="4" dy="3"/>
      <feGaussianBlur stdDeviation="0.8"/>
      <feComposite in2="hardAlpha" operator="out"/>
      <feColorMatrix type="matrix" values="0 0 0 0 0 0 0 0 0 0 0 0 0 0 0 0 0 0 0.6 0"/>
      <feBlend mode="normal" in2="BackgroundImageFix" result="effect1_dropShadow_120_583"/>
      <feBlend mode="normal" in="SourceGraphic" in2="effect1_dropShadow_120_583" result="shape"/>
    </filter>
  </defs>
</svg>