<svg xmlns="http://www.w3.org/2000/svg" width="75" height="75" fill="none" viewBox="0 0 75 75"><g filter="url(#filter0_d_120_583)"><path fill="#fff" d="M1 69V53.4225L30.3125 13.8925L24.45 6.02L29.81 2L34.5 8.28125L39.19 2L44.55 6.02L38.6875 13.8925L68 53.4225V69H1ZM34.5 19.5037L7.7 55.6V62.3H17.75L34.5 38.85L51.25 62.3H61.3V55.6L34.5 19.5037ZM25.9575 62.3H43.0425L34.5 50.4075L25.9575 62.3Z"/><path stroke="#fff" stroke-width="2" d="M1 69V53.4225L30.3125 13.8925L24.45 6.02L29.81 2L34.5 8.28125L39.19 2L44.55 6.02L38.6875 13.8925L68 53.4225V69H1ZM34.5 19.5037L7.7 55.6V62.3H17.75L34.5 38.85L51.25 62.3H61.3V55.6L34.5 19.5037ZM25.9575 62.3H43.0425L34.5 50.4075L25.9575 62.3Z"/></g><defs><filter id="filter0_d_120_583" width="74.6" height="74" x="0" y=".6" color-interpolation-filters="sRGB" filterUnits="userSpaceOnUse"><feFlood flood-opacity="0" result="BackgroundImageFix"/><feColorMatrix in="SourceAlpha" result="hardAlpha" type="matrix" values="0 0 0 0 0 0 0 0 0 0 0 0 0 0 0 0 0 0 127 0"/><feOffset dx="4" dy="3"/><feGaussianBlur stdDeviation=".8"/><feComposite in2="hardAlpha" operator="out"/><feColorMatrix type="matrix" values="0 0 0 0 0 0 0 0 0 0 0 0 0 0 0 0 0 0 0.6 0"/><feBlend in2="BackgroundImageFix" mode="normal" result="effect1_dropShadow_120_583"/><feBlend in="SourceGraphic" in2="effect1_dropShadow_120_583" mode="normal" result="shape"/></filter></defs></svg>