<svg xmlns="http://www.w3.org/2000/svg" width="71" height="72" fill="currentColor" viewBox="0 0 71 72"><g filter="url(#filter0_d_115_296)"><path fill="#fff" d="M29.7018 31.9807L51.1995 10.483C51.8073 9.87528 52.5163 9.57143 53.3265 9.57143C54.1368 9.57143 54.8458 9.87528 55.4535 10.483C56.0612 11.0907 56.3651 11.7997 56.3651 12.61C56.3651 13.4203 56.0612 14.1293 55.4535 14.737L34.0317 36.2347L29.7018 31.9807ZM37.2222 39.5011L56.517 20.1304C57.1247 19.5227 57.8464 19.2188 58.682 19.2188C59.5176 19.2188 60.2392 19.5227 60.8469 20.1304C61.4547 20.7381 61.7585 21.4598 61.7585 22.2954C61.7585 23.131 61.4547 23.8526 60.8469 24.4603L41.5522 43.7551L37.2222 39.5011ZM13.0658 53.9342C8.45729 49.3258 6.15306 43.7804 6.15306 37.2982C6.15306 30.8159 8.45729 25.2706 13.0658 20.6621L22.1814 11.5465L26.6633 16.0283C27.0178 16.3828 27.3216 16.75 27.5748 17.1298C27.828 17.5096 28.0813 17.9021 28.3345 18.3073L39.5771 6.98866C40.1848 6.38095 40.9065 6.0771 41.7421 6.0771C42.5777 6.0771 43.2993 6.38095 43.907 6.98866C44.5147 7.59637 44.8186 8.31803 44.8186 9.15363C44.8186 9.98923 44.5147 10.7109 43.907 11.3186L30.7653 24.4603L24.3084 30.8413L25.7517 32.2846C28.0813 34.6141 29.1954 37.3995 29.0941 40.6406C28.9928 43.8817 27.7521 46.6924 25.3719 49.0726L21.042 44.8186C22.2067 43.6538 22.8524 42.2738 22.979 40.6786C23.1056 39.0833 22.5865 37.7033 21.4218 36.5386L17.8515 33.0442C17.2438 32.4365 16.9399 31.7149 16.9399 30.8793C16.9399 30.0437 17.2438 29.322 17.8515 28.7143L22.1814 24.4603C22.7891 23.8526 23.093 23.131 23.093 22.2954C23.093 21.4598 22.7891 20.7381 22.1814 20.1304L17.3197 24.9921C13.876 28.4358 12.1542 32.5505 12.1542 37.3362C12.1542 42.1219 13.876 46.2366 17.3197 49.6803C20.7634 53.124 24.8908 54.8458 29.7018 54.8458C34.5129 54.8458 38.6402 53.124 42.0839 49.6803L60.2392 31.449C60.8469 30.8413 61.5686 30.5374 62.4042 30.5374C63.2398 30.5374 63.9615 30.8413 64.5692 31.449C65.1769 32.0567 65.4807 32.7783 65.4807 33.6139C65.4807 34.4495 65.1769 35.1712 64.5692 35.7789L46.3379 53.9342C41.7294 58.5427 36.1841 60.8469 29.7018 60.8469C23.2196 60.8469 17.6742 58.5427 13.0658 53.9342ZM48.6927 67V60.8469C52.0351 60.8469 54.8965 59.6568 57.2766 57.2766C59.6568 54.8965 60.8469 52.0351 60.8469 48.6927H67C67 53.757 65.2149 58.0743 61.6446 61.6446C58.0743 65.2149 53.757 67 48.6927 67ZM0 18.3073C0 13.243 1.78515 8.92574 5.35544 5.35544C8.92574 1.78515 13.243 0 18.3073 0V6.15306C14.9649 6.15306 12.1036 7.34316 9.72336 9.72336C7.34316 12.1036 6.15306 14.9649 6.15306 18.3073H0Z"/></g><defs><filter id="filter0_d_115_296" width="70.6" height="71.6" x="0" y="0" color-interpolation-filters="sRGB" filterUnits="userSpaceOnUse"><feFlood flood-opacity="0" result="BackgroundImageFix"/><feColorMatrix in="SourceAlpha" result="hardAlpha" type="matrix" values="0 0 0 0 0 0 0 0 0 0 0 0 0 0 0 0 0 0 127 0"/><feOffset dx="2" dy="3"/><feGaussianBlur stdDeviation=".8"/><feComposite in2="hardAlpha" operator="out"/><feColorMatrix type="matrix" values="0 0 0 0 0 0 0 0 0 0 0 0 0 0 0 0 0 0 0.6 0"/><feBlend in2="BackgroundImageFix" mode="normal" result="effect1_dropShadow_115_296"/><feBlend in="SourceGraphic" in2="effect1_dropShadow_115_296" mode="normal" result="shape"/></filter></defs></svg>