<svg width="1920" height="1080" viewBox="0 0 1920 1080" fill="none" xmlns="http://www.w3.org/2000/svg">
<g clip-path="url(#clip0_120_1507)">
<rect width="1920" height="1080" fill="url(#paint0_linear_120_1507)"/>
<path d="M-158.102 1153.72C-158.102 1159.62 -153.326 1164.39 -147.435 1164.39C-141.544 1164.39 -136.769 1159.62 -136.769 1153.72C-136.769 1147.83 -141.544 1143.06 -147.435 1143.06C-153.326 1143.06 -158.102 1147.83 -158.102 1153.72ZM192.085 958.204L193.636 959.467L194.085 958.915V958.204H192.085ZM-147.435 857.072L-149.116 855.988L-150.062 857.454L-148.737 858.59L-147.435 857.072ZM192.085 727.287H194.085V725.838L192.708 725.387L192.085 727.287ZM-130.885 544.127L-132.637 543.162L-133.272 544.315L-132.465 545.354L-130.885 544.127ZM-130.885 314.334L-132.68 313.452L-133.219 314.548L-132.49 315.528L-130.885 314.334ZM185.658 470.526L187.327 471.626L187.774 470.949L187.622 470.151L185.658 470.526ZM252.266 294.108L253.137 295.908L254.345 295.324L254.262 293.984L252.266 294.108ZM-169 84.5409L-167.917 82.8593L-170.66 85.6569L-169 84.5409ZM-4.00412 35.0989L-4.6356 33.2012L-5.23839 33.4018L-5.61493 33.9135L-4.00412 35.0989ZM348.054 114.88L348.531 116.823L349.728 113.786L348.054 114.88ZM147.953 -15.4668L149.943 -15.6583L147.321 -17.3645L147.953 -15.4668ZM272.5 -26L274.368 -26.7152L273.876 -28H272.5V-26ZM192.5 -26V-28L190.979 -24.7015L192.5 -26ZM67.5764 1098C67.5764 1103.89 72.352 1108.67 78.2431 1108.67C84.1341 1108.67 88.9097 1103.89 88.9097 1098C88.9097 1092.11 84.1341 1087.33 78.2431 1087.33C72.352 1087.33 67.5764 1092.11 67.5764 1098ZM-145.893 1155L-2.46227 981.39L-5.54597 978.842L-148.977 1152.45L-145.893 1155ZM191.863 956.216L-4.22623 978.128L-3.78201 982.103L192.307 960.191L191.863 956.216ZM-148.737 858.59L-5.30632 981.634L-2.70192 978.598L-146.133 855.554L-148.737 858.59ZM-31.2614 673.39L-149.116 855.988L-145.755 858.157L-27.9006 675.559L-31.2614 673.39ZM-2.01109 979.949L-27.588 674.307L-31.574 674.641L-5.99715 980.282L-2.01109 979.949ZM194.085 958.204V727.287H190.085V958.204H194.085ZM190.757 725.792L76.9148 826.923L79.5713 829.914L193.413 728.782L190.757 725.792ZM79.8812 827.271L-27.9428 673.327L-31.2191 675.622L76.6049 829.566L79.8812 827.271ZM-2.24591 981.069L80.0013 829.372L76.4848 827.465L-5.76233 979.162L-2.24591 981.069ZM-28.0018 673.247L-129.306 542.9L-132.465 545.354L-31.1601 675.701L-28.0018 673.247ZM-130.609 546.108L10.3145 526.443L9.76169 522.482L-131.162 542.146L-130.609 546.108ZM8.10439 523.952L-31.5147 673.964L-27.6473 674.985L11.9718 524.973L8.10439 523.952ZM80.1849 828.898L111.78 700.798L107.896 699.84L76.3013 827.94L80.1849 828.898ZM110.203 698.352L-29.2165 672.508L-29.9455 676.441L109.473 702.285L110.203 698.352ZM8.29868 525.45L108.099 701.306L111.577 699.332L11.7775 523.475L8.29868 525.45ZM11.7478 523.425L-56.4572 411.057L-59.8766 413.132L8.32838 525.5L11.7478 523.425ZM-59.9188 411.129L-132.637 543.162L-129.134 545.092L-56.415 413.059L-59.9188 411.129ZM-56.5622 410.901L-129.281 313.14L-132.49 315.528L-59.7716 413.288L-56.5622 410.901ZM-130.264 316.235L10.6596 270.164L9.41661 266.362L-131.507 312.433L-130.264 316.235ZM8.23097 267.406L-59.974 411.237L-56.3598 412.951L11.8452 269.12L8.23097 267.406ZM-58.534 414.06L58.8187 435.972L59.5529 432.04L-57.7998 410.128L-58.534 414.06ZM57.4284 433.051L8.28073 523.508L11.7954 525.417L60.9431 434.961L57.4284 433.051ZM61.1033 433.438L11.9556 267.694L8.12061 268.832L57.2683 434.575L61.1033 433.438ZM9.48807 526.385L127.342 560.096L128.442 556.25L10.5881 522.54L9.48807 526.385ZM129.642 557.205L60.9357 433.038L57.4358 434.974L126.142 559.141L129.642 557.205ZM111.822 700.571L129.876 558.425L125.908 557.921L107.854 700.067L111.822 700.571ZM192.708 725.387L186.281 723.279L185.034 727.08L191.462 729.188L192.708 725.387ZM186.281 723.279L110.461 698.418L109.215 702.219L185.034 727.08L186.281 723.279ZM187.548 724.526L129.782 557.519L126.002 558.827L183.767 725.833L187.548 724.526ZM58.631 435.928L185.103 472.447L186.212 468.604L59.7406 432.085L58.631 435.928ZM183.988 469.425L126.222 557.072L129.562 559.274L187.327 471.626L183.988 469.425ZM10.8704 270.082L128.725 216.145L127.06 212.508L9.2058 266.444L10.8704 270.082ZM125.958 214.834L158.556 339.001L162.425 337.985L129.827 213.818L125.958 214.834ZM161.336 336.681L10.884 266.451L9.19212 270.075L159.644 340.305L161.336 336.681ZM60.5578 435.461L161.862 339.948L159.118 337.038L57.8138 432.551L60.5578 435.461ZM187.622 470.151L162.455 338.119L158.526 338.868L183.693 470.9L187.622 470.151ZM161.361 340.294L253.137 295.908L251.395 292.307L159.619 336.693L161.361 340.294ZM254.262 293.984L244.734 140.601L240.741 140.849L250.27 294.232L254.262 293.984ZM241.658 139.041L126.813 212.642L128.971 216.01L243.817 142.409L241.658 139.041ZM253.346 292.424L128.972 212.643L126.812 216.01L251.186 295.791L253.346 292.424ZM11.9905 268.696L36.5644 158.014L32.6595 157.147L8.08563 267.829L11.9905 268.696ZM33.5725 159.289L126.853 216.035L128.932 212.618L35.6514 155.872L33.5725 159.289ZM11.0514 266.539L-80.7244 212.602L-82.7511 216.05L9.02473 269.987L11.0514 266.539ZM-83.5327 213.444L-132.68 313.452L-129.09 315.216L-79.9428 215.208L-83.5327 213.444ZM-79.7377 214.326V140.725H-83.7377V214.326H-79.7377ZM-82.0245 142.704L34.3252 159.56L34.8987 155.601L-81.451 138.746L-82.0245 142.704ZM35.2544 159.474L161.133 116.774L159.848 112.986L33.9695 155.686L35.2544 159.474ZM158.59 114.257L125.992 213.703L129.793 214.949L162.391 115.503L158.59 114.257ZM243.337 138.817L161.09 112.972L159.891 116.788L242.138 142.633L243.337 138.817ZM-80.078 213.21L-167.34 83.425L-170.66 85.6569L-83.3975 215.442L-80.078 213.21ZM-170.083 86.2225L-82.8204 142.407L-80.655 139.043L-167.917 82.8593L-170.083 86.2225ZM36.5194 156.979L-2.09668 34.4975L-5.91156 35.7003L32.7045 158.182L36.5194 156.979ZM-5.61493 33.9135L-83.3485 139.54L-80.1269 141.91L-2.39331 36.2844L-5.61493 33.9135ZM-4.87691 36.8984L159.617 116.68L161.363 113.081L-3.13133 33.2994L-4.87691 36.8984ZM243.214 142.667L348.531 116.823L347.577 112.938L242.261 138.783L243.214 142.667ZM349.728 113.786L297.571 34.0045L294.223 36.1933L346.38 115.975L349.728 113.786ZM294.111 34.1998L240.951 139.826L244.524 141.624L297.684 35.998L294.111 34.1998ZM-3.37263 36.9966L148.584 -13.5691L147.321 -17.3645L-4.6356 33.2012L-3.37263 36.9966ZM145.962 -15.2753L158.499 115.072L162.481 114.689L149.943 -15.6583L145.962 -15.2753ZM244.729 140.543L233.696 19.7473L229.713 20.1111L240.746 140.907L244.729 140.543ZM230.104 18.7292L158.89 113.68L162.09 116.08L233.304 21.1292L230.104 18.7292ZM296.357 33.1525L232.164 17.9828L231.244 21.8756L295.437 37.0453L296.357 33.1525ZM297.765 34.3837L274.368 -26.7152L270.632 -25.2848L294.029 35.8141L297.765 34.3837ZM272.5 -28H192.5V-24H272.5V-28ZM190.979 -24.7015L230.183 21.2277L233.225 18.6307L194.021 -27.2985L190.979 -24.7015ZM190.534 956.941L76.6922 1096.74L79.7939 1099.26L193.636 959.467L190.534 956.941Z" fill="white" fill-opacity="0.3"/>
<path d="M2103.74 58.1525C2103.74 52.2615 2098.97 47.4858 2093.07 47.4858C2087.18 47.4858 2082.41 52.2615 2082.41 58.1525C2082.41 64.0435 2087.18 68.8191 2093.07 68.8191C2098.97 68.8191 2103.74 64.0435 2103.74 58.1525ZM2093.07 354.805L2094.76 355.889L2095.7 354.423L2094.38 353.287L2093.07 354.805ZM1753.55 484.59H1751.55V486.039L1752.93 486.49L1753.55 484.59ZM2076.53 667.75L2078.28 668.715L2078.91 667.562L2078.1 666.523L2076.53 667.75ZM2076.53 897.543L2078.32 898.425L2078.86 897.329L2078.13 896.349L2076.53 897.543ZM1759.98 741.351L1758.31 740.251L1757.87 740.928L1758.02 741.726L1759.98 741.351ZM1693.37 917.769L1692.5 915.969L1691.29 916.553L1691.38 917.893L1693.37 917.769ZM1702.9 1071.15L1700.91 1071.28L1700.99 1072.65L1702.3 1073.06L1702.9 1071.15ZM2114.64 1127.34L2113.56 1129.02L2116.3 1126.22L2114.64 1127.34ZM1949.64 1176.78L1950.28 1178.68L1950.88 1178.48L1951.25 1177.96L1949.64 1176.78ZM1797.69 1227.34L1795.7 1227.54L1798.32 1229.24L1797.69 1227.34ZM1629.68 159.284L1627.75 158.761L1627.4 160.059L1628.47 160.875L1629.68 159.284ZM1579.67 -39.0461C1579.67 -44.9371 1574.89 -49.7128 1569 -49.7128C1563.11 -49.7128 1558.33 -44.9371 1558.33 -39.0461C1558.33 -33.1552 1563.11 -28.3795 1569 -28.3795C1574.89 -28.3795 1579.67 -33.1552 1579.67 -39.0461ZM2108.76 1134.08C2108.76 1128.19 2103.98 1123.41 2098.09 1123.41C2092.2 1123.41 2087.42 1128.19 2087.42 1134.08C2087.42 1139.97 2092.2 1144.74 2098.09 1144.74C2103.98 1144.74 2108.76 1139.97 2108.76 1134.08ZM1762 -5.53516L1763.06 -7.22961L1762.14 -7.80493L1761.16 -7.35095L1762 -5.53516ZM1906.17 -21.0352C1906.17 -26.9261 1901.39 -31.7018 1895.5 -31.7018C1889.61 -31.7018 1884.83 -26.9261 1884.83 -21.0352C1884.83 -15.1442 1889.61 -10.3685 1895.5 -10.3685C1901.39 -10.3685 1906.17 -15.1442 1906.17 -21.0352ZM1973.67 97.9648C1973.67 92.0739 1968.89 87.2982 1963 87.2982C1957.11 87.2982 1952.33 92.0739 1952.33 97.9648C1952.33 103.856 1957.11 108.631 1963 108.631C1968.89 108.631 1973.67 103.856 1973.67 97.9648ZM2091.53 56.8787L1948.1 230.487L1951.19 233.035L2094.62 59.4263L2091.53 56.8787ZM1951.36 230.737L1837.52 39.7115L1834.08 41.7594L1947.93 232.785L1951.36 230.737ZM1833.94 40.0149L1751.69 252.953L1755.42 254.394L1837.67 41.4561L1833.94 40.0149ZM1753.78 255.661L1949.87 233.749L1949.42 229.774L1753.33 251.686L1753.78 255.661ZM2094.38 353.287L1950.95 230.243L1948.34 233.279L2091.77 356.323L2094.38 353.287ZM1976.9 538.487L2094.76 355.889L2091.39 353.72L1973.54 536.318L1976.9 538.487ZM1947.65 231.928L1973.23 537.57L1977.21 537.236L1951.64 231.595L1947.65 231.928ZM1751.55 253.673V484.59H1755.55V253.673H1751.55ZM1754.88 486.085L1868.72 384.954L1866.07 381.963L1752.23 483.095L1754.88 486.085ZM1865.76 384.606L1973.58 538.55L1976.86 536.255L1869.03 382.311L1865.76 384.606ZM1947.89 230.808L1865.64 382.505L1869.15 384.412L1951.4 232.715L1947.89 230.808ZM1973.64 538.63L2074.95 668.977L2078.1 666.523L1976.8 536.176L1973.64 538.63ZM2076.25 665.769L1935.33 685.434L1935.88 689.395L2076.8 669.731L2076.25 665.769ZM1937.54 687.925L1977.15 537.914L1973.29 536.892L1933.67 686.904L1937.54 687.925ZM1865.45 382.979L1833.86 511.079L1837.74 512.037L1869.34 383.937L1865.45 382.979ZM1835.44 513.525L1974.86 539.369L1975.59 535.436L1836.17 509.592L1835.44 513.525ZM1937.34 686.427L1837.54 510.571L1834.06 512.545L1933.86 688.402L1937.34 686.427ZM1933.89 688.452L2002.1 800.82L2005.52 798.745L1937.31 686.377L1933.89 688.452ZM2005.56 800.748L2078.28 668.715L2074.77 666.785L2002.05 798.818L2005.56 800.748ZM2002.2 800.976L2074.92 898.737L2078.13 896.349L2005.41 798.589L2002.2 800.976ZM2075.9 895.642L1934.98 941.713L1936.22 945.515L2077.15 899.444L2075.9 895.642ZM1937.41 944.471L2005.61 800.64L2002 798.926L1933.79 942.757L1937.41 944.471ZM2004.17 797.817L1886.82 775.905L1886.09 779.837L2003.44 801.749L2004.17 797.817ZM1888.21 778.826L1937.36 688.369L1933.84 686.46L1884.7 776.916L1888.21 778.826ZM1884.54 778.439L1933.68 944.183L1937.52 943.045L1888.37 777.302L1884.54 778.439ZM1936.15 685.492L1818.3 651.781L1817.2 655.627L1935.05 689.337L1936.15 685.492ZM1816 654.672L1884.7 778.839L1888.2 776.903L1819.5 652.736L1816 654.672ZM1833.82 511.306L1815.76 653.452L1819.73 653.956L1837.79 511.81L1833.82 511.306ZM1752.93 486.49L1759.36 488.598L1760.61 484.797L1754.18 482.689L1752.93 486.49ZM1759.36 488.598L1835.18 513.459L1836.42 509.658L1760.61 484.797L1759.36 488.598ZM1758.09 487.351L1815.86 654.358L1819.64 653.05L1761.87 486.044L1758.09 487.351ZM1887.01 775.949L1760.54 739.43L1759.43 743.273L1885.9 779.792L1887.01 775.949ZM1761.65 742.452L1819.42 654.805L1816.08 652.603L1758.31 740.251L1761.65 742.452ZM1934.77 941.795L1816.92 995.732L1818.58 999.369L1936.43 945.433L1934.77 941.795ZM1819.68 997.043L1787.08 872.876L1783.21 873.892L1815.81 998.059L1819.68 997.043ZM1784.3 875.196L1934.76 945.426L1936.45 941.802L1786 871.572L1784.3 875.196ZM1885.08 776.416L1783.78 871.929L1786.52 874.839L1887.83 779.326L1885.08 776.416ZM1758.02 741.726L1783.18 873.758L1787.11 873.009L1761.95 740.977L1758.02 741.726ZM1784.28 871.583L1692.5 915.969L1694.24 919.57L1786.02 875.184L1784.28 871.583ZM1691.38 917.893L1700.91 1071.28L1704.9 1071.03L1695.37 917.645L1691.38 917.893ZM1703.98 1072.84L1818.83 999.235L1816.67 995.867L1701.82 1069.47L1703.98 1072.84ZM1692.29 919.453L1816.67 999.234L1818.83 995.867L1694.45 916.086L1692.29 919.453ZM1933.65 943.181L1909.08 1053.86L1912.98 1054.73L1937.55 944.047L1933.65 943.181ZM1912.07 1052.59L1818.79 995.842L1816.71 999.259L1909.99 1056.01L1912.07 1052.59ZM1934.59 945.338L2026.36 999.275L2028.39 995.826L1936.61 941.89L1934.59 945.338ZM2029.17 998.433L2078.32 898.425L2074.73 896.661L2025.58 996.669L2029.17 998.433ZM2025.38 997.551V1071.15H2029.38V997.551H2025.38ZM2027.66 1069.17L1911.31 1052.32L1910.74 1056.28L2027.09 1073.13L2027.66 1069.17ZM1910.39 1052.4L1784.51 1095.1L1785.79 1098.89L1911.67 1056.19L1910.39 1052.4ZM1787.05 1097.62L1819.65 998.174L1815.85 996.928L1783.25 1096.37L1787.05 1097.62ZM1702.3 1073.06L1784.55 1098.9L1785.75 1095.09L1703.5 1069.24L1702.3 1073.06ZM2025.72 998.667L2112.98 1128.45L2116.3 1126.22L2029.04 996.435L2025.72 998.667ZM2115.72 1125.65L2028.46 1069.47L2026.29 1072.83L2113.56 1129.02L2115.72 1125.65ZM1909.12 1054.9L1947.74 1177.38L1951.55 1176.18L1912.94 1053.7L1909.12 1054.9ZM1950.52 1174.98L1786.02 1095.2L1784.28 1098.8L1948.77 1178.58L1950.52 1174.98ZM1949.01 1174.88L1797.06 1225.45L1798.32 1229.24L1950.28 1178.68L1949.01 1174.88ZM1799.68 1227.15L1787.14 1096.81L1783.16 1097.19L1795.7 1227.54L1799.68 1227.15ZM1754.77 252.082L1630.89 157.693L1628.47 160.875L1752.34 255.264L1754.77 252.082ZM1630.68 161.018L1836.8 42.4692L1834.8 39.0017L1628.69 157.55L1630.68 161.018ZM1631.61 159.807L1663.71 41.2582L1659.85 40.2128L1627.75 158.761L1631.61 159.807ZM1663.08 39.219L1570.3 -40.5626L1567.7 -37.5297L1660.47 42.252L1663.08 39.219ZM1951.25 1177.96L1958.28 1168.41L1955.06 1166.04L1948.03 1175.59L1951.25 1177.96ZM1958.28 1168.41L2028.99 1072.34L2025.77 1069.97L1955.06 1166.04L1958.28 1168.41ZM1957.13 1169.17L2098.55 1136.03L2097.63 1132.13L1956.22 1165.28L1957.13 1169.17ZM1662.62 42.5513L1762.84 -3.71936L1761.16 -7.35095L1660.94 38.9197L1662.62 42.5513ZM1760.94 -3.8407L1834.74 42.4299L1836.86 39.041L1763.06 -7.22961L1760.94 -3.8407ZM1837.24 42.1254L1896.94 -19.6453L1894.06 -22.425L1834.36 39.3456L1837.24 42.1254ZM1834.98 42.5593L1962.18 99.7887L1963.82 96.141L1836.62 38.9116L1834.98 42.5593Z" fill="white" fill-opacity="0.3"/>
<circle cx="128" cy="557.002" r="11" fill="#E0F0E7"/>
<circle cx="61" cy="436" r="11" fill="#E0F0E7"/>
<circle cx="10.4219" cy="523.582" r="11" fill="#E0F0E7"/>
<circle cx="-4.62305" cy="978.674" r="11" fill="#E0F0E7"/>
<circle cx="78.627" cy="826.977" r="11" fill="#E0F0E7"/>
<circle cx="191.968" cy="958.445" r="11" fill="#E0F0E7"/>
<circle cx="109.72" cy="698.877" r="11" fill="#E0F0E7"/>
<circle cx="10.4219" cy="267.381" r="11" fill="#E0F0E7"/>
<circle cx="-1.61426" cy="37.0293" r="11" fill="#E0F0E7"/>
<circle cx="35.4976" cy="156.137" r="11" fill="#E0F0E7"/>
<circle cx="129.781" cy="211.197" r="11" fill="#E0F0E7"/>
<circle cx="161" cy="340.002" r="11" fill="#E0F0E7"/>
<circle cx="186" cy="472.715" r="11" fill="#E0F0E7"/>
<circle cx="187" cy="728" r="11" fill="#E0F0E7"/>
<circle cx="160.874" cy="113.436" r="11" fill="#E0F0E7"/>
<circle cx="243.121" cy="138.156" r="11" fill="#E0F0E7"/>
<circle cx="251" cy="291.297" r="11" fill="#E0F0E7"/>
<circle cx="346" cy="113.096" r="11" fill="#E0F0E7"/>
<circle cx="228.076" cy="23.543" r="11" fill="#E0F0E7"/>
<circle cx="297.284" cy="37.0293" r="11" fill="#E0F0E7"/>
<circle cx="11" cy="11" r="11" transform="matrix(1 0 0 -1 1744 262.646)" fill="#E0F0E7"/>
<circle cx="11" cy="11" r="11" transform="matrix(1 0 0 -1 1823 49.7871)" fill="#E0F0E7"/>
<circle cx="11" cy="11" r="11" transform="matrix(1 0 0 -1 1647 55.3691)" fill="#E0F0E7"/>
<circle cx="11" cy="11" r="11" transform="matrix(1 0 0 -1 1748 492.309)" fill="#E0F0E7"/>
<circle cx="11" cy="11" r="11" transform="matrix(1 0 0 -1 1752 747.738)" fill="#E0F0E7"/>
<circle cx="11" cy="11" r="11" transform="matrix(1 0 0 -1 1617 165.178)" fill="#E0F0E7"/>
<circle cx="11" cy="11" r="11" transform="matrix(1 0 0 -1 1826 520.316)" fill="#E0F0E7"/>
<circle cx="11" cy="11" r="11" transform="matrix(1 0 0 -1 1854.66 395.834)" fill="#E0F0E7"/>
<circle cx="11" cy="11" r="11" transform="matrix(1 0 0 -1 1807 663.715)" fill="#E0F0E7"/>
<circle cx="11" cy="11" r="11" transform="matrix(1 0 0 -1 1870.71 786.875)" fill="#E0F0E7"/>
<circle cx="11" cy="11" r="11" transform="matrix(1 0 0 -1 1898 1061.42)" fill="#E0F0E7"/>
<circle cx="11" cy="11" r="11" transform="matrix(1 0 0 -1 1803.5 1005.99)" fill="#E0F0E7"/>
<circle cx="11" cy="11" r="11" transform="matrix(1 0 0 -1 1772 879.934)" fill="#E0F0E7"/>
<circle cx="11" cy="11" r="11" transform="matrix(1 0 0 -1 1685 929.229)" fill="#E0F0E7"/>
<circle cx="11" cy="11" r="11" transform="matrix(1 0 0 -1 1692.17 1083.53)" fill="#E0F0E7"/>
</g>
<defs>
<linearGradient id="paint0_linear_120_1507" x1="960" y1="0" x2="960" y2="1080" gradientUnits="userSpaceOnUse">
<stop stop-color="#9CD3C0"/>
<stop offset="1" stop-color="#FFBD91"/>
</linearGradient>
<clipPath id="clip0_120_1507">
<rect width="1920" height="1080" fill="white"/>
</clipPath>
</defs>
</svg>
