<svg xmlns="http://www.w3.org/2000/svg" width="165" height="165" fill="none" viewBox="0 0 165 165"><path fill="#F2F2F2" d="M165 82.5C165.011 91.8947 163.414 101.222 160.277 110.078C160.264 110.119 160.25 110.156 160.234 110.197V110.199C157.885 116.788 154.705 123.049 150.769 128.831C150.087 129.839 149.381 130.829 148.651 131.804C147.847 132.882 147.018 133.938 146.164 134.973C145.376 135.927 144.568 136.863 143.738 137.781C142.752 138.874 141.737 139.94 140.693 140.977C138.235 143.425 135.624 145.716 132.878 147.836C132.396 148.21 131.909 148.578 131.416 148.939C130.27 149.786 129.1 150.602 127.908 151.388C125.286 153.122 122.566 154.703 119.762 156.123C119.278 156.37 118.79 156.613 118.3 156.848C116.405 157.763 114.472 158.605 112.5 159.374C111.937 159.595 111.373 159.809 110.803 160.015C110.707 160.052 110.611 160.087 110.513 160.121C103.751 162.561 96.697 164.102 89.5331 164.702C89.0353 164.747 88.5369 164.785 88.0379 164.816C87.5088 164.853 86.9791 164.883 86.4487 164.906C86.0293 164.927 85.6119 164.943 85.1906 164.955C85.1043 164.959 85.0162 164.963 84.9299 164.963C84.3636 164.98 83.7953 164.992 83.2251 164.996C82.984 164.998 82.743 165 82.5 165C82.3864 165 82.2727 165 82.159 164.998C80.5149 164.992 78.8832 164.939 77.2639 164.837C77.2306 164.835 77.1973 164.831 77.164 164.831C76.5839 164.792 76.0058 164.751 75.4297 164.7C73.378 164.528 71.3485 164.28 69.3412 163.956C68.8787 163.883 68.4175 163.805 67.9577 163.72C65.9608 163.368 63.9901 162.942 62.0455 162.445C61.4674 162.298 60.8926 162.144 60.3211 161.984C52.3748 159.77 44.8079 156.371 37.8756 151.9C36.6841 151.134 35.5149 150.337 34.3679 149.509C34.2268 149.411 34.0877 149.309 33.9485 149.207C31.1622 147.176 28.5057 144.972 25.9944 142.609C24.8049 141.492 23.6501 140.34 22.5298 139.153C8.03402 123.856 -0.0314399 103.574 9.21083e-05 82.5C9.21083e-05 36.9369 36.9369 0 82.5 0C128.063 0 165 36.9369 165 82.5Z"/><path fill="#fff" d="M92.2408 20.8067C93.8968 18.079 95.8591 15.1665 98.9322 14.2758C102.491 13.2444 106.147 15.2934 109.248 17.3154C118.522 23.3625 127.453 29.9159 136 36.9455L135.991 37.0514C129.336 36.5943 122.682 36.1373 116.028 35.6803C111.22 35.3501 106.247 34.9744 101.999 32.7093C100.387 31.8498 98.815 30.7017 96.9881 30.6217C94.7183 30.5223 92.7392 32.1011 91.1839 33.7505C81.9839 43.5073 79.3216 58.4279 69 67C75.5085 51.0145 83.2797 35.5683 92.2408 20.8067Z"/><path fill="#fff" d="M36.4849 103.897C37.4949 102.618 37.9076 102.319 38.9039 101.028C47.0159 90.506 54.6406 79.6289 61.7779 68.3963C66.6259 60.7675 71.2334 52.9923 75.6006 45.0705C77.6797 41.3044 79.7018 37.5088 81.6669 33.6836C83.1918 30.7176 84.6826 27.7339 86.1395 24.7325C86.5561 23.8752 86.9609 23.014 87.3637 22.1508C88.3129 20.1209 89.2444 18.0812 90.2446 16.0789C91.3844 13.7968 92.7718 11.4043 94.8647 9.87108C95.8171 9.14467 96.9561 8.70515 98.1484 8.60389C99.8521 8.49353 101.424 9.19906 102.902 9.96961C113.714 15.6237 123.836 22.7125 132.992 30.7787C142.171 38.8631 150.375 47.9965 157.438 57.9927C157.654 58.3021 158.165 58.0065 157.947 57.6951C157.088 56.4772 156.212 55.2724 155.32 54.0808C147.91 44.1918 139.365 35.2123 129.861 27.3279C125.156 23.4236 120.229 19.796 115.105 16.4632C112.498 14.7684 109.841 13.153 107.135 11.6172C105.771 10.8427 104.401 10.078 103.008 9.36066C101.642 8.65711 100.192 8.02449 98.6318 8.00084C93.322 7.91808 90.5728 13.9485 88.6843 18.0063C88.0909 19.2834 87.4902 20.5565 86.8823 21.8256C84.5851 26.6441 82.1995 31.4185 79.7254 36.149C78.1985 39.0696 76.6382 41.9732 75.0444 44.8597C70.0845 53.8482 64.8127 62.6548 59.2291 71.2795C51.8324 82.7039 44.4947 92.7961 36.0683 103.479C35.8363 103.775 36.2509 104.197 36.4849 103.897Z"/><path fill="#fff" d="M65.6413 55.5294L57.6976 52.6234L53.7535 51.1806C52.469 50.7107 51.1876 50.1757 49.8597 49.8393C48.6856 49.5418 47.4927 49.4931 46.3353 49.8842C45.314 50.2623 44.3791 50.8419 43.5863 51.5885C42.7763 52.3346 42.0227 53.1395 41.3316 53.9968C40.4729 55.029 39.6269 56.0719 38.7771 57.1114C35.2697 61.4015 31.7853 65.7102 28.3239 70.0375C24.8625 74.3648 21.4242 78.7104 18.0091 83.0745C14.5857 87.4492 11.1858 91.8422 7.8094 96.2534C7.39579 96.7938 6.98253 97.3345 6.56963 97.8754C6.34151 98.1743 5.82713 97.8797 6.05848 97.5766C9.45975 93.121 12.8847 88.6836 16.3334 84.2644C19.7906 79.8347 23.2716 75.4237 26.7766 71.0316C30.2815 66.6395 33.81 62.2665 37.3623 57.9125C38.2472 56.8278 39.1337 55.7443 40.0216 54.662C40.7705 53.749 41.5111 52.8262 42.3326 51.9765C43.8405 50.4167 45.7244 49.0382 47.9795 49.0008C49.3054 48.9788 50.5885 49.3996 51.8204 49.8454C53.1484 50.3259 54.4733 50.8154 55.7996 51.3006L63.7989 54.2269L65.7987 54.9584C66.1536 55.0883 66.0003 55.6607 65.6413 55.5294Z"/><path fill="#fff" d="M43.9921 56.2882C44.7979 55.3554 45.6692 54.3788 46.8746 54L48 54.0422C39.4332 68.4353 27.8632 81.0118 14 91C23.9974 79.4294 33.9947 67.8588 43.9921 56.2882Z"/><path fill="#2F2E41" d="M97 40.9983C97.0005 42.4713 96.6394 43.9218 95.9484 45.2226C95.2573 46.5234 94.2575 47.6348 93.0366 48.459C91.8157 49.2833 90.411 49.7953 88.946 49.9501C87.481 50.105 86.0003 49.8979 84.6341 49.347C83.2678 48.7961 82.0576 47.9184 81.1098 46.7907C80.1621 45.6631 79.5056 44.3201 79.1982 42.8796C78.8907 41.4391 78.9416 39.9452 79.3465 38.529C79.7513 37.1128 80.4976 35.8176 81.52 34.7571C81.5344 34.7427 81.5488 34.7283 81.5632 34.7139C81.6352 34.6383 81.7072 34.5627 81.7828 34.4907C81.7833 34.4907 81.7838 34.4906 81.7842 34.4905C81.7846 34.4903 81.785 34.49 81.7854 34.4897C81.7857 34.4893 81.786 34.4889 81.7861 34.4885C81.7863 34.4881 81.7864 34.4876 81.7864 34.4871C81.88 34.4007 81.9736 34.3144 82.0708 34.2316C83.3713 33.0916 84.9729 32.3506 86.6837 32.0971C88.3946 31.8437 90.1422 32.0887 91.7174 32.8026C93.2926 33.5166 94.6287 34.6694 95.5655 36.1229C96.5024 37.5764 97.0005 39.2691 97 40.9983Z"/><path fill="#FFB6B6" d="M91.0538 48.2006C94.0583 45.1989 94.0583 40.3323 91.0538 37.3307C88.0493 34.329 83.178 34.329 80.1735 37.3307C77.169 40.3323 77.169 45.1989 80.1735 48.2006C83.178 51.2023 88.0493 51.2023 91.0538 48.2006Z"/><path fill="#2F2E41" d="M91.0655 35.3539C89.8758 34.2324 88.3963 33.4717 86.7968 33.1594C85.1973 32.847 83.5428 32.9957 82.0234 33.5883C81.9784 33.606 81.9334 33.6257 81.8884 33.6474C81.8865 33.6474 81.8865 33.6493 81.8845 33.6493C81.7378 33.7104 81.5892 33.7735 81.4464 33.8425L81.3584 33.8858V33.8976C81.3427 33.9095 81.3251 33.9233 81.3075 33.9351C81.2716 33.9689 81.2279 33.9932 81.1804 34.006C79.7037 34.0257 78.5008 34.5302 77.6089 35.5056C76.4178 36.8062 75.8584 38.9089 76.0305 41.4273L76.0345 41.5042L76.1009 41.5475C76.7307 41.9436 77.3273 42.2924 77.9023 42.5978C78.2427 42.7811 78.5732 42.9486 78.9018 43.1023C78.9409 43.12 78.98 43.1398 79.0191 43.1575C82.3442 44.7044 85.3856 44.9842 88.3077 44.0048L88.3625 43.9871L89.6044 41.8904C89.7324 42.6067 90.0744 43.2666 90.5847 43.7818C91.0951 44.297 91.7493 44.643 92.4601 44.7734L92.9764 44.866L93.7334 45L93.7646 44.8561C94.5157 41.447 93.4302 37.63 91.0655 35.3539Z"/><path fill="#2F2E41" d="M109.745 51.7145C107.149 50.3947 110.488 45.6047 109.817 42.8041C109.146 40.0035 104.313 39.1028 104.005 36.2413C103.698 33.3798 102.973 30.4285 101.056 28.2572C99.8302 26.8697 98.0247 25.8455 96.1656 26.0192C95.5367 26.078 94.9279 26.2696 94.3809 26.581C93.8339 26.8923 93.3614 27.3161 92.9957 27.8234C92.63 28.3307 92.3797 28.9097 92.2617 29.5209C92.1438 30.132 92.161 30.7611 92.3122 31.3651C91.7829 30.6267 90.4131 30.7867 90.0741 31.6267C89.7726 32.3734 90.4385 33.2779 91.2222 33.344C92.2476 34.5909 93.4219 35.9143 95.0284 36.1658C95.5459 36.2468 96.1276 36.1875 96.5055 35.8301C96.8835 35.4727 96.9128 34.7582 96.4645 34.4911C98.4834 35.2808 99.6671 37.4301 99.9666 39.5487C100.266 41.6673 99.8517 43.8109 99.5786 45.9329C99.3055 48.055 99.1879 50.2873 100.033 52.2579C101.031 54.5861 103.33 56.2548 105.838 56.79C108.347 57.3251 111.018 56.8021 113.289 55.6237C115.56 54.4453 117.453 52.6463 119 50.6295C116.336 52.4924 112.649 53.1903 109.745 51.7145Z"/><path fill="#FFB8B8" d="M80.3126 83.6019L75 120L104 117.807L95.3199 82L80.3126 83.6019Z"/><path fill="#2F2E41" d="M109.938 159.707C109.913 159.833 109.881 159.958 109.842 160.08C106.552 161.301 103.187 162.298 99.7701 163.066C99.0499 160.636 97.6691 156.034 96.4597 152.27C95.4718 149.198 94.5994 146.685 94.2952 146.371C93.4498 145.507 94.2952 144.356 94.2952 144.356L90.6844 132.839L89.0436 127.607L88.4813 138.598L87.6647 154.519L87.6416 154.965C87.6416 154.965 86.517 158.421 87.0793 158.998C87.6416 159.575 86.517 161.88 86.517 161.88L86.1935 164.905C85.7814 164.927 85.3712 164.943 84.9571 164.955L84.8165 165L84.701 164.962C84.1445 164.98 83.586 164.991 83.0256 164.996C82.7887 164.998 82.5518 165 82.313 165C82.2013 165 82.0897 165 81.978 164.998C80.3622 164.992 78.7587 164.938 77.1674 164.836L76.1795 156.587L75.1588 148.064C75.1588 148.064 76.2815 145.762 75.1588 144.61C74.4829 143.917 74.8218 142.909 75.2012 142.218C74.9662 141.149 74.6446 139.505 74.2113 137.071C74.1959 136.99 74.1824 136.907 74.167 136.824C74.0303 136.052 73.9077 135.294 73.7992 134.552C73.6066 133.246 73.4564 131.992 73.3409 130.79C72.949 126.9 72.8949 122.981 73.1791 119.08C73.287 117.693 73.4218 116.678 73.5103 116.091C73.5181 116.036 73.6009 115.725 73.7357 115.235C73.9475 114.451 74.2961 113.206 74.687 111.813C74.895 111.074 75.1145 110.294 75.3321 109.518C75.7115 108.172 76.089 106.839 76.3932 105.76V105.754C76.6609 104.807 76.8747 104.061 76.9864 103.669C77.0403 103.478 77.0692 103.373 77.0692 103.373C77.0692 103.373 77.1289 103.359 77.2425 103.334C77.5949 103.251 78.4654 103.051 79.6709 102.784C80.9284 102.512 82.548 102.166 84.3274 101.814C85.8507 101.514 87.4914 101.208 89.1226 100.933C89.708 100.836 90.2934 100.741 90.8712 100.653C94.4396 100.107 97.7153 99.797 99.2675 100.151C99.375 100.174 99.4811 100.204 99.5853 100.24C99.6906 100.275 99.7919 100.322 99.8876 100.38C99.9358 100.41 100.402 102.275 100.997 104.705C101.003 104.728 101.008 104.754 101.014 104.778C101.193 105.513 101.384 106.295 101.578 107.095C101.777 107.911 101.977 108.743 102.174 109.553C102.757 111.96 103.296 114.186 103.574 115.277C103.679 115.7 103.749 115.951 103.764 115.978C104.415 117.091 104.947 119.817 105.378 123.237C105.763 126.29 106.069 129.895 106.306 133.398C106.424 135.131 106.524 136.84 106.609 138.444C106.895 143.842 107.011 148.056 107.011 148.056C107.011 148.056 107.44 151.569 108.294 153.227C108.399 153.441 108.533 153.638 108.692 153.813C109.26 154.396 109.326 154.902 109.251 155.262C109.218 155.431 109.15 155.592 109.05 155.732C109.028 155.766 109.003 155.799 108.975 155.829C108.902 156.186 108.915 156.557 109.013 156.908C109.111 157.259 109.291 157.58 109.538 157.844C110.083 158.407 110.038 159.213 109.938 159.707Z"/><path fill="#FFBD91" d="M100.752 72.0236C100.72 71.7771 100.686 71.5285 100.65 71.278C100.629 71.1175 100.605 70.957 100.582 70.7985C100.342 69.1976 101.341 67.8277 100.048 66.72C99.7451 66.4649 99.4985 66.146 99.3242 65.7845L99.0276 65.166L98.4818 64.0192L97.288 61.5259L97.0822 61.0973C97.0239 60.9755 96.9569 60.8584 96.8819 60.747C96.6588 60.4113 96.3682 60.1295 96.0301 59.9211L93.0647 58.0892C92.6064 57.8075 92.2375 57.3933 92.0032 56.8974L91.9295 56.7408C91.6028 56.0461 91.0173 54.3845 90.3241 53.6623L90.3222 53.6604C90.1711 53.4814 89.9661 53.3607 89.7404 53.3179L86.7883 53.0145C86.3162 52.9648 85.8397 53.0431 85.4056 53.2418C84.9714 53.4404 84.5946 53.7526 84.3121 54.1477L84.2309 54.5293L83.7568 56.7663L83.7303 56.7721C83.5906 56.8054 83.4508 56.8387 83.3129 56.8798C80.2512 57.7468 78.9744 68.8375 78.9744 68.8375C78.9744 68.8375 76.8306 72.5031 77.673 74.7714L79.1765 78.4292C79.1881 78.4569 79.197 78.4857 79.2029 78.5153C79.3389 78.9134 79.3866 79.3382 79.3427 79.758L79.3446 79.9009L79.3484 80.216L79.3597 81.0243L79.3956 83.7055L79.4409 87.0618L79.4806 89.9211L79.4938 90.6824L77.0176 101.848C76.9771 102.214 77.0067 102.586 77.1049 102.941C77.2031 103.296 77.3679 103.627 77.5899 103.916L77.5918 103.918C77.6462 103.99 77.7042 104.06 77.7656 104.126L77.7674 104.128C77.826 104.19 77.8864 104.247 77.9488 104.304C78.247 104.574 78.5986 104.773 78.979 104.888C79.3595 105.003 79.7595 105.03 80.1511 104.967L80.4816 104.914H80.4835L85.281 104.169H85.2848L85.8401 104.083H85.8439L91.2137 103.247H91.2175L92.1373 103.102C92.211 103.092 92.2828 103.083 92.3564 103.077L97.2729 102.726C97.3858 102.718 97.4981 102.703 97.6091 102.681H97.611C98.0433 102.593 98.4487 102.398 98.7929 102.112C99.1371 101.827 99.41 101.461 99.5886 101.043C99.6629 100.876 99.7192 100.701 99.7567 100.521C99.7993 100.326 99.8227 100.127 99.8266 99.9277L99.8813 95.1289L100.068 79.621C100.072 79.1036 100.215 78.5975 100.48 78.1591C101.162 77.0318 101.085 74.6168 100.752 72.0236Z"/><path fill="#9E616A" d="M93.0391 113.675C92.9755 113.273 92.9896 112.86 93.0805 112.466C93.1713 112.071 93.3366 111.704 93.5648 111.39C93.793 111.076 94.0784 110.824 94.4011 110.65C94.7237 110.476 95.0757 110.385 95.4322 110.384L98.2513 101L101 105.085L97.9015 113.37C97.8634 114.056 97.6069 114.703 97.1806 115.186C96.7543 115.67 96.1877 115.958 95.5884 115.996C94.989 116.033 94.3985 115.818 93.9286 115.39C93.4587 114.962 93.1422 114.352 93.0391 113.675Z"/><path fill="#FFBD91" d="M105 94.2929L104.26 96.0846L103.225 107.168C102.904 107.246 102.597 107.37 102.315 107.536C101.701 107.9 101.234 108.453 100.989 109.104C100.745 109.756 100.736 110.467 100.966 111.124L101.27 112L99.0085 111.332L95.2908 110.236L90.9077 108.942L91.6501 106.631C91.8219 106.099 91.8566 105.536 91.7513 104.989C91.646 104.442 91.4038 103.928 91.0456 103.491C90.957 103.382 90.8615 103.279 90.7597 103.181L91.0375 101.185L91.2018 99.9992L89.1959 101.462L85.2732 104.323H85.2712L84.752 104.703C84.752 104.703 84.7236 104.601 84.6708 104.408C84.5715 104.036 84.3849 103.324 84.1455 102.33C82.9603 97.3809 82.0872 92.3673 81.5311 87.3167C81.4094 86.1794 81.304 85.0147 81.2188 83.8326C81.1315 82.6154 81.0666 81.3806 81.0322 80.1381C80.7401 70.0244 82.3586 59.422 89.1229 54C89.45 54.0022 89.7748 54.0521 90.0863 54.148C92.8244 54.9562 95.8282 58.9059 97.9052 61.7318C98.396 62.3998 98.8341 63.0035 99.2053 63.4885L100.104 64.6628C101.331 66.2674 102.18 68.1088 102.592 70.0595C102.68 70.4724 102.748 70.8905 102.797 71.3137L103.779 79.9842V82.2181L105 94.2929Z"/><path fill="#CCC" d="M5 110C6.69626 112.062 8.53096 114 10.4907 115.8L154.509 116C156.469 114.2 158.304 112.262 160 110.2L5 110Z"/><path fill="#FFB6B6" d="M84 164.843C83.7371 164.845 83.4741 164.847 83.2091 164.847C83.0851 164.847 82.9611 164.847 82.8371 164.845C81.0436 164.839 79.2637 164.787 77.4972 164.688L77.54 165L77.3882 164.682L74 157.617L76.4006 156.694L80.8042 155L82.1402 159.114L83.4185 163.055L83.7991 164.223L84 164.843Z"/><path fill="#FFB6B6" d="M69 157L68.0949 164C66.0364 163.653 64.0047 163.235 62 162.746V157.002L69 157Z"/><path fill="#CACACA" d="M38 144V152C36.981 151.272 35.981 150.515 35 149.729V144H38Z"/><path fill="#3F3D56" d="M52 141.908V146.092C51.9998 146.863 51.6912 147.602 51.1422 148.147C50.5931 148.693 49.8485 148.999 49.0717 149H34.4441C31.6516 146.98 28.9891 144.788 26.4723 142.438C25.2802 141.327 24.1227 140.181 23 139H49.0717C49.8484 139.001 50.5929 139.308 51.1419 139.853C51.6909 140.398 51.9995 141.137 52 141.908Z"/><path fill="#2F2E41" d="M86 164.649L85.5168 164.8L85.3728 164.845L85.2545 164.808C84.6845 164.825 84.1126 164.836 83.5387 164.841C83.2961 164.843 83.0535 164.845 82.809 164.845C82.6946 164.845 82.5802 164.845 82.4658 164.843C80.8111 164.837 79.1689 164.784 77.5392 164.684L77.5787 165L77.4386 164.678C76.8549 164.639 76.273 164.598 75.6932 164.548L71.1039 156.983L61.659 141.418L60.5644 139.614C60.5644 139.614 56.831 140.701 51.5474 141.744C47.5656 142.532 42.7041 143.291 37.8978 143.539C36.7125 143.601 35.5311 143.632 34.3675 143.623C31.3599 143.603 28.4706 143.326 25.9403 142.666C24.7431 141.559 23.5808 140.418 22.4534 139.242C20.5315 137.241 18.7134 135.147 17.0061 132.966C16.9832 132.166 17.0247 131.365 17.1304 130.571C17.1481 130.439 17.1659 130.305 17.1876 130.169L17.726 121.17L21.7256 120.65L27.8119 119.858L34.405 119L35.1308 124.594C35.1308 124.594 40.2644 124.338 46.7688 124.423C57.2156 124.563 71.1946 125.588 73.0879 129.987C73.2654 130.4 73.4429 130.817 73.6204 131.235C77.2966 139.902 80.6731 149.135 82.9667 155.696C83.4046 156.946 83.801 158.097 84.154 159.13C85.3196 162.541 86 164.649 86 164.649Z"/><path fill="#2F2E41" d="M75 135.288C74.8988 136.106 74.7922 136.922 74.68 137.734C73.6891 144.919 72.3245 151.781 71.1127 157.209C70.5202 159.858 69.9628 162.164 69.5025 164C69.0153 163.929 68.5294 163.851 68.045 163.768C65.9414 163.421 63.8653 163.002 61.8167 162.511C61.2077 162.366 60.6021 162.215 60 162.058L61.2263 141.725L61.6309 135L74.2382 135.272L75 135.288Z"/><path fill="#FFB6B6" d="M93.9861 102.515C94.4728 102.226 95.0131 102.054 95.5691 102.011C96.1251 101.968 96.6832 102.055 97.2041 102.266C97.725 102.478 98.196 102.808 98.5839 103.234C98.9718 103.66 99.2672 104.171 99.4493 104.732L113 104.749L109.116 111L96.8439 110.025C95.9385 110.289 94.9739 110.189 94.1328 109.746C93.2917 109.303 92.6326 108.547 92.2803 107.621C91.928 106.695 91.9071 105.664 92.2215 104.723C92.5359 103.782 93.1637 102.996 93.9861 102.515Z"/><path fill="#FDA98B" d="M101 110.525L126.424 113L126.492 112.916C126.62 112.755 139.347 96.792 141.485 92.992C142.8 90.7089 143.28 88.0536 142.843 85.4669L142.828 85.4037L142.777 85.3618C141.741 84.5103 140.439 84.0305 139.086 84.0014C137.733 83.9723 136.411 84.3958 135.337 85.2019C130.173 89.1209 126.01 94.1624 123.175 99.9284L121.566 103.21L102.908 103.994L101 110.525Z"/><path fill="#FFB6B6" d="M92 155.807L88.145 164.807C87.592 164.846 87.0382 164.877 86.4838 164.901C86.0455 164.924 85.6092 164.94 85.1688 164.953L85.0193 165L84.8964 164.961C84.3044 164.979 83.7104 164.991 83.1143 164.996C82.8624 164.998 82.6104 165 82.3564 165C82.2376 165 82.1188 165 82 164.998L82.256 164.119L82.5571 163.078L83.7534 158.954L85.4801 153L88.0487 154.105L92 155.807Z"/><path fill="#FFB6B6" d="M118 156.463C116.039 157.382 114.037 158.228 111.996 159L110 155.742L116.434 153L118 156.463Z"/><path fill="#CACACA" d="M131 142V148.625C130.02 149.446 129.02 150.237 128 151V142H131Z"/><path fill="#3F3D56" d="M144 137C143.028 138.196 142.028 139.362 140.998 140.497C138.575 143.175 136.002 145.681 133.295 148H117.88C117.471 148 117.066 147.903 116.694 147.716C116.321 147.528 115.988 147.255 115.719 146.913L115.717 146.907C115.395 146.504 115.172 146.017 115.068 145.492L115.066 145.487C115.022 145.262 115 145.032 115 144.801V140.199C115.001 139.351 115.304 138.538 115.844 137.938C116.384 137.339 117.116 137.001 117.88 137H144Z"/><path fill="#2F2E41" d="M149.975 121.397L148.282 128.653C148.447 129.705 148.502 130.77 148.446 131.833C147.644 132.91 146.816 133.965 145.963 134.999C145.176 135.953 144.368 136.888 143.54 137.805C142.556 138.897 141.542 139.962 140.499 140.998C137.782 141.852 134.581 142.2 131.234 142.224C130.08 142.233 128.907 142.202 127.731 142.14C122.962 141.889 118.138 141.123 114.187 140.328C113.142 140.121 112.159 139.909 111.255 139.704C109.543 139.318 108.11 138.958 107.073 138.684C105.905 138.378 105.239 138.181 105.239 138.181L100.795 145.627L96.7598 152.385L89.4073 164.702C88.9102 164.747 88.4125 164.785 87.9141 164.816C87.3857 164.853 86.8567 164.883 86.327 164.906C85.9082 164.928 85.4913 164.943 85.0706 164.955L84.9277 165L84.8103 164.963L82.9238 164.362L82.2877 164.16L80 163.432C80 163.432 80.5108 161.822 81.4051 159.138C81.7339 158.153 82.1136 157.022 82.5402 155.772C84.0803 151.257 86.2154 145.194 88.6519 138.837C89.374 136.949 90.1216 135.034 90.8907 133.129C91.5208 131.565 92.1627 130.006 92.8125 128.469C93.9417 125.805 99.3978 124.368 105.823 123.614C106.149 123.577 106.478 123.539 106.809 123.504C110.083 123.16 113.557 122.981 116.805 122.899C118.432 122.858 120.001 122.842 121.461 122.84C121.933 122.84 122.391 122.842 122.837 122.844H122.839C124.042 122.85 125.15 122.868 126.125 122.887C126.314 122.891 126.498 122.897 126.678 122.901H126.68C126.802 122.903 126.921 122.907 127.038 122.909C129.17 122.964 130.477 123.03 130.477 123.03L130.984 119.052L131.088 118.249L131.185 117.486V117.484L131.197 117.388L131.277 117.386L132.686 117.358L144.53 117.127L151 117L149.975 121.397Z"/><path fill="#2F2E41" d="M119 156.094C118.541 156.342 118.078 156.585 117.613 156.821C115.815 157.74 113.981 158.585 112.11 159.357C111.577 159.579 111.041 159.793 110.5 160C110.441 159.911 110.38 159.823 110.318 159.734C107.738 155.987 104.459 151.043 101.14 145.541C99.7514 143.24 98.3552 140.84 97 138.389L106.812 133.543L107.913 133L111.077 139.591L113.899 145.47L114.527 146.778L119 156.094Z"/><path fill="#FFB6B6" d="M134.5 75C139.747 75 144 70.5228 144 65C144 59.4772 139.747 55 134.5 55C129.253 55 125 59.4772 125 65C125 70.5228 129.253 75 134.5 75Z"/><path fill="#2F2E41" d="M135.023 74.3635C137.253 75.4431 139.997 75.0775 142.125 73.8073C144.254 72.5371 145.82 70.4655 146.915 68.2277C147.717 66.5888 148.299 64.7119 147.835 62.9452C147.371 61.1785 145.519 59.6982 143.783 60.2215C144.972 59.2554 144.834 57.2631 143.873 56.0661C142.912 54.869 141.397 54.2934 139.932 53.8596C137.807 53.23 135.574 52.7856 133.382 53.1076C131.19 53.4297 129.032 54.6274 128 56.6058C127.284 56.792 126.527 56.7332 125.848 56.4388C125.169 56.1443 124.605 55.6308 124.246 54.9786C124.007 55.6056 123.979 56.2945 124.168 56.9388C124.356 57.5832 124.749 58.147 125.287 58.543L122.318 56.9175C121.561 57.9762 122.249 59.5909 123.398 60.1907C124.547 60.7904 125.935 60.6304 127.189 60.31C128.443 59.9895 126.964 62.6621 128.257 62.6878C129.55 62.7136 130.949 63.3966 131.32 64.6475C131.514 65.3026 131.4 66.0061 131.458 66.6874C131.515 67.3687 131.838 68.1246 132.493 68.3021C132.906 68.4142 133.358 68.2657 133.768 68.3902C134.276 68.5445 134.586 69.0931 134.631 69.6267C134.675 70.1604 134.51 70.6866 134.346 71.196C133.699 73.2092 135.775 72.0808 135.128 74.094L135.023 74.3635Z"/><path fill="#FDA98B" d="M152.994 102.357C152.915 94.517 152.558 89.1735 151.933 86.4735C150.256 79.2148 142.506 77.8912 141.292 77.7272C141.163 77.385 140.964 77.073 140.708 76.8105C140.453 76.548 140.145 76.3406 139.805 76.2013C139.465 76.0619 139.1 75.9936 138.732 76.0005C138.365 76.0074 138.002 76.0894 137.668 76.2415L132.162 78.7482C131.045 79.2584 130.045 79.9913 129.225 80.9014C128.405 81.8115 127.782 82.8795 127.394 84.039L126.577 86.5184L126.167 103.158L127.522 110.157L127.524 110.161L128.437 114.876L127.809 115.813L124.22 121.162L124.159 121.256L124.157 121.258L124 121.49C124.218 121.609 124.434 121.726 124.646 121.843C125.196 122.144 125.733 122.439 126.255 122.728C126.381 122.798 126.505 122.866 126.628 122.937H126.63C126.709 122.98 126.787 123.023 126.864 123.066C128.824 124.155 130.609 125.164 132.217 126.094C132.441 126.222 132.663 126.351 132.881 126.478C140.306 130.795 144.07 133.438 145.985 135C146.842 133.969 147.672 132.917 148.478 131.843C149.209 130.873 149.916 129.886 150.601 128.881C150.721 128.097 150.802 127.312 150.88 126.543C150.975 125.617 151.073 124.659 151.238 123.716C151.31 123.298 151.032 122.902 150.762 122.519C150.513 122.162 150.277 121.826 150.326 121.51C150.377 121.184 150.739 120.828 151.09 120.483C151.474 120.104 151.87 119.713 151.927 119.302C152.084 118.154 152.224 117.002 152.346 115.846C152.546 113.966 152.7 112.08 152.807 110.188C152.959 107.576 153.021 104.966 152.994 102.357Z"/><path fill="#FFB6B6" d="M117.168 129.984C117.329 129.441 117.61 128.94 117.989 128.515C118.368 128.091 118.836 127.754 119.361 127.528C119.886 127.302 120.455 127.193 121.027 127.208C121.599 127.223 122.161 127.361 122.674 127.614L132.628 118L134 125.019L124.337 133.073C123.85 133.895 123.075 134.513 122.158 134.808C121.242 135.104 120.248 135.056 119.364 134.676C118.481 134.295 117.769 133.607 117.364 132.742C116.959 131.878 116.889 130.896 117.168 129.984Z"/><path fill="#FDA98B" d="M128.267 130L148 114.547L147.988 114.442C147.965 114.242 145.682 94.382 144.508 90.2572C143.825 87.7581 142.286 85.5624 140.149 84.0347L140.094 84L140.028 84.0047C138.693 84.1059 137.433 84.6484 136.456 85.5428C135.478 86.4371 134.842 87.63 134.653 88.9246C133.771 95.1799 134.389 101.55 136.46 107.532L137.643 110.933L125 124.106L128.267 130Z"/><path fill="#FFB6B6" d="M27.5 75C32.1944 75 36 70.9706 36 66C36 61.0294 32.1944 57 27.5 57C22.8056 57 19 61.0294 19 66C19 70.9706 22.8056 75 27.5 75Z"/><path fill="#3F3D56" d="M16.5435 130L16.4975 129.935C14.0403 126.462 17.7359 118.118 18.2933 116.908C17.6314 116.691 17.0644 116.25 16.689 115.658C16.3135 115.067 16.1527 114.363 16.234 113.665L16.4743 111.603L16.7247 109.581L14.9304 107.77L14.9254 107.724L13.8928 98.6042L12.3914 92.5466C11.8257 90.2566 11.874 87.8559 12.5311 85.591C13.1883 83.326 14.4307 81.2783 16.1309 79.6582L19.6013 79.102L23.8189 75H30.6202L32.9523 77.2491C37.5371 81.0427 38.6255 79.3947 43.7955 86.536L40.0938 96.3805L42.1629 110.9L42.1641 113.528L43.2418 114.737C43.63 115.172 43.9121 115.693 44.0656 116.258C44.219 116.823 44.2397 117.417 44.1259 117.991L43.9841 118.706C44.5319 118.943 45.0153 119.309 45.394 119.774C45.7726 120.238 46.0354 120.788 46.1603 121.376L46.5388 123.159C46.8626 123.59 49 126.467 49 127.253C49 127.371 48.9137 127.485 48.7284 127.612C47.2717 128.608 39.2208 130.637 35.6575 129.198C31.8619 127.666 16.7739 129.964 16.6219 129.988L16.5435 130Z"/><path fill="#FFB6B6" d="M12 96.3579L18.9197 95C21.4788 98.8311 22.8527 109.307 22.8527 109.307L30.5032 125.212C30.9734 125.498 31.3596 125.905 31.6223 126.389C31.885 126.874 32.0148 127.42 31.9987 127.971C31.9825 128.522 31.8208 129.059 31.5302 129.528C31.2395 129.996 30.8302 130.379 30.344 130.637C29.8578 130.895 29.312 131.02 28.7622 130.997C28.2124 130.975 27.6783 130.808 27.2143 130.511C26.7502 130.215 26.3728 129.801 26.1205 129.311C25.8681 128.82 25.7498 128.272 25.7777 127.721L15.7995 108.876L12 96.3579Z"/><path fill="#3F3D56" d="M12.2039 97.3359L12 86.7994L15.3758 82.3363C16.0418 81.4625 16.9418 80.7902 17.9741 80.3954C19.0064 80.0005 20.1299 79.8989 21.2176 80.1019C22.6902 80.387 23.9983 81.214 24.8774 82.4157C25.7566 83.6174 26.1412 85.1042 25.9535 86.5755C25.3805 91.037 24.0796 96.6203 21.1365 97.8835L21.1067 97.8963L24.157 108.438L12.8453 110L12.2039 97.3359Z"/><path fill="#FFB6B6" d="M54.1568 96.6051C54.1568 96.6051 45.6734 89.9552 41.0724 89L37 94.9585L48.0135 101.727L69.4562 107.945C69.8317 108.363 70.3108 108.674 70.845 108.847C71.3792 109.019 71.9493 109.047 72.4976 108.927C73.0458 108.807 73.5527 108.543 73.9667 108.164C74.3807 107.784 74.687 107.301 74.8547 106.764C75.0224 106.226 75.0454 105.655 74.9214 105.106C74.7973 104.557 74.5307 104.051 74.1485 103.639C73.7664 103.226 73.2823 102.923 72.7454 102.759C72.2086 102.596 71.6381 102.577 71.0918 102.706L54.1568 96.6051Z"/><path fill="#3F3D56" d="M39.1085 97.539L30.1902 91.8954L28.328 86.6887C27.9662 85.6652 27.9023 84.5624 28.1434 83.505C28.3845 82.4476 28.9212 81.4777 29.6926 80.7049C30.7455 79.6643 32.1603 79.0562 33.651 79.0037C35.1417 78.9512 36.597 79.4581 37.7227 80.422C41.1343 83.3481 45.5308 84.3288 44.9583 87.4192L46.6008 87.6554L55 93.938L50.0469 104L39.1085 97.539Z"/><path fill="#2F2E41" d="M17.9717 59.9029C18.9252 58.3305 20.7147 57.2825 22.4495 57.577C22.611 56.397 23.0731 55.2868 23.7855 54.3673C24.4979 53.4479 25.4334 52.7543 26.49 52.3623C27.5467 51.9702 28.684 51.8947 29.7781 52.1439C30.8722 52.393 31.8812 52.9574 32.6952 53.7755C33.206 53.3423 33.9485 53.3195 34.5547 53.5771C35.1518 53.8665 35.6712 54.3109 36.0655 54.8696C37.0609 56.1927 37.7011 57.7788 37.9179 59.459C38.1347 61.1392 37.9201 62.8506 37.2967 64.411C37.5088 63.5895 36.7363 62.8167 35.9559 62.6323C35.1755 62.448 34.3569 62.6224 33.5655 62.5023C32.5512 62.3485 31.6394 61.7213 30.6235 61.5802C29.7697 61.4615 28.911 61.6949 28.0784 61.9287C27.2458 62.1626 26.3894 62.4011 25.5344 62.2929C24.6793 62.1847 23.5779 65.6385 23.5927 68.0711C23.5955 68.5321 23.5064 69.124 23.0837 69.2218C22.5632 69.3423 22.2616 68.5765 21.7661 68.3679C21.3247 68.182 20.7955 68.5265 20.6418 69.0051C20.5794 69.2499 20.5727 69.5071 20.6223 69.7552C20.672 70.0033 20.7765 70.2351 20.9271 70.4315C21.2317 70.8207 21.5932 71.155 21.9978 71.4214L21.7937 71.6023C21.4543 72.0802 20.7502 72.1009 20.261 71.8052C19.7718 71.5095 19.4503 70.9835 19.1605 70.4697C18.2554 68.8651 17.4615 67.1555 17.1421 65.3144C16.8226 63.4733 17.0181 61.4754 17.9717 59.9029Z"/><path fill="#000" d="M92.9549 74.3713C93.9464 78.0147 94.4038 81.7553 94.316 85.5014C94.2315 89.2479 93.6104 92.97 92.4672 96.579C91.8221 98.6171 91.0084 100.611 90.0326 102.544C89.857 102.891 90.4392 103.195 90.6162 102.845C92.3778 99.3615 93.6235 95.6926 94.3225 91.9287C95.0243 88.1639 95.1817 84.3357 94.7909 80.536C94.5697 78.4058 94.1739 76.2925 93.6066 74.2128C93.5048 73.84 92.8529 73.9979 92.9549 74.3713Z" opacity=".2"/><path fill="#000" d="M147.406 99.2005L142.457 111.523C141.66 113.506 140.887 115.501 140.058 117.471C139.312 119.244 138.461 121.025 137.204 122.486C135.936 123.962 134.231 125.16 132.282 125.394C131.908 125.439 131.904 126.043 132.282 125.998C134.062 125.784 135.657 124.881 136.946 123.633C138.339 122.283 139.321 120.564 140.123 118.8C141.016 116.833 141.776 114.8 142.581 112.795L145.111 106.495L147.977 99.3611C148.121 99.0017 147.549 98.8452 147.406 99.2005Z" opacity=".2"/><path fill="#2F2E41" d="M89.4003 110.21C89.4836 110.444 89.6417 110.646 89.8517 110.788C90.0617 110.93 90.313 111.004 90.5694 111L95.5783 110.875C95.8365 110.871 96.0863 110.785 96.2901 110.632C96.4939 110.479 96.6409 110.266 96.7091 110.026L97.4179 102.715C97.6694 102.825 97.9431 102.879 98.2192 102.874C98.459 102.868 98.6952 102.817 98.9145 102.723C99.1337 102.629 99.3317 102.494 99.497 102.326C99.6623 102.159 99.7918 101.961 99.878 101.745C99.9642 101.529 100.005 101.299 99.9994 101.068C99.9934 100.837 99.9402 100.609 99.8429 100.397C99.7455 100.186 99.606 99.9948 99.4322 99.8353C99.2583 99.6759 99.0536 99.551 98.8298 99.4678C98.6059 99.3847 98.3673 99.3449 98.1275 99.3507C98.0171 99.3503 97.9071 99.3614 97.7992 99.3836C97.6819 99.2612 97.5393 99.1638 97.3805 99.0977C97.2218 99.0316 97.0505 98.9984 96.8777 99.0001L89.1729 99.192C89.109 99.1942 89.0454 99.2019 88.9828 99.2147C88.8139 99.2451 88.6536 99.3101 88.5128 99.4052C88.3721 99.5003 88.2541 99.6235 88.1668 99.7663C88.0795 99.9091 88.0249 100.068 88.0067 100.233C87.9886 100.398 88.0072 100.565 88.0614 100.722L89.4003 110.21ZM97.5632 102.218L98.0676 100.476C98.125 100.275 98.1263 100.063 98.0715 99.8607C98.0959 99.8607 98.1175 99.8495 98.142 99.8494C98.4878 99.8425 98.8224 99.9682 99.0723 100.199C99.3222 100.43 99.4671 100.746 99.4752 101.08C99.4833 101.414 99.354 101.737 99.1155 101.978C98.8771 102.22 98.549 102.361 98.2032 102.369C97.9796 102.376 97.7583 102.324 97.5632 102.218Z"/><path fill="#3F3D56" d="M89 99.1296C89.1593 99.6754 90.9503 100.059 93.1038 99.9925C95.0841 99.9378 96.7033 99.5211 97 99.0272C96.8902 99.0077 96.776 98.9986 96.6616 99.0002L89.1844 99.1159C89.1224 99.1172 89.0607 99.1218 89 99.1296Z"/><path fill="#2F2E41" d="M71.9334 99.8656C71.9922 99.6951 72.0124 99.5145 71.9927 99.3359C71.973 99.1573 71.9139 98.9849 71.8193 98.8301C71.7247 98.6754 71.5969 98.542 71.4444 98.439C71.2919 98.3359 71.1183 98.2656 70.9353 98.2326C70.8675 98.2187 70.7986 98.2104 70.7294 98.208L62.3825 98.0001C62.1953 97.9982 62.0097 98.0343 61.8378 98.1059C61.6658 98.1774 61.5113 98.2829 61.3842 98.4156C61.2673 98.3915 61.1481 98.3795 61.0286 98.3799C60.5039 98.3672 59.9955 98.5561 59.6152 98.905C59.2349 99.2538 59.0138 99.7342 59.0006 100.24C58.9875 100.746 59.1832 101.237 59.5449 101.604C59.9066 101.971 60.4046 102.184 60.9293 102.197C61.2283 102.202 61.5249 102.144 61.7973 102.024L62.5652 109.945C62.639 110.205 62.7983 110.436 63.0191 110.602C63.2399 110.767 63.5104 110.86 63.7902 110.865L69.2165 111C69.4943 111.005 69.7665 110.924 69.994 110.771C70.2215 110.617 70.3927 110.398 70.483 110.144L71.9334 99.8656ZM60.9466 101.65C60.572 101.641 60.2165 101.488 59.9582 101.227C59.6999 100.965 59.5597 100.615 59.5685 100.253C59.5773 99.892 59.7342 99.5487 60.005 99.2988C60.2757 99.0489 60.6382 98.9127 61.0128 98.9202C61.0393 98.9203 61.0627 98.9324 61.0892 98.9325C61.0298 99.1512 61.0313 99.3812 61.0934 99.5992L61.6398 101.487C61.4285 101.601 61.1888 101.658 60.9466 101.65Z"/><path fill="#3F3D56" d="M71 98.2592C70.8208 99.3509 68.8059 100.118 66.3832 99.9849C64.1553 99.8756 62.3337 99.0422 62 98.0544C62.1235 98.0155 62.2519 97.9972 62.3807 98.0003L70.7925 98.2318C70.8623 98.2345 70.9317 98.2437 71 98.2592Z"/><path fill="#9E616A" d="M63.3833 81.6693C63.7743 81.3695 64.2232 81.1633 64.6984 81.0653C65.1736 80.9673 65.6634 80.9798 66.1335 81.1019C66.6036 81.2241 67.0424 81.4529 67.4191 81.7723C67.7958 82.0917 68.1011 82.4939 68.3137 82.9505L80 81.4669L77.2701 87.2118L66.5911 87.7399C65.8364 88.0638 64.9948 88.0859 64.2256 87.8021C63.4565 87.5182 62.8133 86.9482 62.4179 86.1999C62.0225 85.4516 61.9024 84.5771 62.0803 83.7421C62.2582 82.9071 62.7218 82.1695 63.3833 81.6693Z"/><path fill="#FFBD91" d="M102 69.7022C101.643 70.4206 101.209 71.257 100.721 72.1688C99.0073 75.3822 96.6531 79.5298 94.8404 82.6863C93.2915 85.3788 92.1352 87.3528 92.1035 87.4078L92.0539 87.4892L81.4058 87.7354L79.121 87.7883L78.3436 87.8067L70 88L70.0793 87.4912L70.8588 82.4482L70.9381 81.9333L78.2464 80.6878L80.9179 80.234L86.8439 79.2245L87.8732 76.1067C89.6861 70.6268 92.7156 65.6544 96.7225 61.582C96.8395 61.466 96.9585 61.3562 97.0835 61.2524C97.1926 61.1628 97.3036 61.0773 97.4167 61C97.8966 61.698 98.325 62.3289 98.688 62.8357L99.5665 64.0629C100.766 65.7396 101.596 67.6638 102 69.7022Z"/><path fill="#CCC" d="M58.517 87.2099C58.6073 87.4439 58.7785 87.6463 59.006 87.7883C59.2336 87.9302 59.5058 88.0042 59.7835 87.9998L65.2098 87.8755C65.4896 87.8706 65.7601 87.7853 65.9809 87.6322C66.2017 87.4791 66.361 87.2665 66.4348 87.0261L67.2027 79.7149C67.4751 79.8248 67.7717 79.879 68.0708 79.8737C68.5954 79.862 69.0934 79.6651 69.4551 79.3265C69.8168 78.9879 70.0125 78.5352 69.9994 78.068C69.9862 77.6008 69.7651 77.1574 69.3848 76.8354C69.0045 76.5133 68.4961 76.339 67.9714 76.3507C67.8519 76.3503 67.7327 76.3614 67.6158 76.3836C67.4887 76.2612 67.3342 76.1638 67.1623 76.0977C66.9903 76.0316 66.8047 75.9984 66.6175 76.0001L58.2706 76.192C58.2014 76.1943 58.1325 76.2019 58.0647 76.2147C57.8817 76.2451 57.7081 76.3101 57.5556 76.4052C57.4031 76.5003 57.2753 76.6235 57.1807 76.7663C57.0861 76.9091 57.027 77.0683 57.0073 77.2332C56.9876 77.398 57.0078 77.5647 57.0666 77.7221L58.517 87.2099ZM67.3602 79.2185L67.9066 77.4762C67.9687 77.2749 67.9702 77.0627 67.9107 76.8607C67.9373 76.8607 67.9607 76.8495 67.9872 76.8494C68.3618 76.8425 68.7242 76.9682 68.995 77.1989C69.2658 77.4296 69.4227 77.7464 69.4315 78.08C69.4403 78.4136 69.3001 78.7367 69.0418 78.9784C68.7835 79.2201 68.428 79.3607 68.0534 79.3694C67.8112 79.3762 67.5715 79.324 67.3602 79.2185Z"/><path fill="#3F3D56" d="M58 76.1296C58.1792 76.6754 60.1941 77.0592 62.6168 76.9925C64.8447 76.9378 66.6663 76.5211 67 76.0272C66.8765 76.0077 66.7481 75.9986 66.6193 76.0002L58.2075 76.1159C58.1377 76.1172 58.0683 76.1218 58 76.1296Z"/></svg>