<svg width="436" height="382" viewBox="0 0 436 382" fill="none" xmlns="http://www.w3.org/2000/svg">
<path d="M398.958 345.825L399.603 331.315C406.323 327.719 413.819 325.819 421.438 325.781C410.951 334.365 412.262 350.91 405.152 362.453C402.907 366.036 399.885 369.067 396.31 371.322C392.736 373.577 388.7 374.998 384.503 375.479L375.727 380.858C374.523 374.138 374.788 367.236 376.505 360.628C378.222 354.02 381.35 347.863 385.672 342.582C388.126 339.643 390.941 337.025 394.048 334.79C396.15 340.338 398.958 345.825 398.958 345.825Z" fill="#F2F2F2"/>
<path d="M376.346 373.392L368.399 373.391L364.619 342.707L376.347 342.708L376.346 373.392Z" fill="#FFB6B6"/>
<path d="M378.373 381.102L352.75 381.101V380.777C352.75 378.129 353.801 375.59 355.671 373.717C357.541 371.845 360.078 370.793 362.723 370.793L367.404 367.238L376.136 370.793L378.373 370.794L378.373 381.102Z" fill="#2F2E41"/>
<path d="M339.427 373.392L331.481 373.391L327.701 342.707L339.429 342.708L339.427 373.392Z" fill="#FFB6B6"/>
<path d="M341.454 381.102L315.831 381.101V380.777C315.831 378.129 316.882 375.59 318.752 373.717C320.623 371.845 323.159 370.793 325.804 370.793L330.485 367.238L339.218 370.793L341.455 370.794L341.454 381.102Z" fill="#2F2E41"/>
<path d="M335.988 205.637L387.676 206.93C397.493 212.268 397.642 223.821 394.425 237.537C394.425 237.537 395.511 245.69 393.339 247.864C391.168 250.038 390.082 250.038 391.168 253.842C392.254 257.647 386.517 263.861 387.213 264.558C387.91 265.256 389.539 269.06 389.539 269.06L384.11 300.04C384.11 300.04 380.309 353.847 379.224 354.934C378.138 356.021 377.052 354.934 378.138 357.652C379.223 360.369 380.309 359.282 379.224 360.369C378.262 361.408 377.356 362.496 376.509 363.63H363.383C363.383 363.63 362.393 358.195 362.393 357.652C362.393 357.108 361.307 353.847 361.307 353.304C361.307 352.76 362.267 351.8 362.267 351.8C362.599 350.695 362.823 349.56 362.936 348.412C362.936 347.325 366.194 305.475 366.194 305.475L359.679 251.125L343.934 304.388C343.934 304.388 343.934 351.13 342.848 352.217C341.762 353.304 341.762 352.76 342.305 354.934C342.848 357.108 345.02 356.565 343.391 358.195C341.762 359.826 341.219 357.108 341.762 359.826L342.305 362.543L326.018 362.777C326.018 362.777 323.846 358.195 324.932 356.565C326.018 354.934 325.953 355.379 324.628 352.711C323.303 350.043 322.76 349.499 323.303 348.956C323.846 348.412 323.846 345.521 323.846 345.521L326.561 293.518C326.561 293.518 327.104 238.624 327.104 236.994C327.144 236.155 326.99 235.318 326.653 234.549V232.335L328.732 224.493L335.988 205.637Z" fill="#2F2E41"/>
<path d="M367.038 98.043C375.907 98.043 383.097 90.845 383.097 81.9659C383.097 73.0867 375.907 65.8887 367.038 65.8887C358.168 65.8887 350.978 73.0867 350.978 81.9659C350.978 90.845 358.168 98.043 367.038 98.043Z" fill="#FECCCC"/>
<path d="M359.008 108.669C355.548 110.729 353.478 114.512 352.29 118.362C350.091 125.49 348.767 132.859 348.347 140.307L347.092 162.606L331.551 210.086C345.02 221.496 395.65 212.679 395.65 212.679C395.65 212.679 397.204 212.16 395.65 210.605C394.096 209.049 392.583 210.427 394.137 208.871C395.691 207.315 394.62 209.049 394.102 207.493C393.584 205.937 394.102 206.974 394.62 206.456C395.138 205.937 390.609 201.269 390.609 201.269L394.754 174.015L399.934 119.042C393.718 111.263 381.215 106.677 381.215 106.677L377.984 100.855L361.832 102.149L359.008 108.669Z" fill="#0F7173"/>
<path d="M356.805 72.5318C357.426 72.5367 358.045 72.6179 358.646 72.7737C359.832 73.0592 361.037 73.2614 362.251 73.3788C365.969 73.729 369.462 75.3163 372.173 77.8872C374.884 80.4581 376.656 83.8643 377.207 87.5617C378.14 86.7472 380.264 85.249 382.004 86.6414C382.031 86.6635 382.046 86.6749 382.107 86.6459C383.263 86.097 385.315 79.3403 385.377 73.3912C385.41 70.2336 384.913 66.2015 382.362 64.9246L382.228 64.8574L382.193 64.7111C382.022 64.0009 380.118 62.7884 376.809 61.8448C370.794 60.1298 361.829 56.7892 356.781 61.7056C356.399 63.363 355.156 66.9099 353.901 67.3119C352.51 67.7569 351.31 68.141 351.12 69.8483C350.962 72.2779 350.974 74.7157 351.155 77.1438C351.626 75.658 352.551 74.3576 353.799 73.4256C354.686 72.8275 355.735 72.5156 356.805 72.5318Z" fill="#2F2E41"/>
<path d="M326.913 161.365L353.147 144.546L339.934 126.963L326.887 143.029L286.235 145.525C285.166 144.467 283.812 143.744 282.339 143.442C280.866 143.141 279.337 143.275 277.939 143.829C276.541 144.382 275.334 145.331 274.465 146.56C273.596 147.788 273.103 149.243 273.046 150.747C272.989 152.251 273.371 153.739 274.144 155.03C274.917 156.321 276.049 157.358 277.401 158.016C278.753 158.674 280.267 158.925 281.759 158.736C283.25 158.548 284.655 157.929 285.801 156.955L326.913 161.365Z" fill="#FECCCC"/>
<path d="M377.495 121.07C379.018 130.294 350.265 147.909 350.265 147.909C350.265 145.744 333.103 162.089 332.329 160.294C330.127 155.19 328.579 143.102 325.503 141.168C323.744 140.061 336.099 129.667 336.099 129.667C336.099 129.667 342.566 123.145 351.053 114.918C353.409 112.547 356.326 110.812 359.532 109.874C362.738 108.936 366.13 108.825 369.39 109.552C369.39 109.552 375.973 111.845 377.495 121.07Z" fill="#0F7173"/>
<path d="M431.567 165.779L414.215 139.879L396.934 153.476L413.256 166.194L416.609 206.828C415.575 207.92 414.881 209.29 414.611 210.771C414.342 212.252 414.508 213.779 415.09 215.167C415.673 216.554 416.646 217.742 417.891 218.586C419.136 219.429 420.6 219.892 422.103 219.917C423.606 219.942 425.084 219.529 426.357 218.728C427.63 217.927 428.642 216.772 429.271 215.405C429.899 214.038 430.117 212.517 429.897 211.028C429.677 209.539 429.03 208.146 428.033 207.02L431.567 165.779Z" fill="#FECCCC"/>
<path d="M390.254 116.007C399.434 114.287 417.635 142.692 417.635 142.692C415.472 142.738 432.16 159.568 430.383 160.381C425.332 162.693 413.293 164.498 411.426 167.618C410.358 169.402 399.716 157.257 399.716 157.257C399.716 157.257 393.066 150.922 384.67 142.602C382.253 140.294 380.458 137.411 379.453 134.222C378.448 131.033 378.266 127.641 378.923 124.363C378.923 124.363 381.074 117.726 390.254 116.007Z" fill="#0F7173"/>
<path d="M436 381.231C436 381.332 435.981 381.432 435.942 381.526C435.904 381.619 435.847 381.704 435.775 381.776C435.704 381.847 435.619 381.904 435.526 381.942C435.432 381.981 435.332 382.001 435.231 382H254.136C253.932 382 253.736 381.919 253.592 381.775C253.448 381.631 253.367 381.435 253.367 381.231C253.367 381.027 253.448 380.831 253.592 380.686C253.736 380.542 253.932 380.461 254.136 380.461H435.231C435.332 380.461 435.432 380.48 435.526 380.519C435.619 380.558 435.704 380.614 435.775 380.686C435.847 380.757 435.904 380.842 435.942 380.936C435.981 381.029 436 381.129 436 381.231Z" fill="#CCCCCC"/>
<path d="M106.378 109.265L92.1575 101.207C91.9657 92.5848 93.8686 84.0461 97.7012 76.332C100.98 91.304 118.235 98.4273 126.196 111.5C128.648 115.596 130.152 120.195 130.597 124.956C131.042 129.716 130.417 134.517 128.767 139.002L129.703 150.61C122.353 148.395 115.568 144.603 109.814 139.496C104.061 134.389 99.477 128.088 96.3775 121.026C94.6777 117.047 93.4826 112.869 92.8206 108.59C99.451 109.3 106.378 109.265 106.378 109.265Z" fill="#F2F2F2"/>
<path d="M274.376 121.67H125.063C122.73 121.673 120.494 122.604 118.844 124.259C117.195 125.914 116.267 128.158 116.264 130.499V223.776C116.267 226.116 117.195 228.36 118.844 230.015C120.494 231.671 122.73 232.602 125.063 232.604H274.376C276.709 232.602 278.946 231.671 280.595 230.015C282.245 228.36 283.173 226.116 283.175 223.776V130.499C283.173 128.158 282.245 125.914 280.595 124.259C278.946 122.604 276.709 121.673 274.376 121.67Z" fill="#9CD3C0"/>
<path d="M274.376 121.67H125.063C122.73 121.673 120.494 122.604 118.844 124.259C117.195 125.914 116.267 128.158 116.264 130.499V223.776C116.267 226.116 117.195 228.36 118.844 230.015C120.494 231.671 122.73 232.602 125.063 232.604H274.376C276.709 232.602 278.946 231.671 280.595 230.015C282.245 228.36 283.173 226.116 283.175 223.776V130.499C283.173 128.158 282.245 125.914 280.595 124.259C278.946 122.604 276.709 121.673 274.376 121.67ZM277.264 188.672C277.228 198.168 273.485 207.272 266.836 214.03C260.188 220.789 251.165 224.664 241.702 224.824C226.551 225.022 250.085 225.099 231.812 225.099C190.028 225.099 146.46 224.698 130.204 224.438C128.065 224.394 126.028 223.513 124.528 221.982C123.028 220.452 122.184 218.394 122.176 216.247V130.506C122.177 129.737 122.481 129 123.022 128.456C123.563 127.911 124.297 127.604 125.063 127.602H274.37C275.136 127.603 275.871 127.908 276.413 128.45C276.955 128.993 277.261 129.729 277.264 130.498V188.672Z" fill="#3F3D56"/>
<path d="M256.129 68.6152H142.539C141.534 68.6167 140.554 68.9262 139.732 69.5016C138.911 70.077 138.288 70.8902 137.95 71.8301L120.406 120.725C120.144 121.455 120.063 122.236 120.168 123.004C120.274 123.772 120.563 124.503 121.012 125.137C121.461 125.77 122.057 126.287 122.749 126.645C123.441 127.002 124.209 127.189 124.989 127.19L277.332 127.459H277.338C278.145 127.459 278.938 127.26 279.648 126.88C280.358 126.5 280.962 125.952 281.406 125.283C281.85 124.614 282.119 123.847 282.191 123.049C282.263 122.251 282.134 121.448 281.817 120.712L260.607 71.5486C260.232 70.6776 259.608 69.9352 258.812 69.4137C258.015 68.8921 257.083 68.6145 256.129 68.6152Z" fill="#3F3D56"/>
<path d="M282.21 121.761C282.21 122.427 282.076 123.085 281.816 123.697L260.608 162.106C260.23 162.988 259.605 163.74 258.809 164.268C258.013 164.797 257.081 165.079 256.128 165.08H142.54C141.534 165.079 140.554 164.765 139.732 164.182C138.91 163.598 138.286 162.773 137.947 161.819L120.407 123.684C120.192 123.076 120.098 122.432 120.13 121.788C120.162 121.143 120.32 120.512 120.594 119.929C120.868 119.346 121.254 118.824 121.729 118.391C122.203 117.959 122.758 117.625 123.361 117.409C123.882 117.219 124.432 117.122 124.987 117.122L143.596 117.086L151.191 117.073L251.136 116.896L258.736 116.883L277.332 116.848H277.337C278.629 116.848 279.869 117.366 280.783 118.287C281.697 119.209 282.21 120.458 282.21 121.761Z" fill="#3F3D56"/>
<path d="M135.82 191.125C138.094 191.125 169.328 193.137 169.328 195.534C169.328 197.932 138.094 199.807 135.82 199.807C134.727 199.807 133.68 199.349 132.907 198.535C132.135 197.721 131.701 196.617 131.701 195.466C131.701 194.315 132.135 193.211 132.907 192.396C133.68 191.582 134.727 191.125 135.82 191.125Z" fill="#3F3D56"/>
<path d="M249.32 37.7461H153.014C150.433 37.7491 147.958 38.7775 146.133 40.6056C144.308 42.4338 143.282 44.9124 143.279 47.4978V165.079H256.433C257.362 165.082 258.272 164.817 259.055 164.316V47.4978C259.052 44.9124 258.026 42.4338 256.201 40.6056C254.375 38.7775 251.901 37.7491 249.32 37.7461Z" fill="#E6E6E6"/>
<path d="M212.546 46.4277H159.85C157.504 46.43 155.254 47.3599 153.594 49.0133C151.935 50.6668 151.001 52.9089 150.997 55.2478V165.079H251.337V85.0938C251.325 74.8425 247.234 65.0145 239.962 57.7658C232.69 50.5171 222.83 46.4396 212.546 46.4277Z" fill="white"/>
<path d="M233.745 155.434H167.624C167.053 155.434 166.505 155.637 166.1 155.999C165.696 156.36 165.469 156.851 165.469 157.363C165.469 157.875 165.696 158.365 166.1 158.727C166.505 159.089 167.053 159.292 167.624 159.292H233.745C234.316 159.292 234.864 159.089 235.269 158.727C235.673 158.365 235.9 157.875 235.9 157.363C235.9 156.851 235.673 156.36 235.269 155.999C234.864 155.637 234.316 155.434 233.745 155.434Z" fill="#E4E4E4"/>
<path d="M233.743 146.752H167.626C167.054 146.752 166.506 146.955 166.101 147.317C165.697 147.679 165.469 148.17 165.469 148.681C165.469 149.193 165.697 149.684 166.101 150.045C166.506 150.407 167.054 150.611 167.626 150.611H233.743C234.315 150.611 234.863 150.407 235.268 150.045C235.673 149.684 235.9 149.193 235.9 148.681C235.9 148.17 235.673 147.679 235.268 147.317C234.863 146.955 234.315 146.752 233.743 146.752Z" fill="#E4E4E4"/>
<path d="M196.129 138.07H167.613C167.045 138.07 166.499 138.274 166.097 138.635C165.695 138.997 165.469 139.488 165.469 140C165.469 140.511 165.695 141.002 166.097 141.364C166.499 141.726 167.045 141.929 167.613 141.929H196.129C196.697 141.929 197.242 141.726 197.645 141.364C198.047 141.002 198.273 140.511 198.273 140C198.273 139.488 198.047 138.997 197.645 138.635C197.242 138.274 196.697 138.07 196.129 138.07Z" fill="#E4E4E4"/>
<path d="M233.743 120.707H167.626C167.054 120.707 166.506 120.91 166.101 121.272C165.697 121.634 165.469 122.125 165.469 122.636C165.469 123.148 165.697 123.639 166.101 124.001C166.506 124.362 167.054 124.566 167.626 124.566H233.743C234.315 124.566 234.863 124.362 235.268 124.001C235.673 123.639 235.9 123.148 235.9 122.636C235.9 122.125 235.673 121.634 235.268 121.272C234.863 120.91 234.315 120.707 233.743 120.707Z" fill="#E4E4E4"/>
<path d="M233.745 112.025H167.624C167.053 112.025 166.505 112.229 166.1 112.59C165.696 112.952 165.469 113.443 165.469 113.955C165.469 114.466 165.696 114.957 166.1 115.319C166.505 115.681 167.053 115.884 167.624 115.884H233.745C234.316 115.884 234.864 115.681 235.269 115.319C235.673 114.957 235.9 114.466 235.9 113.955C235.9 113.443 235.673 112.952 235.269 112.59C234.864 112.229 234.316 112.025 233.745 112.025Z" fill="#E4E4E4"/>
<path d="M196.127 103.342H167.615C167.046 103.342 166.5 103.545 166.098 103.907C165.695 104.269 165.469 104.759 165.469 105.271C165.469 105.783 165.695 106.273 166.098 106.635C166.5 106.997 167.046 107.2 167.615 107.2H196.127C196.696 107.2 197.242 106.997 197.644 106.635C198.046 106.273 198.273 105.783 198.273 105.271C198.273 104.759 198.046 104.269 197.644 103.907C197.242 103.545 196.696 103.342 196.127 103.342Z" fill="#E4E4E4"/>
<path d="M233.743 85.0137H167.626C167.054 85.0137 166.506 85.2678 166.101 85.72C165.697 86.1723 165.469 86.7857 165.469 87.4253C165.469 88.0649 165.697 88.6783 166.101 89.1306C166.506 89.5828 167.054 89.8369 167.626 89.8369H233.743C234.315 89.8369 234.863 89.5828 235.268 89.1306C235.673 88.6783 235.9 88.0649 235.9 87.4253C235.9 86.7857 235.673 86.1723 235.268 85.72C234.863 85.2678 234.315 85.0137 233.743 85.0137Z" fill="#9CD3C0"/>
<path d="M233.743 77.2969H167.626C167.054 77.2969 166.506 77.5001 166.101 77.862C165.697 78.2238 165.469 78.7145 165.469 79.2262C165.469 79.7378 165.697 80.2286 166.101 80.5904C166.506 80.9522 167.054 81.1555 167.626 81.1555H233.743C234.315 81.1555 234.863 80.9522 235.268 80.5904C235.673 80.2286 235.9 79.7378 235.9 79.2262C235.9 78.7145 235.673 78.2238 235.268 77.862C234.863 77.5001 234.315 77.2969 233.743 77.2969Z" fill="#9CD3C0"/>
<path d="M196.127 68.6152H167.615C167.046 68.6152 166.5 68.8185 166.098 69.1803C165.695 69.5421 165.469 70.0328 165.469 70.5445C165.469 71.0562 165.695 71.5469 166.098 71.9087C166.5 72.2706 167.046 72.4738 167.615 72.4738H196.127C196.696 72.4738 197.242 72.2706 197.644 71.9087C198.046 71.5469 198.273 71.0562 198.273 70.5445C198.273 70.0328 198.046 69.5421 197.644 69.1803C197.242 68.8185 196.696 68.6152 196.127 68.6152Z" fill="#9CD3C0"/>
<path d="M254.714 55.1103C264.038 55.1103 271.598 47.5523 271.598 38.229C271.598 28.9057 264.038 21.3477 254.714 21.3477C245.389 21.3477 237.83 28.9057 237.83 38.229C237.83 47.5523 245.389 55.1103 254.714 55.1103Z" fill="#9CD3C0"/>
<path d="M252.922 46.4281C252.634 46.4281 252.35 46.361 252.092 46.2322C251.834 46.1033 251.61 45.9162 251.438 45.6857L246.887 39.6179C246.74 39.423 246.633 39.201 246.572 38.9647C246.511 38.7284 246.497 38.4823 246.531 38.2406C246.565 37.9989 246.647 37.7664 246.771 37.5562C246.895 37.3461 247.06 37.1626 247.255 37.0161C247.45 36.8697 247.672 36.7632 247.909 36.7028C248.145 36.6424 248.392 36.6292 248.633 36.6641C248.875 36.6989 249.107 36.7811 249.317 36.9059C249.527 37.0307 249.71 37.1957 249.856 37.3914L252.833 41.3608L260.48 29.8907C260.753 29.4813 261.177 29.197 261.66 29.1005C262.142 29.004 262.643 29.1031 263.053 29.3761C263.462 29.6491 263.747 30.0735 263.843 30.5561C263.94 31.0387 263.84 31.5398 263.567 31.9493L254.466 45.6018C254.301 45.8487 254.08 46.0525 253.82 46.1962C253.56 46.3399 253.27 46.4192 252.974 46.4275C252.956 46.4278 252.939 46.4281 252.922 46.4281Z" fill="white"/>
</svg>
