<?xml version="1.0" encoding="UTF-8" standalone="no"?>
<svg
   viewBox="0 0 1166 1247"
   fill="none"
   version="1.1"
   id="svg33"
   sodipodi:docname="Frame 57.svg"
   inkscape:version="1.3.2 (091e20e, 2023-11-25)"
   xmlns:inkscape="http://www.inkscape.org/namespaces/inkscape"
   xmlns:sodipodi="http://sodipodi.sourceforge.net/DTD/sodipodi-0.dtd"
   xmlns="http://www.w3.org/2000/svg"
   xmlns:svg="http://www.w3.org/2000/svg">
  <defs
     id="defs33">
    <clipPath
       id="clip0_115_241">
      <rect
         width="1166"
         height="948"
         fill="#ffffff"
         id="rect35"
         x="0"
         y="0" />
    </clipPath>
  </defs>
  <sodipodi:namedview
     id="namedview33"
     pagecolor="#505050"
     bordercolor="#eeeeee"
     borderopacity="1"
     inkscape:showpageshadow="0"
     inkscape:pageopacity="0"
     inkscape:pagecheckerboard="0"
     inkscape:deskcolor="#505050"
     inkscape:zoom="0.46055799"
     inkscape:cx="566.70388"
     inkscape:cy="591.67359"
     inkscape:window-width="1512"
     inkscape:window-height="842"
     inkscape:window-x="0"
     inkscape:window-y="38"
     inkscape:window-maximized="1"
     inkscape:current-layer="svg33" />
  <path
     d="M68.0306 966.04H101.871C102.351 967.64 103.311 970.52 104.751 974.68C106.191 978.68 107.871 983.56 109.791 989.32C111.871 994.92 114.031 1000.92 116.271 1007.32C118.511 1013.72 120.671 1019.96 122.751 1026.04C124.511 1031.16 126.191 1036.04 127.791 1040.68C129.391 1045.16 130.751 1049.08 131.871 1052.44C133.151 1055.8 134.111 1058.36 134.751 1060.12C134.751 1057.4 134.751 1054.28 134.751 1050.76C134.751 1047.24 134.671 1043.48 134.511 1039.48C134.511 1035.48 134.431 1031.32 134.271 1027C134.271 1022.68 134.271 1018.28 134.271 1013.8C134.111 1009.8 133.951 1005.88 133.791 1002.04C133.791 998.2 133.791 994.44 133.791 990.76C133.791 987.08 133.711 983.56 133.551 980.2C133.551 976.84 133.471 973.8 133.311 971.08C133.311 968.2 133.231 965.64 133.071 963.4H165.951C165.791 967.72 165.631 972.6 165.471 978.04C165.471 983.48 165.391 989.24 165.231 995.32C165.231 1001.4 165.151 1007.8 164.991 1014.52C164.991 1021.24 164.911 1028.12 164.751 1035.16C164.591 1043.64 164.431 1052.2 164.271 1060.84C164.271 1069.48 164.271 1077.96 164.271 1086.28C164.271 1094.6 164.191 1102.6 164.031 1110.28C164.031 1117.96 163.951 1125.08 163.791 1131.64L131.391 1133.32C130.431 1130.6 129.151 1127.16 127.551 1123C125.951 1118.68 124.191 1113.96 122.271 1108.84C120.351 1103.56 118.351 1098.2 116.271 1092.76C114.191 1087.16 112.191 1081.88 110.271 1076.92C109.151 1074.04 108.031 1071.32 106.911 1068.76C105.951 1066.04 104.991 1063.56 104.031 1061.32C103.231 1059.08 102.511 1057.08 101.871 1055.32C101.231 1053.56 100.671 1052.2 100.191 1051.24C100.191 1054.28 100.191 1057.4 100.191 1060.6C100.191 1063.64 100.191 1066.68 100.191 1069.72C100.191 1072.76 100.191 1075.72 100.191 1078.6C100.191 1081.48 100.191 1084.36 100.191 1087.24C100.191 1091.24 100.191 1095.16 100.191 1099C100.351 1102.84 100.431 1106.52 100.431 1110.04C100.591 1113.4 100.671 1116.6 100.671 1119.64C100.671 1122.68 100.671 1125.48 100.671 1128.04C100.831 1130.6 100.911 1132.92 100.911 1135L68.7506 1134.76C68.7506 1130.6 68.7506 1126.2 68.7506 1121.56C68.9106 1116.92 68.9906 1112.04 68.9906 1106.92C69.1506 1101.8 69.2306 1096.52 69.2306 1091.08C69.2306 1085.64 69.2306 1080.04 69.2306 1074.28C69.2306 1064.52 69.2306 1054.68 69.2306 1044.76C69.2306 1034.84 69.1506 1025.16 68.9906 1015.72C68.8306 1006.12 68.6706 997.16 68.5106 988.84C68.5106 980.36 68.3506 972.76 68.0306 966.04ZM213.594 1136.92C213.914 1131.16 214.074 1123.08 214.074 1112.68C214.234 1102.12 214.154 1090.84 213.834 1078.84L247.914 1081.24C247.914 1086.84 247.914 1092.04 247.914 1096.84C247.914 1101.64 247.994 1106.12 248.154 1110.28C248.314 1114.44 248.474 1118.52 248.634 1122.52C248.794 1126.52 249.034 1130.6 249.354 1134.76L213.594 1136.92ZM176.394 964.84H213.594C214.394 969.32 215.354 974.44 216.474 980.2C217.594 985.96 218.714 991.96 219.834 998.2C221.114 1004.28 222.394 1010.2 223.674 1015.96C225.434 1023.64 227.034 1030.6 228.474 1036.84C229.914 1042.92 230.954 1047.32 231.594 1050.04C232.394 1047.16 233.274 1043.88 234.234 1040.2C235.194 1036.36 236.234 1032.2 237.354 1027.72C238.474 1023.24 239.594 1018.6 240.714 1013.8C241.514 1009.96 242.394 1006.12 243.354 1002.28C244.314 998.28 245.194 994.36 245.994 990.52C246.954 986.68 247.834 982.92 248.634 979.24C249.594 975.4 250.474 971.72 251.274 968.2L287.274 970.36C285.994 974.36 284.394 978.84 282.474 983.8C280.714 988.76 278.794 994.28 276.714 1000.36C274.794 1006.28 272.714 1012.68 270.474 1019.56C267.114 1030.44 263.674 1041.24 260.154 1051.96C256.794 1062.68 253.674 1072.52 250.794 1081.48C248.074 1090.28 245.994 1097.24 244.554 1102.36L217.434 1102.12C216.154 1097.48 214.634 1092.28 212.874 1086.52C211.274 1080.76 209.514 1074.68 207.594 1068.28C205.674 1061.72 203.674 1055 201.594 1048.12C199.514 1041.24 197.434 1034.36 195.354 1027.48C193.754 1021.72 192.074 1015.96 190.314 1010.2C188.554 1004.44 186.874 998.92 185.274 993.64C183.674 988.2 182.154 983.08 180.714 978.28C179.114 973.32 177.674 968.84 176.394 964.84ZM352.884 1136.2C351.924 1127.4 350.964 1118.28 350.004 1108.84C349.044 1099.24 348.004 1089.56 346.884 1079.8C345.764 1070.04 344.484 1060.52 343.044 1051.24C341.924 1044.04 340.884 1037.16 339.924 1030.6C339.124 1023.88 338.324 1017.56 337.524 1011.64C336.884 1005.72 336.164 1000.28 335.364 995.32C334.724 990.2 334.084 985.72 333.444 981.88L314.724 967.72L359.844 965.8C360.964 972.68 362.084 979.64 363.204 986.68C364.324 993.56 365.444 1000.44 366.564 1007.32C367.684 1014.04 368.804 1020.76 369.924 1027.48C371.204 1034.2 372.404 1040.84 373.524 1047.4C375.444 1058.28 377.364 1068.84 379.284 1079.08C381.204 1089.32 383.124 1099.16 385.044 1108.6C386.964 1117.88 388.804 1126.68 390.564 1135L352.884 1136.2ZM312.804 1107.64V1079.32L359.844 1080.04V1105.96L312.804 1107.64ZM320.004 1133.56L284.004 1133.32C285.604 1125.48 287.284 1117.16 289.044 1108.36C290.804 1099.4 292.564 1090.04 294.324 1080.28C296.244 1070.36 298.164 1060.2 300.084 1049.8C301.684 1041 303.284 1032.04 304.884 1022.92C306.644 1013.8 308.324 1004.6 309.924 995.32C311.524 986.04 313.124 976.84 314.724 967.72L359.844 965.8L339.684 983.8C338.884 988.6 338.004 994.44 337.044 1001.32C336.084 1008.2 335.044 1015.88 333.924 1024.36C332.964 1032.68 331.764 1041.48 330.324 1050.76C328.884 1059.88 327.604 1069.24 326.484 1078.84C325.364 1088.28 324.244 1097.64 323.124 1106.92C322.164 1116.2 321.124 1125.08 320.004 1133.56ZM428.13 1134.52C428.13 1131.64 428.13 1128.44 428.13 1124.92C428.29 1121.24 428.37 1117.08 428.37 1112.44C428.37 1107.8 428.37 1102.6 428.37 1096.84C428.53 1090.92 428.61 1084.28 428.61 1076.92C428.61 1069.56 428.61 1061.32 428.61 1052.2C428.61 1041 428.53 1030.44 428.37 1020.52C428.21 1010.44 427.97 1001.56 427.65 993.88C427.49 986.04 427.33 979.96 427.17 975.64C427.01 971.16 426.93 968.92 426.93 968.92L463.65 969.88C463.65 969.88 463.65 971.96 463.65 976.12C463.65 980.12 463.57 985.32 463.41 991.72C463.41 998.12 463.33 1005.08 463.17 1012.6C463.17 1019.96 463.17 1027.16 463.17 1034.2C463.17 1041.08 463.17 1046.92 463.17 1051.72C463.17 1056.68 463.17 1062.68 463.17 1069.72C463.17 1076.6 463.17 1083.8 463.17 1091.32C463.33 1098.68 463.41 1105.64 463.41 1112.2C463.57 1118.6 463.65 1123.88 463.65 1128.04C463.65 1132.04 463.65 1134.04 463.65 1134.04L428.13 1134.52ZM395.97 996.28L396.69 966.76C396.69 966.76 398.29 966.76 401.49 966.76C404.69 966.76 408.69 966.76 413.49 966.76C418.29 966.6 423.25 966.52 428.37 966.52C433.65 966.52 438.21 966.52 442.05 966.52C445.25 966.52 449.09 966.52 453.57 966.52C458.21 966.52 462.93 966.52 467.73 966.52C472.69 966.36 477.25 966.28 481.41 966.28C485.73 966.12 489.17 966.04 491.73 966.04C494.45 966.04 495.81 966.04 495.81 966.04L496.53 994.36C496.53 994.36 495.25 994.36 492.69 994.36C490.29 994.36 487.09 994.44 483.09 994.6C479.09 994.6 474.77 994.68 470.13 994.84C465.49 994.84 460.93 994.84 456.45 994.84C452.13 994.84 448.37 994.84 445.17 994.84C441.97 994.84 438.21 994.92 433.89 995.08C429.73 995.24 425.41 995.4 420.93 995.56C416.61 995.56 412.53 995.64 408.69 995.8C404.85 995.96 401.81 996.12 399.57 996.28C397.17 996.28 395.97 996.28 395.97 996.28ZM501.141 1136.44C502.741 1128.76 504.421 1120.2 506.181 1110.76C507.941 1101.16 509.701 1091.24 511.461 1081C513.381 1070.6 515.301 1060.2 517.221 1049.8C518.821 1041 520.421 1032.2 522.021 1023.4C523.781 1014.6 525.461 1005.72 527.061 996.76C528.661 987.64 530.261 978.52 531.861 969.4L576.981 965.8C578.421 975.08 579.861 984.36 581.301 993.64C582.901 1002.76 584.501 1011.8 586.101 1020.76C587.701 1029.72 589.221 1038.6 590.661 1047.4C592.581 1058.28 594.501 1068.76 596.421 1078.84C598.341 1088.92 600.261 1098.52 602.181 1107.64C604.101 1116.76 605.941 1125.48 607.701 1133.8L570.021 1134.28C569.061 1125.48 568.101 1116.52 567.141 1107.4C566.181 1098.12 565.141 1088.76 564.021 1079.32C562.901 1069.88 561.621 1060.52 560.181 1051.24C559.541 1046.92 558.901 1042.68 558.261 1038.52C557.781 1034.36 557.221 1030.28 556.581 1026.28C556.101 1022.28 555.621 1018.44 555.141 1014.76C554.661 1011.08 554.181 1007.56 553.701 1004.2C553.221 1008.52 552.661 1013.24 552.021 1018.36C551.381 1023.32 550.661 1028.52 549.861 1033.96C549.221 1039.4 548.421 1045 547.461 1050.76C546.021 1059.88 544.741 1069.32 543.621 1079.08C542.501 1088.84 541.381 1098.52 540.261 1108.12C539.301 1117.72 538.261 1126.76 537.141 1135.24L501.141 1136.44ZM529.941 1105.96V1080.04L576.981 1079.32V1107.64L529.941 1105.96ZM653.186 1117L622.466 1108.84C627.586 1104.2 633.186 1099.24 639.266 1093.96C645.346 1088.68 651.426 1083 657.506 1076.92C663.586 1070.84 669.106 1064.52 674.066 1057.96C679.186 1051.4 683.266 1044.68 686.306 1037.8C689.346 1030.76 690.866 1023.56 690.866 1016.2C690.866 1010.6 690.146 1006.28 688.706 1003.24C687.426 1000.04 685.506 997.8 682.946 996.52C680.546 995.24 677.586 994.6 674.066 994.6C669.906 994.6 666.546 995.72 663.986 997.96C661.586 1000.04 659.826 1003 658.706 1006.84C657.586 1010.68 657.026 1015.32 657.026 1020.76C657.026 1024.28 657.186 1027.88 657.506 1031.56C657.986 1035.24 658.546 1038.92 659.186 1042.6L628.706 1042.84C628.066 1039.16 627.506 1035.4 627.026 1031.56C626.706 1027.72 626.546 1023.96 626.546 1020.28C626.546 1013.24 627.346 1006.52 628.946 1000.12C630.706 993.72 633.426 988.04 637.106 983.08C640.946 978.12 646.066 974.2 652.466 971.32C658.866 968.44 666.706 967 675.986 967C683.346 967 689.906 967.96 695.666 969.88C701.426 971.8 706.306 974.76 710.306 978.76C714.466 982.6 717.586 987.56 719.666 993.64C721.746 999.72 722.786 1006.84 722.786 1015C722.786 1023.96 721.106 1032.68 717.746 1041.16C714.386 1049.64 709.986 1057.72 704.546 1065.4C699.106 1072.92 693.186 1079.96 686.786 1086.52C680.546 1092.92 674.466 1098.76 668.546 1104.04C662.626 1109.16 657.506 1113.48 653.186 1117ZM621.986 1136.44L622.466 1108.84C628.386 1108.84 634.146 1108.84 639.746 1108.84C645.346 1108.84 650.546 1108.84 655.346 1108.84C660.306 1108.84 664.546 1108.84 668.066 1108.84C671.586 1108.68 674.146 1108.6 675.746 1108.6C678.306 1108.44 681.346 1108.36 684.866 1108.36C688.546 1108.36 692.306 1108.28 696.146 1108.12C700.146 1107.96 704.066 1107.88 707.906 1107.88C711.746 1107.72 715.106 1107.56 717.986 1107.4C720.866 1107.08 723.026 1106.76 724.466 1106.44L724.706 1135C724.226 1135 722.386 1135 719.186 1135C715.986 1135 712.066 1135 707.426 1135C702.786 1135 698.066 1135 693.266 1135C688.466 1135 684.226 1135 680.546 1135C676.866 1135 674.386 1135 673.106 1135C672.946 1135 671.586 1135 669.026 1135C666.626 1135.16 663.506 1135.24 659.666 1135.24C655.986 1135.4 651.986 1135.48 647.666 1135.48C643.506 1135.64 639.506 1135.8 635.666 1135.96C631.826 1136.12 628.626 1136.2 626.066 1136.2C623.666 1136.36 622.306 1136.44 621.986 1136.44ZM797.411 1137.4C786.531 1137.4 777.731 1135.16 771.011 1130.68C764.451 1126.04 759.411 1119.8 755.891 1111.96C752.531 1103.96 750.291 1094.92 749.171 1084.84C748.051 1074.6 747.491 1063.88 747.491 1052.68C747.491 1044.36 747.891 1036.04 748.691 1027.72C749.651 1019.24 751.251 1011.32 753.491 1003.96C755.731 996.44 758.851 989.8 762.851 984.04C766.851 978.28 771.971 973.72 778.211 970.36C784.611 967 792.291 965.32 801.251 965.32C810.531 965.32 818.211 966.92 824.291 970.12C830.531 973.16 835.491 977.48 839.171 983.08C842.851 988.68 845.571 995.24 847.331 1002.76C849.091 1010.12 850.211 1018.12 850.691 1026.76C851.331 1035.24 851.651 1043.96 851.651 1052.92C851.651 1063.64 850.851 1074.12 849.251 1084.36C847.811 1094.44 845.091 1103.48 841.091 1111.48C837.251 1119.32 831.731 1125.64 824.531 1130.44C817.491 1135.08 808.451 1137.4 797.411 1137.4ZM798.851 1110.52C803.331 1110.52 806.931 1109.24 809.651 1106.68C812.371 1103.96 814.451 1100.04 815.891 1094.92C817.491 1089.8 818.531 1083.48 819.011 1075.96C819.651 1068.44 819.971 1059.88 819.971 1050.28C819.971 1040.04 819.651 1031.32 819.011 1024.12C818.531 1016.76 817.571 1010.84 816.131 1006.36C814.851 1001.72 812.931 998.36 810.371 996.28C807.811 994.04 804.531 992.92 800.531 992.92C796.531 992.92 793.171 994.12 790.451 996.52C787.731 998.92 785.571 1002.68 783.971 1007.8C782.371 1012.76 781.251 1019.08 780.611 1026.76C779.971 1034.28 779.651 1043.32 779.651 1053.88C779.651 1068.92 780.131 1080.52 781.091 1088.68C782.051 1096.84 783.891 1102.52 786.611 1105.72C789.331 1108.92 793.411 1110.52 798.851 1110.52ZM905.936 1117L875.216 1108.84C880.336 1104.2 885.936 1099.24 892.016 1093.96C898.096 1088.68 904.176 1083 910.256 1076.92C916.336 1070.84 921.856 1064.52 926.816 1057.96C931.936 1051.4 936.016 1044.68 939.056 1037.8C942.096 1030.76 943.616 1023.56 943.616 1016.2C943.616 1010.6 942.896 1006.28 941.456 1003.24C940.176 1000.04 938.256 997.8 935.696 996.52C933.296 995.24 930.336 994.6 926.816 994.6C922.656 994.6 919.296 995.72 916.736 997.96C914.336 1000.04 912.576 1003 911.456 1006.84C910.336 1010.68 909.776 1015.32 909.776 1020.76C909.776 1024.28 909.936 1027.88 910.256 1031.56C910.736 1035.24 911.296 1038.92 911.936 1042.6L881.456 1042.84C880.816 1039.16 880.256 1035.4 879.776 1031.56C879.456 1027.72 879.296 1023.96 879.296 1020.28C879.296 1013.24 880.096 1006.52 881.696 1000.12C883.456 993.72 886.176 988.04 889.856 983.08C893.696 978.12 898.816 974.2 905.216 971.32C911.616 968.44 919.456 967 928.736 967C936.096 967 942.656 967.96 948.416 969.88C954.176 971.8 959.056 974.76 963.056 978.76C967.216 982.6 970.336 987.56 972.416 993.64C974.496 999.72 975.536 1006.84 975.536 1015C975.536 1023.96 973.856 1032.68 970.496 1041.16C967.136 1049.64 962.736 1057.72 957.296 1065.4C951.856 1072.92 945.936 1079.96 939.536 1086.52C933.296 1092.92 927.216 1098.76 921.296 1104.04C915.376 1109.16 910.256 1113.48 905.936 1117ZM874.736 1136.44L875.216 1108.84C881.136 1108.84 886.896 1108.84 892.496 1108.84C898.096 1108.84 903.296 1108.84 908.096 1108.84C913.056 1108.84 917.296 1108.84 920.816 1108.84C924.336 1108.68 926.896 1108.6 928.496 1108.6C931.056 1108.44 934.096 1108.36 937.616 1108.36C941.296 1108.36 945.056 1108.28 948.896 1108.12C952.896 1107.96 956.816 1107.88 960.656 1107.88C964.496 1107.72 967.856 1107.56 970.736 1107.4C973.616 1107.08 975.776 1106.76 977.216 1106.44L977.456 1135C976.976 1135 975.136 1135 971.936 1135C968.736 1135 964.816 1135 960.176 1135C955.536 1135 950.816 1135 946.016 1135C941.216 1135 936.976 1135 933.296 1135C929.616 1135 927.136 1135 925.856 1135C925.696 1135 924.336 1135 921.776 1135C919.376 1135.16 916.256 1135.24 912.416 1135.24C908.736 1135.4 904.736 1135.48 900.416 1135.48C896.256 1135.64 892.256 1135.8 888.416 1135.96C884.576 1136.12 881.376 1136.2 878.816 1136.2C876.416 1136.36 875.056 1136.44 874.736 1136.44ZM1021.84 1089.64L993.521 1078.84C995.441 1074.52 997.361 1070.28 999.281 1066.12C1001.2 1061.96 1003.12 1057.8 1005.04 1053.64C1007.12 1049.32 1009.12 1045 1011.04 1040.68C1013.12 1036.36 1015.12 1031.96 1017.04 1027.48C1019.28 1022.36 1021.44 1017.24 1023.52 1012.12C1025.76 1006.84 1027.84 1001.72 1029.76 996.76C1031.84 991.64 1033.84 986.6 1035.76 981.64C1037.84 976.52 1039.92 971.48 1042 966.52L1085.2 967.96C1085.36 967.8 1084.16 968.6 1081.6 970.36C1079.04 972.12 1076.24 974.52 1073.2 977.56C1070.32 980.44 1068.16 983.72 1066.72 987.4C1064.48 992.2 1062 997.48 1059.28 1003.24C1056.72 1009 1054 1015.08 1051.12 1021.48C1048.4 1027.72 1045.6 1034.12 1042.72 1040.68C1040.32 1046.44 1037.84 1052.12 1035.28 1057.72C1032.88 1063.32 1030.56 1068.76 1028.32 1074.04C1026.08 1079.32 1023.92 1084.52 1021.84 1089.64ZM997.361 1108.84L993.521 1078.84C996.081 1079 999.121 1079.16 1002.64 1079.32C1006.16 1079.48 1009.92 1079.64 1013.92 1079.8C1017.92 1079.8 1022 1079.8 1026.16 1079.8C1030.32 1079.8 1034.32 1079.8 1038.16 1079.8C1042.16 1079.64 1045.84 1079.48 1049.2 1079.32C1053.52 1079.16 1058.32 1079 1063.6 1078.84C1068.88 1078.68 1074.16 1078.52 1079.44 1078.36C1084.72 1078.2 1089.52 1078.04 1093.84 1077.88C1098.16 1077.72 1101.36 1077.48 1103.44 1077.16L1103.68 1107.64C1101.6 1107.64 1098.4 1107.64 1094.08 1107.64C1089.76 1107.64 1084.96 1107.64 1079.68 1107.64C1074.4 1107.64 1069.12 1107.64 1063.84 1107.64C1058.56 1107.64 1053.84 1107.64 1049.68 1107.64C1046.64 1107.64 1042.88 1107.72 1038.4 1107.88C1033.92 1107.88 1029.2 1107.96 1024.24 1108.12C1019.44 1108.28 1014.96 1108.44 1010.8 1108.6C1006.64 1108.6 1003.28 1108.68 1000.72 1108.84C998.321 1108.84 997.201 1108.84 997.361 1108.84ZM1051.12 1135.72C1051.28 1127.08 1051.36 1119.88 1051.36 1114.12C1051.52 1108.2 1051.68 1103.24 1051.84 1099.24C1052 1095.24 1052.08 1091.88 1052.08 1089.16C1052.24 1086.28 1052.32 1083.64 1052.32 1081.24C1052.32 1078.84 1052.32 1076.28 1052.32 1073.56C1052.32 1067.16 1052.32 1059.96 1052.32 1051.96C1052.48 1043.8 1052.56 1035.16 1052.56 1026.04C1052.72 1016.76 1052.8 1007.4 1052.8 997.96C1052.8 988.52 1052.64 979.32 1052.32 970.36L1085.2 967.96C1085.04 973.72 1084.88 979.88 1084.72 986.44C1084.56 992.84 1084.4 999.88 1084.24 1007.56C1084.24 1015.08 1084.24 1023.32 1084.24 1032.28C1084.24 1041.24 1084.24 1051 1084.24 1061.56C1084.24 1072.6 1084.24 1082.04 1084.24 1089.88C1084.4 1097.72 1084.48 1104.36 1084.48 1109.8C1084.64 1115.24 1084.72 1119.96 1084.72 1123.96C1084.88 1127.8 1084.96 1131.48 1084.96 1135L1051.12 1135.72Z"
     fill="#383838"
     id="path32"
     style="fill:#ffffff;fill-opacity:1" />
  <g
     clip-path="url(#clip0_115_241)"
     id="g35"
     transform="translate(0,7)">
    <path
       d="m 70,461 v 205 c 0,0 84.5,-110.5 106.5,-132 22,-21.5 31,-27.5 31,-27.5 3.5,2.5 28.5,21 37.5,26 28.952,16.085 70.667,18.667 89.5,15.5 15.167,-0.167 47.956,6.12 68,18.5 17,10.5 52.5,31 57,31 4.5,0 14,3.5 20,-10.5 6,-14 -17,-38.125 -24,-42.5 -7,-4.375 -26.5,-15 -48,-21.5 -19.331,-5.844 -41.333,-19.167 -49.5,-27 -19.6,-33.2 8.167,-49.5 24.5,-53.5 0,0 56,3 87.5,0 3.5,7 69,57.5 69,57.5 2.167,1.333 10.5,8.5 22,3.5 10.375,-4.511 10.167,-13.5 9,-18.5 0,0 -48.5,-54.5 -90.5,-77.5 -24,-7 -72.5,-7 -72.5,-7 -7.2,-10.8 -17.667,-14.5 -22,-15 -49.333,-1.667 -157.1,-5.2 -193.5,-6 -36.4,-0.8 -96.1667,54 -121.5,81.5 z"
       fill="#ffffff"
       id="path1" />
    <path
       d="M 398.999,478.5 395,475 c 1,-5.5 0.999,-11.5 0.999,-11.5 0,0 32,2.5 75,-1 26,28 58,58 58,58 l 18,48 c 1,6 -1.8,16.3 -21,9.5 -19.2,-6.8 -27.333,-29.167 -29,-39.5 l -42,-36.5 c -36,-4.4 -52.333,-17.5 -56,-23.5 z"
       fill="#ffffff"
       id="path2" />
    <path
       d="M 477,368 415,317"
       stroke="#ffffff"
       stroke-width="15"
       stroke-linecap="round"
       id="path3" />
    <path
       d="M 486,317 465,291"
       stroke="#ffffff"
       stroke-width="15"
       stroke-linecap="round"
       id="path4" />
    <path
       d="M 533,317 517,278"
       stroke="#ffffff"
       stroke-width="15"
       stroke-linecap="round"
       id="path5" />
    <path
       d="m 628,317 16,-41"
       stroke="#ffffff"
       stroke-width="15"
       stroke-linecap="round"
       id="path6" />
    <path
       d="M 579,322 V 104"
       stroke="#ffffff"
       stroke-width="15"
       stroke-linecap="round"
       id="path7" />
    <path
       d="m 675,317 18,-26"
       stroke="#ffffff"
       stroke-width="15"
       stroke-linecap="round"
       id="path8" />
    <path
       d="m 686,368 62,-53"
       stroke="#ffffff"
       stroke-width="15"
       stroke-linecap="round"
       id="path9" />
    <circle
       cx="308.5"
       cy="329.5"
       r="7.5"
       fill="#ffffff"
       id="circle9" />
    <circle
       cx="421.5"
       cy="234.5"
       r="7.5"
       fill="#ffffff"
       id="circle10" />
    <circle
       cx="502.5"
       cy="242.5"
       r="7.5"
       fill="#ffffff"
       id="circle11" />
    <circle
       cx="486.5"
       cy="196.5"
       r="18.5"
       fill="#ffffff"
       id="circle12" />
    <circle
       cx="377.5"
       cy="283.5"
       r="18.5"
       fill="#ffffff"
       id="circle13" />
    <circle
       cx="674.5"
       cy="196.5"
       r="18.5"
       fill="#ffffff"
       id="circle14" />
    <circle
       cx="784.5"
       cy="283.5"
       r="18.5"
       fill="#ffffff"
       id="circle15" />
    <circle
       cx="871"
       cy="238"
       r="21"
       fill="#ffffff"
       id="circle16" />
    <circle
       cx="657.5"
       cy="241.5"
       r="7.5"
       fill="#ffffff"
       id="circle17" />
    <circle
       cx="743.5"
       cy="219.5"
       r="7.5"
       fill="#ffffff"
       id="circle18" />
    <circle
       cx="850.5"
       cy="329.5"
       r="7.5"
       fill="#ffffff"
       id="circle19" />
    <path
       d="M 578.008,464.5 517,415 c 7.845,-27.687 33.308,-47 63.508,-47 33.905,0 61.838,24.595 65.575,57.5 z"
       fill="#fda98b"
       id="path19" />
    <circle
       cx="1049"
       cy="423"
       r="33"
       stroke="#e1e1e1"
       stroke-width="28"
       id="circle20" />
    <path
       d="m 768.501,584.5 c -24,7.2 -40.333,-0.667 -45.5,-5.5 l -6,45 14.5,54.5 16,8 17.5,-23.5 -8,-41.5 z"
       fill="#ffffff"
       id="path20" />
    <path
       d="m 820.501,555 c -12,12.8 -29.333,21.333 -36.5,24 l -11.5,37 7,62.5 15,11 18.5,-21.5 -9.5,-59 33.501,-54 z"
       fill="#ffffff"
       id="path21" />
    <path
       d="m 854.501,609 31.5,-24.5 -22.5,-27 -12,2.5 -33,51.5 6.5,48 12.5,10 17,-16.5 z"
       fill="#ffffff"
       id="path22" />
    <path
       d="m 794.501,482.5 -47,22 21,-27 -49.499,-3.5 -51.5,14 -41.5,18 c -6.834,0.667 -22.301,-0.3 -29.501,-9.5 -7.2,-9.2 1.667,-20.5 7,-25 l 110,-49 66,-2.5 c -15.6,29.6 3.5,54 15,62.5 z"
       fill="#ffffff"
       id="path23" />
    <path
       d="m 997.002,379 c -14,13.6 -16.167,29.667 -15.5,36 h -89.5 l -26.5,15 -17.5,19 -10.5,13.751 -17.5,9.249 c 0,0 -21.2,-9.1 -24,-27.5 -2.8,-18.4 10.167,-32.667 17,-37.5 l 108.5,-25.5 z"
       fill="#ffffff"
       id="path24" />
    <path
       d="m 1015.5,516 76,21 v -61.5 c -8.16,8 -32.2,21.8 -63,13 -30.798,-8.8 -44.165,-38 -46.998,-51.5 h -81.5 l -28,15 -20.501,28.5 -119.499,52.5 -5.735,24.5 22.235,10 27.47,-7.5 31.03,-14.5 20.5,-11.5 18.5,-1.231 21.393,8.231 35.107,34 73,-33.5 17.317,-22 10.681,-28 15,6.5 z"
       fill="#ffffff"
       id="path25" />
    <path
       d="m 611.604,643.191 7.192,-13.164 -26.328,-14.382 -7.191,13.164 z m -36.926,-13.242 -6.052,-13.726 -27.45,12.103 6.051,13.725 z m -105.38,214.918 c 61.263,-70.145 96.371,-117.588 142.306,-201.676 l -26.327,-14.382 c -44.708,81.839 -78.473,127.509 -138.575,196.324 z m 77.929,-202.816 c 41.02,93.038 74.242,139.548 134.907,203.29 l 21.732,-20.682 C 645.462,763.292 614.229,719.655 574.678,629.949 Z"
       fill="#0f7173"
       id="path26" />
    <path
       d="M 786,798 C 756.268,768.295 724.475,740.086 703.119,703 M 666,798 c 27.63,-24.678 60.871,-61.471 77.797,-95"
       stroke="#0f7173"
       stroke-width="30"
       stroke-linejoin="round"
       id="path27" />
    <path
       d="m 447.016,655.368 7.368,-13.066 -26.132,-14.736 -7.368,13.066 z m -39.435,-12.581 -6.898,-13.32 -26.64,13.796 6.898,13.32 z m -59.097,138.941 c 44.829,-43.81 67.267,-70.915 98.532,-126.36 l -26.132,-14.736 c -29.635,52.555 -50.197,77.45 -93.368,119.64 z m 32.457,-125.145 c 29.354,56.683 70.024,107.277 104.254,142.822 l 21.61,-20.81 c -32.851,-34.112 -71.56,-82.387 -99.224,-135.808 z"
       fill="#0f7173"
       id="path28" />
    <path
       d="m 411,677 c 0,0 -4.5,78.5 0,133.5"
       stroke="#0f7173"
       stroke-width="30"
       stroke-linecap="round"
       id="path29" />
    <path
       d="m 581,677 c 0,0 -9,82.925 0,161"
       stroke="#0f7173"
       stroke-width="30"
       stroke-linecap="round"
       id="path30" />
    <path
       d="m 720.759,737.144 c 5.572,45.32 3.259,88.524 3.259,88.524"
       stroke="#0f7173"
       stroke-width="30"
       stroke-linecap="round"
       id="path31" />
    <path
       d="m 342.55,181.5 -13.312,-16.242 z m 473.193,22.653 c 8.763,7.598 22.026,6.653 29.624,-2.11 7.597,-8.763 6.652,-22.026 -2.111,-29.623 z m 115.159,76.138 c -5.639,-10.135 -18.426,-13.781 -28.561,-8.142 -10.135,5.638 -13.78,18.425 -8.142,28.56 z m -12.546,73.763 c 3.896,10.924 15.91,16.622 26.834,12.726 10.924,-3.896 16.621,-15.91 12.725,-26.834 z m -57.161,404.992 c 8.285,-8.116 8.422,-21.412 0.306,-29.697 -8.116,-8.285 -21.412,-8.422 -29.697,-0.306 z M 223.444,298.766 c -5.1,10.416 -0.79,22.995 9.627,28.095 10.416,5.1 22.995,0.79 28.095,-9.627 z m 724.57,321.891 c 3.952,-10.904 -1.682,-22.947 -12.586,-26.9 -10.904,-3.952 -22.947,1.682 -26.9,12.586 z m -77.902,60.361 c -6.893,9.327 -4.921,22.476 4.406,29.37 9.327,6.893 22.476,4.921 29.37,-4.406 z M 244.546,644.5 l 18.735,-9.485 v 0 z m 1.46,-50.385 c -3.526,-11.049 -15.342,-17.147 -26.391,-13.621 -11.049,3.526 -17.147,15.342 -13.621,26.391 z M 355.862,197.742 C 417.441,147.271 496.157,117 582,117 V 75 c -95.902,0 -183.951,33.86 -252.762,90.258 z M 582,117 c 89.413,0 171.103,32.844 233.743,87.153 L 843.256,172.42 C 773.27,111.741 681.899,75 582,75 Z m 312.199,183.709 c 9.447,16.982 17.547,34.811 24.157,53.345 l 39.559,-14.108 c -7.394,-20.733 -16.452,-40.672 -27.013,-59.655 z M 831.804,729.043 C 767.397,792.136 679.258,831 582,831 v 42 c 108.685,0 207.256,-43.483 279.195,-113.954 z M 261.166,317.234 c 22.693,-46.351 55.149,-87.08 94.696,-119.492 l -26.624,-32.484 c -44.161,36.195 -80.423,81.687 -105.794,133.508 z m 647.362,289.109 c -9.619,26.536 -22.964,53.769 -38.416,74.675 l 33.776,24.964 c 18.548,-25.094 33.586,-56.251 44.126,-85.325 z M 582,831 C 442.8,831 322.169,751.336 263.281,635.015 l -37.471,18.97 C 291.57,783.881 426.359,873 582,873 Z M 263.281,635.015 c -2.03,-4.01 -10.367,-19.253 -17.275,-40.9 l -40.012,12.77 c 8.092,25.353 18.001,43.516 19.816,47.1 z"
       fill="#ffffff"
       id="path32-8" />
    <circle
       cx="712"
       cy="452"
       r="26.5"
       fill="#ffffff"
       stroke="#e1e1e1"
       stroke-width="19"
       id="circle32" />
    <circle
       cx="840"
       cy="612"
       r="15"
       fill="#ffffff"
       stroke="#e1e1e1"
       stroke-width="12"
       id="circle33" />
    <circle
       cx="792"
       cy="618"
       r="16"
       fill="#ffffff"
       stroke="#e1e1e1"
       stroke-width="14"
       id="circle34" />
    <circle
       cx="739.5"
       cy="623.5"
       r="18.5"
       fill="#ffffff"
       stroke="#e1e1e1"
       stroke-width="14"
       id="circle35" />
  </g>
</svg>
