<svg xmlns="http://www.w3.org/2000/svg" width="239" height="70" fill="none" viewBox="0 0 239 70"><path fill="#fff" d="M89.7761 13.288H93.7241C93.7801 13.4747 93.8921 13.8107 94.0601 14.296C94.2281 14.7627 94.4241 15.332 94.6481 16.004C94.8907 16.6573 95.1427 17.3573 95.4041 18.104C95.6654 18.8507 95.9174 19.5787 96.1601 20.288C96.3654 20.8853 96.5614 21.4547 96.7481 21.996C96.9347 22.5187 97.0934 22.976 97.2241 23.368C97.3734 23.76 97.4854 24.0587 97.5601 24.264C97.5601 23.9467 97.5601 23.5827 97.5601 23.172C97.5601 22.7613 97.5601 22.3227 97.5601 21.856C97.5601 21.3893 97.5507 20.904 97.5321 20.4C97.5321 19.896 97.5227 19.3827 97.5041 18.86C97.4854 18.3933 97.4667 17.936 97.4481 17.488C97.4481 17.04 97.4481 16.6013 97.4481 16.172C97.4481 15.7427 97.4387 15.332 97.4201 14.94C97.4201 14.548 97.4107 14.1933 97.3921 13.876C97.3921 13.54 97.3827 13.2413 97.3641 12.98H101.2C101.181 13.484 101.163 14.0533 101.144 14.688C101.144 15.3227 101.135 15.9947 101.116 16.704C101.116 17.4133 101.107 18.16 101.088 18.944C101.088 19.728 101.079 20.5307 101.06 21.352C101.041 22.3413 101.023 23.34 101.004 24.348C101.004 25.356 101.004 26.3453 101.004 27.316C101.004 28.2867 100.995 29.22 100.976 30.116C100.976 31.012 100.967 31.8427 100.948 32.608L97.1681 32.804C97.0561 32.4867 96.9067 32.0853 96.7201 31.6C96.5334 31.096 96.3281 30.5453 96.1041 29.948C95.8801 29.332 95.6467 28.7067 95.4041 28.072C95.1614 27.4187 94.9281 26.8027 94.7041 26.224C94.5734 25.888 94.4427 25.5707 94.3121 25.272C94.2001 24.9547 94.0881 24.6653 93.9761 24.404C93.8827 24.1427 93.7987 23.9093 93.7241 23.704C93.6494 23.4987 93.5841 23.34 93.5281 23.228C93.5281 23.5827 93.5281 23.9467 93.5281 24.32C93.5281 24.6747 93.5281 25.0293 93.5281 25.384C93.5281 25.7387 93.5281 26.084 93.5281 26.42C93.5281 26.756 93.5281 27.092 93.5281 27.428C93.5467 27.8947 93.5561 28.352 93.5561 28.8C93.5561 29.248 93.5561 29.6773 93.5561 30.088C93.5747 30.48 93.5841 30.8533 93.5841 31.208C93.5841 31.5627 93.5841 31.8893 93.5841 32.188C93.6027 32.4867 93.6121 32.7573 93.6121 33L89.8601 32.972C89.8601 32.4867 89.8601 31.9733 89.8601 31.432C89.8787 30.8907 89.8881 30.3213 89.8881 29.724C89.9067 29.1267 89.9161 28.5107 89.9161 27.876C89.9161 27.2413 89.9161 26.588 89.9161 25.916C89.9161 24.7773 89.9161 23.6293 89.9161 22.472C89.9161 21.3147 89.9067 20.1853 89.8881 19.084C89.8694 17.964 89.8507 16.9187 89.8321 15.948C89.8321 14.9587 89.8134 14.072 89.7761 13.288ZM107.252 33.224C107.289 32.552 107.308 31.6093 107.308 30.396C107.327 29.164 107.317 27.848 107.28 26.448L111.256 26.728C111.256 27.3813 111.256 27.988 111.256 28.548C111.256 29.108 111.265 29.6307 111.284 30.116C111.303 30.6013 111.321 31.0773 111.34 31.544C111.359 32.0107 111.387 32.4867 111.424 32.972L107.252 33.224ZM102.912 13.148H107.252C107.345 13.6707 107.457 14.268 107.588 14.94C107.719 15.612 107.849 16.312 107.98 17.04C108.129 17.7493 108.279 18.44 108.428 19.112C108.633 20.008 108.82 20.82 108.988 21.548C109.156 22.2573 109.277 22.7707 109.352 23.088C109.445 22.752 109.548 22.3693 109.66 21.94C109.772 21.492 109.893 21.0067 110.024 20.484C110.155 19.9613 110.285 19.42 110.416 18.86C110.509 18.412 110.612 17.964 110.724 17.516C110.836 17.0493 110.939 16.592 111.032 16.144C111.144 15.696 111.247 15.2573 111.34 14.828C111.452 14.38 111.555 13.9507 111.648 13.54L115.848 13.792C115.699 14.2587 115.512 14.7813 115.288 15.36C115.083 15.9387 114.859 16.5827 114.616 17.292C114.392 17.9827 114.149 18.7293 113.888 19.532C113.496 20.8013 113.095 22.0613 112.684 23.312C112.292 24.5627 111.928 25.7107 111.592 26.756C111.275 27.7827 111.032 28.5947 110.864 29.192L107.7 29.164C107.551 28.6227 107.373 28.016 107.168 27.344C106.981 26.672 106.776 25.9627 106.552 25.216C106.328 24.4507 106.095 23.6667 105.852 22.864C105.609 22.0613 105.367 21.2587 105.124 20.456C104.937 19.784 104.741 19.112 104.536 18.44C104.331 17.768 104.135 17.124 103.948 16.508C103.761 15.8733 103.584 15.276 103.416 14.716C103.229 14.1373 103.061 13.6147 102.912 13.148ZM123.857 33.14C123.745 32.1133 123.633 31.0493 123.521 29.948C123.409 28.828 123.287 27.6987 123.157 26.56C123.026 25.4213 122.877 24.3107 122.709 23.228C122.578 22.388 122.457 21.5853 122.345 20.82C122.251 20.036 122.158 19.2987 122.065 18.608C121.99 17.9173 121.906 17.2827 121.813 16.704C121.738 16.1067 121.663 15.584 121.589 15.136L119.405 13.484L124.669 13.26C124.799 14.0627 124.93 14.8747 125.061 15.696C125.191 16.4987 125.322 17.3013 125.453 18.104C125.583 18.888 125.714 19.672 125.845 20.456C125.994 21.24 126.134 22.0147 126.265 22.78C126.489 24.0493 126.713 25.2813 126.937 26.476C127.161 27.6707 127.385 28.8187 127.609 29.92C127.833 31.0027 128.047 32.0293 128.253 33L123.857 33.14ZM119.181 29.808V26.504L124.669 26.588V29.612L119.181 29.808ZM120.021 32.832L115.821 32.804C116.007 31.8893 116.203 30.9187 116.409 29.892C116.614 28.8467 116.819 27.7547 117.025 26.616C117.249 25.4587 117.473 24.2733 117.697 23.06C117.883 22.0333 118.07 20.988 118.257 19.924C118.462 18.86 118.658 17.7867 118.845 16.704C119.031 15.6213 119.218 14.548 119.405 13.484L124.669 13.26L122.317 15.36C122.223 15.92 122.121 16.6013 122.009 17.404C121.897 18.2067 121.775 19.1027 121.645 20.092C121.533 21.0627 121.393 22.0893 121.225 23.172C121.057 24.236 120.907 25.328 120.777 26.448C120.646 27.5493 120.515 28.6413 120.385 29.724C120.273 30.8067 120.151 31.8427 120.021 32.832ZM133.073 32.944C133.073 32.608 133.073 32.2347 133.073 31.824C133.091 31.3947 133.101 30.9093 133.101 30.368C133.101 29.8267 133.101 29.22 133.101 28.548C133.119 27.8573 133.129 27.0827 133.129 26.224C133.129 25.3653 133.129 24.404 133.129 23.34C133.129 22.0333 133.119 20.8013 133.101 19.644C133.082 18.468 133.054 17.432 133.017 16.536C132.998 15.6213 132.979 14.912 132.961 14.408C132.942 13.8853 132.933 13.624 132.933 13.624L137.217 13.736C137.217 13.736 137.217 13.9787 137.217 14.464C137.217 14.9307 137.207 15.5373 137.189 16.284C137.189 17.0307 137.179 17.8427 137.161 18.72C137.161 19.5787 137.161 20.4187 137.161 21.24C137.161 22.0427 137.161 22.724 137.161 23.284C137.161 23.8627 137.161 24.5627 137.161 25.384C137.161 26.1867 137.161 27.0267 137.161 27.904C137.179 28.7627 137.189 29.5747 137.189 30.34C137.207 31.0867 137.217 31.7027 137.217 32.188C137.217 32.6547 137.217 32.888 137.217 32.888L133.073 32.944ZM129.321 16.816L129.405 13.372C129.405 13.372 129.591 13.372 129.965 13.372C130.338 13.372 130.805 13.372 131.365 13.372C131.925 13.3533 132.503 13.344 133.101 13.344C133.717 13.344 134.249 13.344 134.697 13.344C135.07 13.344 135.518 13.344 136.041 13.344C136.582 13.344 137.133 13.344 137.693 13.344C138.271 13.3253 138.803 13.316 139.289 13.316C139.793 13.2973 140.194 13.288 140.493 13.288C140.81 13.288 140.969 13.288 140.969 13.288L141.053 16.592C141.053 16.592 140.903 16.592 140.605 16.592C140.325 16.592 139.951 16.6013 139.485 16.62C139.018 16.62 138.514 16.6293 137.973 16.648C137.431 16.648 136.899 16.648 136.377 16.648C135.873 16.648 135.434 16.648 135.061 16.648C134.687 16.648 134.249 16.6573 133.745 16.676C133.259 16.6947 132.755 16.7133 132.233 16.732C131.729 16.732 131.253 16.7413 130.805 16.76C130.357 16.7787 130.002 16.7973 129.741 16.816C129.461 16.816 129.321 16.816 129.321 16.816ZM141.917 33.168C142.104 32.272 142.3 31.2733 142.505 30.172C142.71 29.052 142.916 27.8947 143.121 26.7C143.345 25.4867 143.569 24.2733 143.793 23.06C143.98 22.0333 144.166 21.0067 144.353 19.98C144.558 18.9533 144.754 17.9173 144.941 16.872C145.128 15.808 145.314 14.744 145.501 13.68L150.765 13.26C150.933 14.3427 151.101 15.4253 151.269 16.508C151.456 17.572 151.642 18.6267 151.829 19.672C152.016 20.7173 152.193 21.7533 152.361 22.78C152.585 24.0493 152.809 25.272 153.033 26.448C153.257 27.624 153.481 28.744 153.705 29.808C153.929 30.872 154.144 31.8893 154.349 32.86L149.953 32.916C149.841 31.8893 149.729 30.844 149.617 29.78C149.505 28.6973 149.384 27.6053 149.253 26.504C149.122 25.4027 148.973 24.3107 148.805 23.228C148.73 22.724 148.656 22.2293 148.581 21.744C148.525 21.2587 148.46 20.7827 148.385 20.316C148.329 19.8493 148.273 19.4013 148.217 18.972C148.161 18.5427 148.105 18.132 148.049 17.74C147.993 18.244 147.928 18.7947 147.853 19.392C147.778 19.9707 147.694 20.5773 147.601 21.212C147.526 21.8467 147.433 22.5 147.321 23.172C147.153 24.236 147.004 25.3373 146.873 26.476C146.742 27.6147 146.612 28.744 146.481 29.864C146.369 30.984 146.248 32.0387 146.117 33.028L141.917 33.168ZM145.277 29.612V26.588L150.765 26.504V29.808L145.277 29.612Z"/><path fill="#fff" d="M106.9 49.4225L104.83 48.8465C105.214 48.4865 105.634 48.1025 106.09 47.6945C106.546 47.2865 107.002 46.8485 107.458 46.3805C107.914 45.9005 108.334 45.4085 108.718 44.9045C109.102 44.4005 109.408 43.8845 109.636 43.3565C109.864 42.8165 109.978 42.2645 109.978 41.7005C109.978 41.2445 109.924 40.8905 109.816 40.6385C109.708 40.3865 109.552 40.2065 109.348 40.0985C109.144 39.9905 108.898 39.9365 108.61 39.9365C108.274 39.9365 108.004 40.0205 107.8 40.1885C107.596 40.3565 107.446 40.5905 107.35 40.8905C107.254 41.1905 107.206 41.5565 107.206 41.9885C107.206 42.2405 107.218 42.5045 107.242 42.7805C107.278 43.0445 107.32 43.3085 107.368 43.5725L105.298 43.5905C105.25 43.3265 105.208 43.0565 105.172 42.7805C105.148 42.4925 105.136 42.2165 105.136 41.9525C105.136 41.4245 105.202 40.9265 105.334 40.4585C105.466 39.9785 105.67 39.5585 105.946 39.1985C106.222 38.8385 106.594 38.5565 107.062 38.3525C107.53 38.1485 108.088 38.0465 108.736 38.0465C109.276 38.0465 109.756 38.1185 110.176 38.2625C110.596 38.4065 110.95 38.6225 111.238 38.9105C111.538 39.1985 111.766 39.5705 111.922 40.0265C112.078 40.4705 112.156 40.9865 112.156 41.5745C112.156 42.2465 112.03 42.9065 111.778 43.5545C111.526 44.2025 111.19 44.8205 110.77 45.4085C110.362 45.9965 109.918 46.5425 109.438 47.0465C108.97 47.5505 108.508 48.0065 108.052 48.4145C107.608 48.8105 107.224 49.1465 106.9 49.4225ZM104.794 50.7545L104.83 48.8465C105.238 48.8465 105.64 48.8465 106.036 48.8465C106.432 48.8465 106.81 48.8465 107.17 48.8465C107.542 48.8465 107.86 48.8465 108.124 48.8465C108.4 48.8345 108.604 48.8285 108.736 48.8285C108.928 48.8285 109.15 48.8285 109.402 48.8285C109.666 48.8165 109.936 48.8105 110.212 48.8105C110.5 48.7985 110.782 48.7925 111.058 48.7925C111.334 48.7805 111.58 48.7685 111.796 48.7565C112.012 48.7325 112.174 48.7085 112.282 48.6845L112.3 50.6465C112.252 50.6465 112.108 50.6465 111.868 50.6465C111.628 50.6465 111.334 50.6465 110.986 50.6465C110.65 50.6465 110.308 50.6465 109.96 50.6465C109.624 50.6465 109.324 50.6465 109.06 50.6465C108.796 50.6465 108.622 50.6465 108.538 50.6465C108.502 50.6465 108.388 50.6465 108.196 50.6465C108.016 50.6585 107.788 50.6645 107.512 50.6645C107.248 50.6765 106.966 50.6825 106.666 50.6825C106.378 50.6945 106.096 50.7065 105.82 50.7185C105.544 50.7305 105.316 50.7365 105.136 50.7365C104.956 50.7365 104.842 50.7425 104.794 50.7545ZM117.129 50.8265C116.325 50.8265 115.683 50.6585 115.203 50.3225C114.723 49.9865 114.357 49.5245 114.105 48.9365C113.853 48.3365 113.685 47.6585 113.601 46.9025C113.529 46.1345 113.493 45.3245 113.493 44.4725C113.493 43.8365 113.523 43.2005 113.583 42.5645C113.655 41.9285 113.769 41.3345 113.925 40.7825C114.093 40.2305 114.321 39.7385 114.609 39.3065C114.897 38.8745 115.269 38.5385 115.725 38.2985C116.193 38.0465 116.751 37.9205 117.399 37.9205C118.083 37.9205 118.647 38.0405 119.091 38.2805C119.535 38.5085 119.889 38.8325 120.153 39.2525C120.429 39.6605 120.627 40.1465 120.747 40.7105C120.879 41.2625 120.963 41.8625 120.999 42.5105C121.047 43.1465 121.071 43.8065 121.071 44.4905C121.071 45.2945 121.017 46.0805 120.909 46.8485C120.801 47.6045 120.603 48.2825 120.315 48.8825C120.039 49.4705 119.643 49.9445 119.127 50.3045C118.611 50.6525 117.945 50.8265 117.129 50.8265ZM117.219 49.0085C117.579 49.0085 117.867 48.9065 118.083 48.7025C118.311 48.4985 118.485 48.1985 118.605 47.8025C118.725 47.3945 118.803 46.8965 118.839 46.3085C118.887 45.7205 118.911 45.0485 118.911 44.2925C118.911 43.5245 118.887 42.8585 118.839 42.2945C118.803 41.7185 118.731 41.2505 118.623 40.8905C118.515 40.5185 118.359 40.2425 118.155 40.0625C117.951 39.8825 117.681 39.7925 117.345 39.7925C117.021 39.7925 116.745 39.8945 116.517 40.0985C116.301 40.2905 116.133 40.5905 116.013 40.9985C115.893 41.3945 115.809 41.8925 115.761 42.4925C115.713 43.0805 115.689 43.7705 115.689 44.5625C115.689 45.7265 115.725 46.6325 115.797 47.2805C115.869 47.9165 116.013 48.3665 116.229 48.6305C116.457 48.8825 116.787 49.0085 117.219 49.0085ZM124.303 49.4225L122.233 48.8465C122.617 48.4865 123.037 48.1025 123.493 47.6945C123.949 47.2865 124.405 46.8485 124.861 46.3805C125.317 45.9005 125.737 45.4085 126.121 44.9045C126.505 44.4005 126.811 43.8845 127.039 43.3565C127.267 42.8165 127.381 42.2645 127.381 41.7005C127.381 41.2445 127.327 40.8905 127.219 40.6385C127.111 40.3865 126.955 40.2065 126.751 40.0985C126.547 39.9905 126.301 39.9365 126.013 39.9365C125.677 39.9365 125.407 40.0205 125.203 40.1885C124.999 40.3565 124.849 40.5905 124.753 40.8905C124.657 41.1905 124.609 41.5565 124.609 41.9885C124.609 42.2405 124.621 42.5045 124.645 42.7805C124.681 43.0445 124.723 43.3085 124.771 43.5725L122.701 43.5905C122.653 43.3265 122.611 43.0565 122.575 42.7805C122.551 42.4925 122.539 42.2165 122.539 41.9525C122.539 41.4245 122.605 40.9265 122.737 40.4585C122.869 39.9785 123.073 39.5585 123.349 39.1985C123.625 38.8385 123.997 38.5565 124.465 38.3525C124.933 38.1485 125.491 38.0465 126.139 38.0465C126.679 38.0465 127.159 38.1185 127.579 38.2625C127.999 38.4065 128.353 38.6225 128.641 38.9105C128.941 39.1985 129.169 39.5705 129.325 40.0265C129.481 40.4705 129.559 40.9865 129.559 41.5745C129.559 42.2465 129.433 42.9065 129.181 43.5545C128.929 44.2025 128.593 44.8205 128.173 45.4085C127.765 45.9965 127.321 46.5425 126.841 47.0465C126.373 47.5505 125.911 48.0065 125.455 48.4145C125.011 48.8105 124.627 49.1465 124.303 49.4225ZM122.197 50.7545L122.233 48.8465C122.641 48.8465 123.043 48.8465 123.439 48.8465C123.835 48.8465 124.213 48.8465 124.573 48.8465C124.945 48.8465 125.263 48.8465 125.527 48.8465C125.803 48.8345 126.007 48.8285 126.139 48.8285C126.331 48.8285 126.553 48.8285 126.805 48.8285C127.069 48.8165 127.339 48.8105 127.615 48.8105C127.903 48.7985 128.185 48.7925 128.461 48.7925C128.737 48.7805 128.983 48.7685 129.199 48.7565C129.415 48.7325 129.577 48.7085 129.685 48.6845L129.703 50.6465C129.655 50.6465 129.511 50.6465 129.271 50.6465C129.031 50.6465 128.737 50.6465 128.389 50.6465C128.053 50.6465 127.711 50.6465 127.363 50.6465C127.027 50.6465 126.727 50.6465 126.463 50.6465C126.199 50.6465 126.025 50.6465 125.941 50.6465C125.905 50.6465 125.791 50.6465 125.599 50.6465C125.419 50.6585 125.191 50.6645 124.915 50.6645C124.651 50.6765 124.369 50.6825 124.069 50.6825C123.781 50.6945 123.499 50.7065 123.223 50.7185C122.947 50.7305 122.719 50.7365 122.539 50.7365C122.359 50.7365 122.245 50.7425 122.197 50.7545ZM132.282 47.2805L130.338 46.5245C130.482 46.2125 130.626 45.9005 130.77 45.5885C130.914 45.2765 131.058 44.9585 131.202 44.6345C131.358 44.3105 131.514 43.9865 131.67 43.6625C131.826 43.3385 131.976 43.0085 132.12 42.6725C132.288 42.2765 132.456 41.8805 132.624 41.4845C132.792 41.0885 132.954 40.6985 133.11 40.3145C133.266 39.9185 133.422 39.5285 133.578 39.1445C133.734 38.7605 133.896 38.3825 134.064 38.0105L137.016 38.1185C137.028 38.1065 136.944 38.1665 136.764 38.2985C136.584 38.4185 136.386 38.5865 136.17 38.8025C135.966 39.0185 135.81 39.2645 135.702 39.5405C135.546 39.8645 135.366 40.2425 135.162 40.6745C134.97 41.1065 134.766 41.5685 134.55 42.0605C134.334 42.5525 134.106 43.0565 133.866 43.5725C133.686 44.0285 133.494 44.4785 133.29 44.9225C133.098 45.3545 132.918 45.7685 132.75 46.1645C132.582 46.5605 132.426 46.9325 132.282 47.2805ZM130.626 48.5585L130.338 46.5245C130.494 46.5365 130.692 46.5485 130.932 46.5605C131.184 46.5725 131.46 46.5845 131.76 46.5965C132.06 46.5965 132.366 46.5965 132.678 46.5965C133.002 46.5965 133.314 46.5965 133.614 46.5965C133.914 46.5845 134.19 46.5725 134.442 46.5605C134.766 46.5485 135.126 46.5365 135.522 46.5245C135.93 46.5125 136.332 46.5005 136.728 46.4885C137.124 46.4765 137.478 46.4645 137.79 46.4525C138.102 46.4405 138.324 46.4225 138.456 46.3985L138.474 48.4685C138.342 48.4685 138.12 48.4685 137.808 48.4685C137.496 48.4685 137.136 48.4685 136.728 48.4685C136.332 48.4685 135.93 48.4685 135.522 48.4685C135.126 48.4685 134.778 48.4685 134.478 48.4685C134.25 48.4685 133.968 48.4745 133.632 48.4865C133.308 48.4865 132.966 48.4925 132.606 48.5045C132.246 48.5165 131.916 48.5285 131.616 48.5405C131.316 48.5405 131.07 48.5465 130.878 48.5585C130.698 48.5585 130.614 48.5585 130.626 48.5585ZM134.676 50.7005C134.688 50.1125 134.694 49.5965 134.694 49.1525C134.706 48.7085 134.718 48.3185 134.73 47.9825C134.742 47.6465 134.748 47.3465 134.748 47.0825C134.76 46.8065 134.766 46.5545 134.766 46.3265C134.766 46.0865 134.766 45.8405 134.766 45.5885C134.766 45.1085 134.766 44.5805 134.766 44.0045C134.778 43.4285 134.784 42.8225 134.784 42.1865C134.784 41.5385 134.784 40.8905 134.784 40.2425C134.784 39.5825 134.778 38.9345 134.766 38.2985L137.016 38.1185C137.004 38.5505 136.992 39.0005 136.98 39.4685C136.968 39.9365 136.956 40.4405 136.944 40.9805C136.944 41.5205 136.944 42.1145 136.944 42.7625C136.944 43.3985 136.944 44.1065 136.944 44.8865C136.944 45.6905 136.944 46.3865 136.944 46.9745C136.956 47.5625 136.962 48.0725 136.962 48.5045C136.974 48.9365 136.98 49.3205 136.98 49.6565C136.992 49.9925 136.998 50.3225 136.998 50.6465L134.676 50.7005Z"/><path fill="#fff" d="M0 21.481V55.7305C0 55.7305 14.1175 37.2692 17.793 33.6772C21.4686 30.0852 22.9722 29.0827 22.9722 29.0827C23.557 29.5004 27.7338 32.5912 29.2374 33.4266C34.0745 36.1139 41.0437 36.5452 44.1902 36.0162C46.7241 35.9883 52.2022 37.0386 55.551 39.107C58.3912 40.8612 64.3223 44.2862 65.0741 44.2862C65.8259 44.2862 67.4131 44.8709 68.4155 42.5319C69.4179 40.193 65.5753 36.1624 64.4058 35.4314C63.2363 34.7005 59.9784 32.9254 56.3864 31.8394C53.1568 30.863 49.4808 28.6372 48.1164 27.3285C44.8418 21.7817 49.4808 19.0585 52.2096 18.3902C52.2096 18.3902 61.5656 18.8914 66.8283 18.3902C67.4131 19.5597 78.3562 27.9968 78.3562 27.9968C78.7182 28.2195 80.1105 29.4169 82.0318 28.5815C83.7652 27.8279 83.7303 26.3261 83.5354 25.4907C83.5354 25.4907 75.4325 16.3854 68.4155 12.5427C64.4058 11.3732 56.3029 11.3732 56.3029 11.3732C55.1 9.56887 53.3513 8.95071 52.6273 8.86717C44.3851 8.58872 26.3805 7.99839 20.2991 7.86473C14.2177 7.73107 4.23246 16.8866 0 21.481Z"/><path fill="#fff" d="M54.9665 24.4036L54.2983 23.8189C54.4654 22.9 54.4652 21.8975 54.4652 21.8975C54.4652 21.8975 59.8115 22.3152 66.9956 21.7305C71.3394 26.4085 76.6857 31.4206 76.6857 31.4206L79.6929 39.44C79.86 40.4424 79.3922 42.1632 76.1845 41.0271C72.9767 39.8911 71.6179 36.1542 71.3394 34.4278L64.3224 28.3298C58.3079 27.5947 55.5791 25.406 54.9665 24.4036Z"/><circle cx="231.723" cy="7.709" r="5" stroke="#fff" stroke-width="4.554"/><path fill="#fff" d="M188.292 32.7124C184.576 33.8272 182.048 32.6092 181.248 31.8608L180.319 38.8283L182.564 47.2666L185.041 48.5052L187.75 44.8667L186.512 38.4412L188.292 32.7124Z"/><path fill="#fff" d="M196.344 28.1449C194.486 30.1267 191.802 31.448 190.692 31.8608L188.912 37.5896L189.996 47.2666L192.318 48.9697L195.182 45.6409L193.711 36.5058L198.898 28.1449H196.344Z"/><path fill="#fff" d="M201.608 36.5058L206.485 32.7124L203.001 28.532L201.143 28.919L196.034 36.8929L197.04 44.3248L198.976 45.8731L201.608 43.3184V36.5058Z"/><path fill="#fff" d="M192.318 16.9196L185.041 20.3259L188.292 16.1454L180.628 15.6035L172.655 17.7712L166.229 20.5581C165.171 20.6614 162.776 20.5117 161.661 19.0872C160.547 17.6628 161.919 15.9132 162.745 15.2165L179.777 7.6297L189.996 7.24263C187.58 11.8256 190.537 15.6035 192.318 16.9196Z"/><path fill="#fff" d="M223.672 0.894531C221.504 3.00024 221.168 5.48787 221.272 6.46847H207.414L203.311 8.79094L200.602 11.7327L198.976 13.8619L196.266 15.2939C196.266 15.2939 192.984 13.8849 192.55 11.036C192.117 8.1871 194.125 5.97817 195.183 5.22982L211.982 1.28161L223.672 0.894531Z"/><path fill="#fff" d="M226.536 22.1065L238.303 25.3579V15.8358C237.039 17.0744 233.318 19.2111 228.549 17.8486C223.78 16.4861 221.71 11.965 221.272 9.87476H208.653L204.318 12.1972L201.143 16.6099L182.641 24.7386L181.753 28.532L185.196 30.0803L189.449 28.919L194.254 26.674L197.428 24.8934L200.292 24.7029L203.604 25.9772L209.04 31.2415L220.343 26.0547L223.024 22.6484L224.678 18.3131L227 19.3195L226.536 22.1065Z"/><circle cx="179.5" cy="12.5" r="4" fill="#0F7173" stroke="#fff" stroke-width="3"/><circle cx="199" cy="37" r="3" fill="#0F7173" stroke="#fff" stroke-width="2"/><circle cx="192" cy="38" r="3" fill="#0F7173" stroke="#fff" stroke-width="2"/><circle cx="183.5" cy="39.5" r="3.5" fill="#0F7173" stroke="#fff" stroke-width="2"/></svg>