<svg width="528" height="279" viewBox="0 0 528 279" fill="none" xmlns="http://www.w3.org/2000/svg">
<path d="M409.256 96.5168C408.71 94.8473 404.575 95.5823 404.178 94.0891C403.783 92.6013 407.75 91.3537 410.793 87.1609C411.342 86.4048 414.8 81.64 413.474 79.6359C410.96 75.8372 393.469 85.2983 389.27 79.989C388.349 78.8239 387.97 76.8236 385.225 73.101C384.133 71.62 383.432 70.9051 382.595 70.9262C381.407 70.9562 380.982 72.4421 379.115 75.1337C376.316 79.1703 375.306 78.6635 373.461 81.9709C372.092 84.4261 371.93 85.9949 370.943 86.0874C369.545 86.2183 368.968 83.1614 367.261 83.0428C365.519 82.9218 363.776 85.9423 362.912 88.3022C361.29 92.7306 362.294 96.1155 362.517 99.4888C362.759 103.155 362.191 108.521 358.207 115.409L320.638 175.267C328.706 163.064 351.609 129.789 360.837 117.583C363.501 114.06 366.364 110.522 370.77 109.856C375.012 109.215 380.173 111.314 387.378 111.192C388.219 111.178 390.561 111.108 391.13 109.867C391.601 108.841 390.432 107.949 390.857 106.985C391.428 105.691 393.994 106.246 397.492 105.387C399.959 104.781 401.635 103.78 403.076 102.919C403.51 102.659 409.982 98.7391 409.256 96.5168Z" fill="#F2F2F2"/>
<path d="M310.854 110.493C309.877 110.279 309.045 112.521 308.197 112.285C307.353 112.05 307.885 109.742 306.705 107.039C306.493 106.551 305.152 103.479 303.786 103.552C301.196 103.69 300.792 115.005 296.975 115.533C296.138 115.649 295.046 115.258 292.427 115.532C291.385 115.64 290.832 115.778 290.601 116.195C290.273 116.786 290.88 117.424 291.662 119.116C292.836 121.655 292.295 122.005 293.387 123.864C294.197 125.245 294.92 125.777 294.68 126.288C294.341 127.012 292.674 126.413 292.124 127.217C291.562 128.037 292.541 129.764 293.45 130.869C295.156 132.943 297.107 133.426 298.827 134.29C300.696 135.229 303.166 137.056 305.397 140.999L323.935 176.709C320.274 169.228 310.551 148.386 307.223 140.336C306.262 138.012 305.352 135.586 306.296 133.231C307.206 130.964 309.725 129.036 311.744 125.465C311.98 125.048 312.621 123.879 312.176 123.241C311.809 122.714 311.033 123.031 310.683 122.543C310.212 121.89 311.225 120.791 311.813 118.826C312.227 117.44 312.219 116.329 312.213 115.374C312.211 115.085 312.154 110.778 310.854 110.493Z" fill="#F2F2F2"/>
<path d="M329.35 119.204L329.933 113.824L330.29 113.486C331.944 111.923 332.978 110.268 333.366 108.564C333.428 108.293 333.476 108.019 333.525 107.74C333.718 106.633 333.958 105.258 335.022 103.83C335.617 103.034 337.192 101.236 338.815 101.864C339.254 102.028 339.549 102.312 339.755 102.613C339.807 102.561 339.859 102.509 339.916 102.453C340.617 101.771 341.108 101.521 341.581 101.281C341.944 101.096 342.319 100.905 342.954 100.398C343.232 100.175 343.455 99.9748 343.643 99.8065C344.213 99.2977 344.941 98.702 345.94 98.938C346.998 99.2272 347.361 100.237 347.601 100.905C348.031 102.097 348.164 102.917 348.251 103.46C348.283 103.659 348.319 103.883 348.347 103.955C348.579 104.539 351.486 104.69 352.58 104.753C355.04 104.887 357.167 105.002 357.679 106.686C358.046 107.89 357.281 109.204 355.339 110.695C354.734 111.158 354.129 111.479 353.602 111.718C353.926 112.024 354.185 112.441 354.2 113.008C354.236 114.352 352.858 115.383 350.105 116.078C349.421 116.252 348.501 116.483 347.297 116.425C346.729 116.397 346.233 116.31 345.809 116.229C345.746 116.47 345.63 116.721 345.421 116.959C344.809 117.661 343.819 117.839 342.476 117.444C340.993 117.03 339.821 116.468 338.788 115.974C337.885 115.544 337.106 115.176 336.453 115.076C335.237 114.906 334.104 115.656 332.748 116.655L329.35 119.204Z" fill="#F2F2F2"/>
<path d="M339.048 88.5607L333.696 89.3616L333.278 89.1017C331.347 87.8986 329.484 87.3179 327.737 87.3748C327.459 87.3838 327.182 87.4071 326.9 87.4305C325.781 87.5239 324.389 87.6404 322.738 86.9739C321.817 86.6 319.678 85.5333 319.874 83.8032C319.922 83.3377 320.122 82.9794 320.361 82.7043C320.297 82.6676 320.233 82.6297 320.164 82.5894C319.327 82.0838 318.961 81.6725 318.609 81.2763C318.338 80.9719 318.058 80.6574 317.406 80.1722C317.12 79.9594 316.87 79.7945 316.66 79.6555C316.023 79.2335 315.262 78.6796 315.237 77.6541C315.248 76.5571 316.133 75.9501 316.718 75.5477C317.762 74.8296 318.521 74.4935 319.025 74.2709C319.209 74.19 319.416 74.0979 319.479 74.0527C319.985 73.6806 319.394 70.8298 319.177 69.7556C318.683 67.343 318.255 65.2553 319.754 64.3332C320.826 63.6725 322.291 64.0795 324.225 65.58C324.827 66.0475 325.29 66.5514 325.655 67.0004C325.869 66.6092 326.207 66.2537 326.752 66.0945C328.042 65.7194 329.389 66.7908 330.759 69.2775C331.102 69.8949 331.559 70.7264 331.808 71.906C331.925 72.4616 331.967 72.9642 331.995 73.3945C332.245 73.3944 332.517 73.4428 332.8 73.5843C333.634 73.999 334.058 74.911 334.016 76.3106C333.992 77.8498 333.746 79.1256 333.53 80.251C333.343 81.2336 333.185 82.0801 333.253 82.7376C333.397 83.9561 334.41 84.8619 335.72 85.9204L339.048 88.5607Z" fill="#F2F2F2"/>
<path d="M339.77 72.491L340.352 67.111L340.71 66.773C342.363 65.2103 343.398 63.5547 343.786 61.8507C343.847 61.5798 343.895 61.3057 343.944 61.0267C344.138 59.9205 344.378 58.5454 345.441 57.1171C346.037 56.3213 347.611 54.5228 349.235 55.151C349.673 55.3153 349.969 55.5994 350.174 55.9006C350.226 55.8483 350.279 55.7962 350.335 55.7397C351.037 55.058 351.527 54.8083 352 54.5679C352.363 54.3828 352.738 54.1924 353.373 53.6848C353.651 53.4622 353.874 53.2619 354.062 53.0936C354.632 52.5848 355.361 51.9891 356.359 52.2251C357.417 52.5143 357.78 53.5238 358.021 54.192C358.451 55.384 358.583 56.2038 358.671 56.7474C358.702 56.946 358.739 57.1697 358.767 57.2424C358.998 57.8261 361.906 57.9771 363 58.0402C365.459 58.1736 367.587 58.2891 368.099 59.9729C368.466 61.1776 367.701 62.4915 365.758 63.9819C365.154 64.4456 364.549 64.7656 364.022 65.0046C364.346 65.311 364.604 65.7278 364.62 66.2954C364.656 67.6389 363.278 68.6698 360.525 69.3648C359.84 69.5394 358.92 69.7705 357.716 69.7121C357.149 69.6841 356.652 69.5972 356.229 69.5161C356.165 69.7574 356.05 70.0083 355.841 70.2464C355.228 70.9478 354.239 71.1261 352.895 70.7308C351.413 70.3175 350.241 69.7556 349.207 69.2616C348.304 68.8314 347.525 68.4635 346.872 68.363C345.657 68.193 344.524 68.9433 343.168 69.9419L339.77 72.491Z" fill="#F2F2F2"/>
<path d="M322.415 175.573L321.468 174.638L320.153 174.499C320.159 174.375 320.151 174.086 320.141 173.634C320.091 171.159 319.934 163.627 320.982 152.053C321.715 143.974 322.939 135.773 324.62 127.675C326.304 119.563 328.052 113.528 329.456 108.677C330.515 105.018 331.585 101.548 332.629 98.1678C335.414 89.1367 338.045 80.6058 339.674 70.875C340.038 68.7029 340.795 64.1813 339.245 58.8444C338.346 55.7491 336.806 52.8357 334.667 50.1876L336.738 48.5156C339.098 51.4419 340.801 54.6684 341.8 58.1051C343.518 64.0223 342.693 68.9492 342.297 71.3165C340.639 81.219 337.982 89.8319 335.169 98.95C334.131 102.318 333.065 105.773 332.01 109.417C330.619 114.223 328.886 120.206 327.224 128.213C325.562 136.215 324.354 144.315 323.629 152.293C322.594 163.72 322.75 171.14 322.801 173.578C322.827 174.88 322.833 175.152 322.415 175.573Z" fill="#F2F2F2"/>
<path d="M328.989 53.2495C328.883 53.2258 328.776 53.1992 328.669 53.1673C326.485 52.5552 324.734 50.7758 323.461 47.8794C322.866 46.5174 322.725 45.084 322.445 42.2252C322.401 41.7844 322.207 39.5541 322.446 36.5983C322.601 34.6669 322.809 33.8911 323.334 33.282C323.918 32.6034 324.704 32.2147 325.535 32.0196C325.558 31.7639 325.642 31.5139 325.808 31.2768C326.491 30.2933 327.636 30.6975 328.256 30.9078C328.569 31.0202 328.959 31.163 329.398 31.2368C330.087 31.356 330.498 31.2349 331.121 31.0545C331.717 30.8815 332.458 30.6663 333.482 30.6846C335.503 30.7123 337 31.6207 337.493 31.9196C340.091 33.4809 340.988 35.9717 342.026 38.8558C342.233 39.4339 342.917 41.5235 343.077 44.2142C343.192 46.1555 342.938 46.9501 342.646 47.5183C342.05 48.6864 341.138 49.2279 338.874 50.3671C336.508 51.5609 335.321 52.1582 334.348 52.4653C332.084 53.1761 330.662 53.6226 328.989 53.2495Z" fill="#F2F2F2"/>
<path d="M90.6072 42.2764C88.8525 42.2027 88.0926 46.333 86.5549 46.1818C85.0228 46.0313 85.244 41.8779 82.3827 37.5591C81.8667 36.7802 78.615 31.8722 76.2733 32.4125C71.8347 33.4367 74.5698 53.1339 68.1263 55.2068C66.7122 55.6617 64.7058 55.3162 60.2575 56.5833C58.4879 57.0875 57.5729 57.4932 57.2995 58.2847C56.9116 59.4077 58.1545 60.3262 60.0217 63.0175C62.822 67.0537 61.9934 67.8225 64.4453 70.7084C66.2654 72.8507 67.678 73.5522 67.4188 74.5093C67.052 75.8638 63.9866 75.3338 63.2776 76.8913C62.5541 78.4806 64.7726 81.1713 66.6803 82.8073C70.2602 85.8774 73.7823 86.1224 77.0199 87.0954C80.5383 88.1529 85.3657 90.5646 90.422 96.7079L133.328 152.864C124.725 141.032 101.58 107.925 93.38 95.0066C91.0128 91.2773 88.7016 87.3568 89.6215 82.9967C90.507 78.7989 94.2807 74.6995 96.6897 67.9087C96.9711 67.1157 97.7261 64.8981 96.7632 63.9299C95.9671 63.1294 94.7219 63.9121 93.9676 63.1759C92.9556 62.1884 94.3745 59.9787 94.795 56.4014C95.0914 53.8789 94.7408 51.9587 94.4392 50.3075C94.3483 49.8096 92.9431 42.3746 90.6072 42.2764Z" fill="#F2F2F2"/>
<path d="M69.2299 139.34C68.6874 140.18 70.4953 141.745 69.9775 142.456C69.4615 143.165 67.4869 141.858 64.5415 142.016C64.0104 142.044 60.6633 142.224 60.2528 143.529C59.4748 146.003 69.9315 150.344 69.0897 154.105C68.905 154.93 68.1565 155.815 67.495 158.364C67.2318 159.378 67.1669 159.944 67.4765 160.307C67.9158 160.821 68.7252 160.476 70.5848 160.336C73.3738 160.126 73.512 160.755 75.6359 160.384C77.2125 160.109 77.9644 159.618 78.3594 160.022C78.9183 160.592 77.7737 161.944 78.3335 162.741C78.9048 163.555 80.8656 163.242 82.2189 162.778C84.7587 161.907 85.8952 160.249 87.3069 158.941C88.8411 157.519 91.4176 155.846 95.8917 155.136L135.833 150.28C127.544 151.089 104.617 152.896 95.9102 153.194C93.3968 153.28 90.8057 153.283 88.9311 151.573C87.1264 149.927 86.2032 146.892 83.5653 143.751C83.2572 143.384 82.3867 142.373 81.6337 142.567C81.0111 142.726 81.036 143.563 80.457 143.721C79.6803 143.933 79.0052 142.599 77.3707 141.36C76.2182 140.487 75.1746 140.105 74.2772 139.777C74.0066 139.678 69.952 138.222 69.2299 139.34Z" fill="#F2F2F2"/>
<path d="M83.8698 125.068L79.0347 122.638L78.8433 122.185C77.9588 120.089 76.7704 118.54 75.3102 117.58C75.0781 117.427 74.8382 117.286 74.594 117.142C73.6256 116.574 72.4218 115.867 71.4565 114.371C70.9196 113.534 69.7865 111.43 70.9436 110.129C71.251 109.776 71.6208 109.598 71.9749 109.511C71.944 109.445 71.9137 109.377 71.8805 109.304C71.4877 108.408 71.4257 107.861 71.3661 107.334C71.3199 106.929 71.273 106.512 71.0198 105.739C70.9089 105.4 70.7993 105.121 70.7075 104.887C70.4305 104.175 70.1278 103.283 70.6985 102.431C71.3401 101.541 72.4127 101.555 73.1229 101.563C74.39 101.578 75.2042 101.741 75.744 101.85C75.9411 101.89 76.1634 101.934 76.2412 101.933C76.8691 101.921 78.0289 99.2505 78.4712 98.2479C79.4576 95.9912 80.3111 94.0385 82.0675 94.149C83.3244 94.227 84.287 95.404 85.0028 97.7451C85.2252 98.4741 85.3131 99.1527 85.3525 99.73C85.753 99.5337 86.2338 99.4379 86.7709 99.6219C88.0418 100.059 88.5247 101.711 88.2114 104.533C88.1353 105.235 88.0295 106.178 87.553 107.285C87.3281 107.807 87.0728 108.241 86.8484 108.61C87.0523 108.753 87.2467 108.95 87.3966 109.229C87.839 110.048 87.6594 111.038 86.8186 112.157C85.9122 113.401 84.9754 114.302 84.1506 115.097C83.4314 115.792 82.814 116.393 82.4911 116.97C81.9062 118.048 82.2121 119.373 82.6724 120.992L83.8698 125.068Z" fill="#F2F2F2"/>
<path d="M58.5615 105.252L57.4372 110.545L57.0474 110.846C55.2441 112.233 54.0474 113.775 53.4889 115.431C53.4001 115.694 53.3248 115.962 53.2478 116.235C52.9433 117.316 52.5651 118.66 51.3625 119.973C50.6898 120.704 48.9414 122.334 47.3895 121.545C46.9702 121.337 46.7046 121.024 46.5307 120.704C46.4741 120.751 46.4162 120.797 46.3543 120.848C45.5874 121.455 45.074 121.654 44.5794 121.845C44.1993 121.992 43.807 122.144 43.1242 122.585C42.8246 122.778 42.5825 122.955 42.3786 123.103C41.7603 123.551 40.9749 124.07 40.0056 123.734C38.9821 123.34 38.7234 122.299 38.5515 121.609C38.2445 120.38 38.1957 119.551 38.1636 119.001C38.1524 118.801 38.1386 118.574 38.1184 118.499C37.9471 117.895 35.0697 117.45 33.9877 117.277C31.5547 116.895 29.4494 116.565 29.1108 114.838C28.8674 113.602 29.7618 112.373 31.8447 111.087C32.4935 110.686 33.1276 110.429 33.676 110.245C33.3846 109.907 33.1699 109.466 33.2117 108.9C33.3123 107.56 34.7875 106.674 37.5967 106.261C38.295 106.157 39.2339 106.02 40.4259 106.2C40.9873 106.285 41.4727 106.422 41.8859 106.546C41.9731 106.312 42.1137 106.074 42.3455 105.858C43.0261 105.222 44.0286 105.145 45.3249 105.674C46.7583 106.236 47.8671 106.913 48.8456 107.509C49.7005 108.029 50.4379 108.474 51.0777 108.64C52.2695 108.932 53.4727 108.3 54.9229 107.444L58.5615 105.252Z" fill="#F2F2F2"/>
<path d="M43.7639 98.947L38.9288 96.5168L38.7374 96.0637C37.8528 93.9675 36.6644 92.4187 35.2043 91.4584C34.9722 91.3057 34.7323 91.1649 34.488 91.0213C33.5197 90.4526 32.3158 89.746 31.3505 88.2496C30.8136 87.4133 29.6805 85.3087 30.8377 84.0078C31.1451 83.6548 31.5148 83.4773 31.8689 83.3903C31.838 83.3236 31.8077 83.2559 31.7745 83.1831C31.3818 82.2874 31.3198 81.7404 31.2601 81.2134C31.214 80.8084 31.167 80.3904 30.9139 79.6182C30.8029 79.2794 30.6934 79.0004 30.6015 78.7655C30.3246 78.0536 30.0219 77.1623 30.5925 76.3099C31.2341 75.4201 32.3067 75.4338 33.017 75.4424C34.284 75.4573 35.0982 75.6204 35.6381 75.7287C35.8352 75.7687 36.0575 75.8128 36.1352 75.8123C36.7632 75.7999 37.923 73.1294 38.3653 72.1268C39.3516 69.8701 40.2051 67.9174 41.9615 68.0279C43.2185 68.1059 44.1811 69.2829 44.8968 71.624C45.1193 72.3531 45.2072 73.0317 45.2465 73.6089C45.647 73.4127 46.1278 73.3168 46.665 73.5008C47.9358 73.938 48.4188 75.5898 48.1054 78.4119C48.0294 79.1138 47.9235 80.0567 47.4471 81.1641C47.2222 81.6854 46.9668 82.1203 46.7424 82.4886C46.9464 82.6323 47.1408 82.8286 47.2907 83.1075C47.733 83.9271 47.5535 84.9165 46.7127 86.0361C45.8062 87.2803 44.8695 88.1809 44.0447 88.9762C43.3254 89.6714 42.7081 90.2719 42.3851 90.8486C41.8003 91.9273 42.1061 93.2515 42.5664 94.8714L43.7639 98.947Z" fill="#F2F2F2"/>
<path d="M134.234 151.307L133.027 151.866L132.436 153.049C132.323 153 132.049 152.907 131.622 152.757C129.286 151.938 122.176 149.447 111.703 144.411C104.393 140.895 97.1399 136.876 90.1431 132.464C83.1354 128.046 78.0946 124.295 74.0427 121.281C70.9868 119.007 68.111 116.79 65.3106 114.628C57.8274 108.855 50.7582 103.403 42.2145 98.4694C40.3078 97.3669 36.3377 95.0741 30.796 94.6565C27.5819 94.4147 24.3136 94.8365 21.084 95.9125L20.2432 93.3877C23.8108 92.2018 27.4294 91.7371 30.9982 92.0053C37.1425 92.4683 41.4684 94.9666 43.5468 96.167C52.2413 101.188 59.3781 106.694 66.9331 112.522C69.724 114.675 72.5868 116.883 75.6303 119.148C79.6445 122.134 84.6417 125.852 91.5595 130.214C98.4722 134.574 105.636 138.542 112.854 142.015C123.196 146.987 130.2 149.441 132.501 150.247C133.73 150.678 133.987 150.768 134.234 151.307Z" fill="#F2F2F2"/>
<path d="M21.9644 102.306C21.9048 102.397 21.8424 102.488 21.775 102.578C20.4369 104.409 18.1567 105.426 14.9982 105.603C13.5139 105.684 12.122 105.313 9.34621 104.574C8.91789 104.461 6.76083 103.862 4.07598 102.603C2.32129 101.781 1.6674 101.315 1.281 100.609C0.849814 99.8245 0.761258 98.9518 0.869597 98.1051C0.637937 97.9945 0.433035 97.8285 0.269155 97.5901C-0.412648 96.6052 0.36679 95.675 0.78126 95.1671C0.996053 94.9134 1.26637 94.5983 1.48913 94.2135C1.84208 93.6097 1.87278 93.1819 1.92203 92.5354C1.9687 91.9165 2.02673 91.147 2.40259 90.1941C3.13654 88.3107 4.51141 87.2276 4.96421 86.8701C7.33666 84.9833 9.9839 85.0155 13.0489 85.0533C13.6627 85.0625 15.8596 85.1532 18.4358 85.9463C20.2944 86.5185 20.9496 87.0351 21.3796 87.5073C22.265 88.4745 22.4526 89.5186 22.7267 92.0383C23.0163 94.6721 23.1601 95.9929 23.1069 97.0119C22.9795 99.3818 22.8997 100.87 21.9644 102.306Z" fill="#F2F2F2"/>
<path d="M374 192.621L379.168 180L416.102 199.625L412.601 208.177L374 192.621Z" fill="#FFB6B6"/>
<path d="M404.687 192.865L404.595 198.06L407.184 199.29C407.184 199.29 403.699 198.89 400.407 204.102L402.599 205.959C402.599 205.959 404.035 209.277 408.659 211.034L421.243 215.319L423.138 211.107L415.17 206.474C415.17 206.474 413.837 204.428 425.301 203.411C425.301 203.411 429.185 202.875 430.47 192.412C430.647 190.974 429.901 189.561 428.586 188.952C427.86 188.617 427.059 188.58 426.387 189.37C424.679 191.382 424.376 193.999 421.828 194.608C419.28 195.217 404.687 192.865 404.687 192.865Z" fill="#2F2E41"/>
<path d="M408.014 169.769L412.218 156.795L450.524 173.586L447.676 182.378L408.014 169.769Z" fill="#FFB6B6"/>
<path d="M438.636 167.703L438.935 172.891L441.608 173.923C441.608 173.923 438.104 173.785 435.213 179.231L437.538 180.918C437.538 180.918 439.219 184.118 443.962 185.523L456.833 188.849L458.406 184.506L450.112 180.486C450.112 180.486 448.629 178.545 459.984 176.67C459.984 176.67 463.817 175.843 464.311 165.313C464.379 163.866 463.529 162.512 462.172 162.004C461.423 161.724 460.621 161.748 460.011 162.587C458.459 164.721 458.354 167.354 455.859 168.153C453.364 168.952 438.636 167.703 438.636 167.703Z" fill="#2F2E41"/>
<path d="M317.591 61.8338C319.064 63.2549 322.852 60.1477 322.992 62.189C323.133 64.2303 319.624 71.4009 318.361 73.0102C317.732 73.8102 316.962 74.4906 316.341 75.2957C315.719 76.1007 315.241 77.088 315.339 78.1003C315.511 79.8619 317.293 81.0263 317.891 82.6918C318.589 84.6317 317.554 86.728 316.524 88.5135C315.636 90.0525 314.714 91.5987 313.452 92.8498C312.191 94.1008 310.535 95.0444 308.759 95.1031C306.498 95.1777 304.45 93.8504 302.646 92.4851C300.912 91.1724 299.226 89.7577 297.913 88.0242C296.599 86.2907 295.671 84.203 295.622 82.0285C295.56 79.301 296.893 76.6821 298.756 74.6888C300.618 72.6955 302.982 71.2471 305.365 69.9195C309.379 67.6835 313.543 65.7165 317.82 64.036" fill="#2F2E41"/>
<path d="M309.977 86.2882C317.125 86.2882 322.92 80.4934 322.92 73.3453C322.92 66.1971 317.125 60.4023 309.977 60.4023C302.829 60.4023 297.034 66.1971 297.034 73.3453C297.034 80.4934 302.829 86.2882 309.977 86.2882Z" fill="#FFB6B6"/>
<path d="M328.904 109.98L342.351 132.951L367.522 146.255L360.982 152.326L336.514 143.097L319.568 121.333L320.941 110.745L328.904 109.98Z" fill="#FFB6B6"/>
<path d="M301.217 88.0586L312.911 91.1171L312.743 96.7326L322.655 113.666C322.655 113.666 332.031 124.415 323.979 132.213L328.899 137.744L295.548 151.659L280.889 110.332L294.259 94.3743L301.217 88.0586Z" fill="#9CD3C0"/>
<path d="M310.656 97.9549C310.656 97.9549 317.715 89.8973 323.196 97.3438C328.676 104.79 331.406 113.286 331.406 113.286L318.474 119.454L310.656 97.9549Z" fill="#9CD3C0"/>
<path d="M293.035 149.765C293.035 149.765 322.184 132.982 328.128 135.952L339.348 149.852L349.886 150.132L395.816 145.343L418.595 159.259L408.928 170.526L393.241 162.886L369.957 171.121C369.957 171.121 378.45 172.104 378.72 177.834L396.796 187.16L384.134 199.058L359.538 186.259C359.538 186.259 317.394 183.753 304.313 169.53C291.232 155.306 293.035 149.765 293.035 149.765Z" fill="#2F2E41"/>
<path d="M301.767 83.2494L303.677 79.3276C303.677 79.3276 318.097 66.1207 322.283 70.3991L322.762 76.0069C322.762 76.0069 325.339 75.6198 324.55 71.8762C323.76 68.1326 325.278 69.7676 325.278 69.7676C325.278 69.7676 328.604 69.2226 326.144 66.4569C323.684 63.6913 323.658 58.3789 315.249 60.7778C310.579 62.1103 304.738 64.9923 300.469 67.2912C295.677 69.8717 294.204 76.2013 297.581 80.4689C298.591 81.7443 299.946 82.7732 301.767 83.2494Z" fill="#2F2E41"/>
<path d="M376.024 157.541C377.841 154.973 376.088 150.607 372.107 147.79C368.126 144.974 363.426 144.772 361.609 147.34C359.791 149.908 361.545 154.274 365.526 157.091C369.507 159.908 374.207 160.109 376.024 157.541Z" fill="#FFB6B6"/>
<path d="M348.2 87.3535L349.49 91.2248H348.2C348.2 91.2248 349.813 99.9353 344.651 101.226C339.489 102.516 334.726 94.2896 334.726 94.2896L332.392 95.4188C332.392 95.4188 334.327 105.097 327.23 106.387C320.132 107.678 317.552 99.2901 317.552 99.2901L300.776 100.581L301.421 95.4188L316.619 96.938C316.619 96.938 316.261 92.8379 325.294 92.1927L338.199 89.6118L348.2 87.3535Z" fill="#2F2E41"/>
<path d="M294.488 107.697L294.081 114.665L316.486 107.438L316.673 114.505L289.92 133.277C289.92 133.277 282.142 122.238 281.222 118.418C280.303 114.598 280.782 108.711 280.782 108.711L294.488 107.697Z" fill="#FFB6B6"/>
<path d="M297.848 96.199C297.848 96.199 289.964 88.4775 285.828 94.8237C281.692 101.17 279.497 112.268 279.497 112.268L295.867 110.537L297.848 96.199Z" fill="#9CD3C0"/>
<path d="M290.732 89.262C292.565 94.1954 292.712 99.7374 291.145 104.761C294.878 104.023 298.001 101.216 299.705 97.8129C301.408 94.4096 301.817 90.4752 301.502 86.6824L301.492 86.5687C300.998 80.8702 304.248 75.4956 309.581 73.4284C313.178 72.0341 316.52 69.9783 319.356 67.3619C320.957 65.8848 322.506 63.9116 322.161 61.7606C321.843 59.7787 320.038 58.4191 318.323 57.3766C314.406 54.9962 310.08 53.0933 305.509 52.7557C300.938 52.4182 296.084 53.8281 292.996 57.2153C289.908 60.6026 289.046 66.1022 291.63 69.8879C290.486 69.9531 289.447 70.8762 289.247 72.005C289.048 73.1337 289.708 74.3571 290.76 74.8105C290.052 74.5981 289.383 75.4297 289.463 76.1651C289.543 76.9006 290.093 77.488 290.63 77.9964C291.396 78.7204 292.252 79.4923 291.92 80.7773C291.787 81.2925 291.473 81.7441 291.064 82.0841C290.072 82.908 288.779 83.0577 287.537 83.1909C289.742 84.5196 291.089 87.1535 290.875 89.7192" fill="#2F2E41"/>
<path d="M321.714 112.649C325.142 109.18 326.106 104.575 323.868 102.364C321.63 100.153 317.037 101.172 313.61 104.641C310.182 108.11 309.218 112.715 311.456 114.926C313.694 117.137 318.287 116.118 321.714 112.649Z" fill="#FFB6B6"/>
<path d="M485.855 6.3248C483.997 7.36837 481 3.24067 480.321 5.2597C479.642 7.27873 481.287 15.4254 482.136 17.3793C482.558 18.3504 483.154 19.2386 483.568 20.2132C483.982 21.1878 484.204 22.3084 483.838 23.302C483.201 25.0311 481.1 25.7346 480.058 27.2544C478.844 29.0245 479.334 31.4086 479.902 33.4784C480.391 35.2624 480.912 37.0626 481.853 38.655C482.794 40.2475 484.213 41.6341 485.986 42.1609C488.244 42.8318 490.657 42.0345 492.834 41.1345C494.926 40.2692 496.996 39.2882 498.776 37.8882C500.556 36.4883 502.041 34.63 502.663 32.4528C503.443 29.7217 502.791 26.733 501.44 24.2346C500.089 21.7362 498.09 19.6548 496.039 17.6897C492.585 14.3801 488.909 11.3019 485.044 8.48267" fill="#2F2E41"/>
<path d="M513.474 146.457L509.602 182.589C509.602 182.589 518.635 201.301 508.957 223.883L508.312 236.788L497.343 235.497L499.924 224.529L494.117 180.008L489.601 147.747L513.474 146.457Z" fill="#FFB6B6"/>
<path d="M482.502 145.811C482.502 145.811 485.083 174.2 479.921 189.04C479.921 189.04 482.502 211.623 475.405 235.496V253.27L463.791 250.981L464.436 184.524L461.21 148.391L482.502 145.811Z" fill="#FFB6B6"/>
<path d="M480.231 36.0789C483.502 40.1991 489.269 41.3931 493.923 38.9406C500.566 35.4399 509.636 31.4277 511.239 34.6337C513.82 39.7954 513.82 44.8048 513.82 44.8048L516.401 104.963C516.401 104.963 517.691 129.252 501.561 127.108C485.43 124.964 460.267 133.997 460.267 133.997L462.837 107.347L469.7 97.299L472.481 68.4715L467.687 45.2798L473.494 42.6989C473.494 42.6989 474.139 38.1824 476.074 38.1824C478.01 38.1824 478.478 33.8437 480.179 36.013L480.231 36.0789Z" fill="#0F7173"/>
<path d="M514.766 103.227L516.056 175.192C516.056 175.192 504.442 193.258 492.183 178.418L485.086 142.585L483.795 184.225C483.795 184.225 466.374 193.258 461.213 186.161L460.89 133.229L472.826 109.034L514.766 103.227Z" fill="#2F2E41"/>
<path d="M508.692 229.184C508.692 229.184 512.828 232.27 511.538 236.141C510.247 240.013 500.569 254.853 492.181 252.917C483.793 250.982 487.664 246.465 487.664 246.465L497.343 232.27C497.343 232.27 501.214 232.915 503.15 234.206C505.085 235.496 508.692 229.184 508.692 229.184Z" fill="#2F2E41"/>
<path d="M475.404 247.756C475.404 247.756 482.501 254.853 478.63 258.079C474.758 261.305 448.304 263.886 448.95 260.015C449.595 256.144 463.144 245.175 463.144 245.175C463.144 245.175 467.016 243.884 468.306 247.11C469.597 250.337 475.404 247.756 475.404 247.756Z" fill="#2F2E41"/>
<path d="M490.492 33.3989C497.934 33.3989 503.967 27.366 503.967 19.9241C503.967 12.4821 497.934 6.44922 490.492 6.44922C483.05 6.44922 477.017 12.4821 477.017 19.9241C477.017 27.366 483.05 33.3989 490.492 33.3989Z" fill="#FFB6B6"/>
<path d="M505.683 41.0259C502.538 45.5123 500.93 51.0555 501.185 56.5285C497.619 54.8011 495.212 51.1516 494.393 47.2749C493.574 43.3983 494.199 39.3278 495.515 35.5906C495.528 35.5533 495.542 35.5159 495.555 35.4786C497.554 29.8691 495.697 23.5997 490.869 20.1127C487.613 17.7606 484.789 14.8097 482.622 11.4273C481.398 9.5177 480.358 7.12228 481.273 5.0467C482.115 3.13414 484.291 2.24024 486.293 1.64212C490.865 0.276348 495.724 -0.500787 500.417 0.363433C505.11 1.22765 509.628 3.92651 511.846 8.15169C514.064 12.3769 513.483 18.1432 509.882 21.2754C511.018 21.6425 511.821 22.8461 511.725 24.0355C511.628 25.2249 510.642 26.2833 509.462 26.4627C510.232 26.4354 510.686 27.4492 510.411 28.1688C510.137 28.8885 509.429 29.3355 508.754 29.7059C507.792 30.2335 506.726 30.7852 506.722 32.1669C506.72 32.7209 506.917 33.2586 507.24 33.7089C508.022 34.8001 509.285 35.2915 510.501 35.7528C507.93 36.5101 505.879 38.8083 505.419 41.4489" fill="#2F2E41"/>
<path d="M501.733 116.828C498.772 119.026 495.238 119.281 493.839 117.396C492.44 115.512 493.707 112.203 496.669 110.004C497.84 109.109 499.208 108.508 500.659 108.251L513.322 99.0938L517.492 105.127L504.566 113.514C503.9 114.829 502.929 115.965 501.733 116.828Z" fill="#FFB6B6"/>
<path d="M509.711 42.2539C509.711 42.2539 519.925 42.5765 521.861 49.6739C523.797 56.7713 527.668 71.8992 527.023 92.9037C527.023 92.9037 530.249 106.453 521.861 105.808L510.247 110.97L502.504 100.646L508.957 92.9037L509.711 42.2539Z" fill="#0F7173"/>
<path d="M222.96 210.881L213.304 190.002L202.591 195.389L208.61 214.261L219.354 219.51L222.96 210.881Z" fill="#FFB6B6"/>
<path d="M146.746 151.138C147.606 151.525 150.222 153.087 153.439 152.56C155.634 152.2 157.109 151.031 157.597 150.666C163.646 146.136 182.075 142.259 195.877 146.508C199.002 147.471 200.903 148.546 202.405 150.159C204.535 152.447 204.887 154.767 206.583 160.512C207.511 163.655 208.683 166.721 209.638 169.855C215.231 188.204 218.9 190.789 216.832 195.303C214.537 200.312 207.22 203.243 203.713 201.362C202.277 200.592 202.063 199.328 200.792 196.472C197.064 188.097 194.193 188.383 191.659 182.082C188.701 174.726 190.994 170.309 188.479 169.215C186.145 168.201 183.724 171.805 176.751 175.262C173.561 176.843 171.505 177.359 165.189 179.08C140.593 185.781 139.937 186.631 135.566 186.312C133.653 186.172 120.079 185.18 117.584 178.221C113.68 167.33 138.995 147.644 146.746 151.138Z" fill="#2F2E41"/>
<path d="M217.088 212.745C218.379 212.64 219.89 212.516 220.786 211.319C221.392 210.509 221.626 209.329 221.315 208.346C220.956 207.211 219.996 206.738 220.093 206.594C220.24 206.375 222.574 207.308 224.848 209.148C225.277 209.495 227.212 211.095 229.256 214.303C230.895 216.874 230.464 217.12 231.523 218.643C234.774 223.317 239.737 222.299 241.056 226.07C241.565 227.525 241.383 229.271 240.539 230.435C238.845 232.774 234.785 232.347 232.575 232.086C227.255 231.459 223.85 229.226 220.19 227.19C207.743 220.27 199.586 219.666 199.677 216.246C199.695 215.599 199.983 215.757 202.513 211.859C205.01 208.013 205.386 206.846 206.363 206.814C207.834 206.765 207.884 209.377 210.858 211.318C213.493 213.039 216.251 212.814 217.088 212.745Z" fill="#2F2E41"/>
<path d="M179.327 252.071L183.061 229.372L171.172 227.814L165.555 246.81L171.498 257.186L179.327 252.071Z" fill="#FFB6B6"/>
<path d="M148.521 159.84C149.015 160.644 150.303 163.406 153.261 164.776C155.279 165.711 157.156 165.572 157.765 165.544C165.314 165.191 182.741 172.332 191.774 183.599C193.82 186.15 194.789 188.107 195.126 190.286C195.604 193.375 194.592 195.492 192.77 201.198C191.773 204.32 191.021 207.515 190.051 210.645C184.376 228.968 185.96 233.167 181.714 235.741C177.002 238.597 169.302 236.913 167.456 233.388C166.7 231.945 167.233 230.779 167.785 227.701C169.403 218.679 166.867 217.303 168.308 210.666C169.991 202.918 174.369 200.551 172.902 198.233C171.541 196.084 167.513 197.707 159.803 196.651C156.274 196.168 154.284 195.441 148.091 193.318C123.977 185.051 122.956 185.387 119.519 182.668C118.015 181.478 106.983 172.933 109.183 165.875C119.274 133.504 144.069 152.598 148.521 159.84Z" fill="#2F2E41"/>
<path d="M172.131 250.313C173.259 250.951 174.578 251.697 175.991 251.21C176.948 250.88 177.805 250.035 178.099 249.047C178.439 247.906 177.91 246.976 178.071 246.911C178.316 246.812 179.724 248.895 180.572 251.694C180.732 252.223 181.435 254.632 181.325 258.435C181.237 261.482 180.743 261.445 180.764 263.299C180.829 268.992 185.507 270.937 184.481 274.798C184.085 276.288 182.954 277.63 181.602 278.12C178.887 279.103 175.767 276.47 174.085 275.014C170.035 271.507 168.472 267.747 166.586 264.008C160.174 251.292 153.763 246.212 155.758 243.434C156.136 242.908 156.286 243.201 160.568 241.396C164.795 239.615 165.761 238.861 166.587 239.383C167.832 240.168 166.407 242.358 167.777 245.635C168.992 248.538 171.4 249.9 172.131 250.313Z" fill="#2F2E41"/>
<path d="M137.401 51.8645L153.988 50.6797L159.122 58.9731L174.524 63.3173L168.798 103.402L173.05 146.067C173.05 146.067 152.803 160.074 151.224 166.393C149.644 172.712 110.941 160.074 110.941 160.074L124.171 119.199L122.986 87.2103L119.432 68.6488L135.624 61.1452L137.401 51.8645Z" fill="#3F3D56"/>
<path d="M129.895 63.7118C129.895 63.7118 116.678 63.5144 114.894 69.0433C113.111 74.5723 107.187 112.88 107.187 112.88L102.645 129.664L122.984 119.594L118.64 112.891L132.857 85.6302L129.895 63.7118Z" fill="#3F3D56"/>
<path d="M137.982 125.125C140.167 125.127 142.199 123.868 143.049 121.854C143.691 120.331 143.63 118.87 143.15 117.618C143.304 117.554 143.458 117.487 143.616 117.43C143.383 117.336 143.157 117.229 142.931 117.123C142.144 115.554 140.635 114.415 138.837 114.138C136.61 111.753 135.241 108.557 135.227 105.039C135.198 97.7897 141.079 91.7341 148.326 91.5602C148.383 91.5589 148.44 91.5579 148.497 91.5572C151.743 91.5198 154.687 93.3353 156.331 96.1335C157.29 97.7663 159.063 98.8624 161.095 98.8624C162.65 98.8624 164.053 98.2195 165.056 97.1853C167.24 94.9321 169.976 93.2556 173.072 92.7413C175.106 92.4035 177.21 92.2761 179.363 92.3831C194.102 93.1158 206.782 106.179 207.097 120.932C207.447 137.364 194.232 150.795 177.879 150.795C169.37 150.795 161.714 147.156 156.375 141.352C154.005 138.775 150.683 137.331 147.182 137.367C147.146 137.367 147.111 137.368 147.075 137.368C141.404 137.368 136.807 132.77 136.807 127.1C136.807 126.785 136.822 126.474 136.852 126.168C136.907 125.594 137.406 125.124 137.982 125.125Z" fill="#FDA98B"/>
<path d="M186.567 116.435L88.2304 97.873L87.8354 104.982L185.382 128.282L186.567 116.435Z" fill="#FDA98B"/>
<path d="M89.4149 99.0571L88.2301 97.8723C88.2301 97.8723 83.0961 95.5028 83.0961 95.1078C83.0961 94.8606 75.5149 92.2927 69.8428 90.406C66.6751 89.3523 63.3297 91.4374 62.8787 94.7452L62.1679 99.9576C61.7429 103.074 64.0945 105.88 67.2375 106.005L81.1215 106.561L87.8352 104.981L89.4149 99.0571Z" fill="#FDA98B"/>
<path d="M186.369 118.608L186.604 117.624L88.2046 98.8125L88.033 100.047L186.369 118.608Z" fill="#3F3D56"/>
<path d="M186.144 120.476L186.369 119.398L88.0976 100.76L88.033 102.021L186.144 120.476Z" fill="#3F3D56"/>
<path d="M185.923 122.715L185.979 120.978L88.0244 102.178L88.037 103.206L185.923 122.715Z" fill="#3F3D56"/>
<path d="M185.655 125.314L185.578 123.741L87.8763 103.594L87.7922 103.979L185.655 125.314Z" fill="#3F3D56"/>
<path d="M185.656 126.891L185.581 125.716L88.026 104.246L87.9385 104.631L185.656 126.891Z" fill="#3F3D56"/>
<path d="M129.148 61.1957L134.041 58.4863L136.163 101.824L135.423 107.155C135.423 107.155 123.07 73.0926 129.148 61.1957Z" fill="#3F3D56"/>
<path d="M147.182 47.7178C153.943 47.7178 159.424 42.2366 159.424 35.4751C159.424 28.7137 153.943 23.2324 147.182 23.2324C140.42 23.2324 134.939 28.7137 134.939 35.4751C134.939 42.2366 140.42 47.7178 147.182 47.7178Z" fill="#FFB6B6"/>
<path d="M135.423 42.7817L138.35 45.1181L135.028 32.5136C135.028 32.5136 144.309 32.3161 145.099 27.1821C145.099 27.1821 152.405 26.9846 154.38 26.9846C156.354 26.9846 157.245 40.0505 157.245 40.0505C157.245 40.0505 161.093 29.3542 157.144 23.8252C153.195 18.2963 154.577 21.6531 153.787 19.6785C152.997 17.7039 144.901 15.8878 139.767 17.9013C134.633 19.9148 134.436 22.785 132.856 22.8115C131.277 22.8379 125.748 30.7364 130.882 37.0552C136.016 43.374 135.423 42.7817 135.423 42.7817Z" fill="#2F2E41"/>
<path d="M174.116 123.123C175.568 121.965 176.637 120.576 177.24 119.202L191.76 109.045L186.725 102.277L172.537 113.309C171.064 113.592 169.472 114.326 168.021 115.484C164.706 118.129 163.383 121.983 165.066 124.093C166.75 126.202 170.801 125.768 174.116 123.123Z" fill="#FFB6B6"/>
<path d="M118.488 107.672C117.411 109.184 116.765 110.814 116.563 112.3L105.396 126.059L112.099 131.181L122.705 116.673C124.043 115.996 125.372 114.852 126.449 113.34C128.909 109.885 129.121 105.816 126.922 104.251C124.724 102.685 120.948 104.217 118.488 107.672Z" fill="#FFB6B6"/>
<path d="M168.201 65.8842C168.201 65.8842 171.755 59.9603 175.309 63.5146C178.122 66.3272 193.546 84.2241 199.861 91.5717C201.603 93.598 202.559 96.1797 202.559 98.8516C202.559 102.984 200.277 106.78 196.627 108.718L176.889 119.199L171.36 110.906L188.342 98.663L162.277 84.4457L168.201 65.8842Z" fill="#3F3D56"/>
<path d="M105.789 120.474L102.645 129.664L111.729 134.403L118.64 129.664L122.984 119.594L110.149 115.842" fill="#3F3D56"/>
<path d="M448.227 35.8141C447.86 31.9561 449.552 28.6392 452.008 28.4056C454.463 28.172 456.751 31.1099 457.118 34.9692C457.286 36.5089 457.082 38.0664 456.525 39.5113L457.877 55.8773L450.183 56.3478L449.667 40.164C448.847 38.8498 448.353 37.3582 448.227 35.8141Z" fill="#FFB6B6"/>
<path d="M490.144 43.5757C490.144 43.5757 477.574 36.182 474.987 37.2911C472.399 38.4002 459.83 57.2541 459.83 57.2541L458.674 53.8134L449.848 54.6663C449.848 54.6663 444.672 78.6958 456.133 76.4777C467.593 74.2596 486.447 53.5572 486.447 53.5572L490.144 43.5757Z" fill="#0F7173"/>
<path d="M430.096 46.2754L447.474 42.2354L448.719 45.8454L457.126 43.5747L462.671 42.0763L468.056 31.6149L464.235 20.5402L452.857 20.4336L449.378 21.1177L439.673 23.0267C438.852 24.3857 439.3 26.1542 440.671 26.957L441.12 27.2204L427.466 29.5846C427.466 29.5846 423.105 37.3464 430.096 46.2754Z" fill="#3F3D56"/>
<path d="M449.379 21.1177L457.127 43.5747L462.671 42.0763L468.057 31.6149L464.236 20.5402L452.858 20.4336L449.379 21.1177Z" fill="#2F2E41"/>
<path d="M446.436 22.0535C447.632 21.7887 448.494 21.0893 448.362 20.4912C448.23 19.8932 447.153 19.623 445.957 19.8878C444.761 20.1525 443.898 20.852 444.031 21.45C444.163 22.0481 445.24 22.3182 446.436 22.0535Z" fill="#3F3D56"/>
</svg>
