<svg xmlns="http://www.w3.org/2000/svg" width="159" height="159" fill="none" viewBox="0 0 159 159"><path fill="#F2F2F2" d="M4.57764e-05 79.5C-0.00978088 88.1932 1.40858 96.8289 4.19849 105.062C4.35844 105.533 4.52231 106.002 4.69008 106.469C7.64449 114.639 11.9167 122.271 17.3372 129.06C18.9554 131.09 20.67 133.036 22.4811 134.898C24.2922 136.763 26.1935 138.538 28.1849 140.221C39.2929 149.641 52.7863 155.811 67.1775 158.05H67.1799C69.0145 158.334 70.8671 158.556 72.7378 158.715C74.9652 158.903 77.2193 158.998 79.5 159C90.1062 159.014 100.607 156.898 110.381 152.779C120.155 148.66 129.002 142.622 136.399 135.021C136.919 134.489 137.431 133.95 137.935 133.402C139.191 132.04 140.399 130.636 141.559 129.19C142.211 128.376 142.847 127.55 143.467 126.711C147.287 121.55 150.465 115.944 152.932 110.016C153.983 107.491 154.902 104.913 155.684 102.292C155.74 102.106 155.794 101.92 155.848 101.734C155.966 101.334 156.079 100.932 156.189 100.527C158.06 93.6751 159.006 86.6031 159 79.5C159 35.5939 123.406 0 79.5 0C35.5939 0 4.57764e-05 35.5939 4.57764e-05 79.5Z"/><path fill="#2F2E41" d="M58 151L59.6137 156.702C62.188 157.375 64.7943 157.918 67.4228 158.33H67.4251C69.2653 158.616 71.1236 158.84 73 159L67.7507 151.469L67.0052 151.403L58 151Z"/><path fill="#CCC" d="M17 129C18.6284 131.043 20.3538 133.002 22.1762 134.877L28.4198 134.882L61.9975 134.92L68.0423 134.927L72.0612 134.931L78.0397 134.936L82.6384 134.941L91.1328 134.95L96.1433 134.957L106.694 134.967L111.731 134.974L125.688 134.988L134.455 134.998L136.807 135C137.33 134.465 137.845 133.922 138.353 133.371C139.617 132 140.832 130.586 142 129.13L137.129 129.125L133.811 129.123L126.128 129.114L111.303 129.099L106.292 129.095L104.266 129.092H104.259L102.669 129.09L101.956 129.088L100.131 129.085H99.3598L93.9493 129.08L82.2786 129.066L77.1427 129.062L72.2245 129.057L67.6139 129.052L60.9987 129.045L25.6672 129.009L17 129Z"/><path fill="#3F3D56" d="M101.5 133C99.0147 133 97 132.328 97 131.5C97 130.672 99.0147 130 101.5 130C103.985 130 106 130.672 106 131.5C106 132.328 103.985 133 101.5 133Z"/><path fill="#3F3D56" d="M101.5 132C99.0147 132 97 131.328 97 130.5C97 129.672 99.0147 129 101.5 129C103.985 129 106 129.672 106 130.5C106 131.328 103.985 132 101.5 132Z"/><path fill="#3F3D56" d="M101.815 131L101.15 130.99L101.333 118.034C101.36 115.92 100.854 113.836 99.8665 111.989C98.8788 110.143 97.4437 108.599 95.7045 107.511L83 99.5956L83.3415 99L96.046 106.916C97.8854 108.066 99.4031 109.699 100.448 111.652C101.492 113.605 102.027 115.809 101.999 118.044L101.815 131Z"/><path fill="#0F7173" d="M85 104.179C85 105.185 84.1046 106 83 106C81.8954 106 81 105.185 81 104.179V92.8214C81 91.8155 81.8954 91 83 91C84.1046 91 85 91.8155 85 92.8214V104.179Z"/><path fill="#FFB6B6" d="M83.007 74.0737L64.7331 96.1743L49.1528 103L45 94.7385C48.8098 90.0994 61.2409 84.5312 61.2409 84.5312L78.1205 69.0362C78.1508 68.9222 78.1833 68.8083 78.2237 68.6953C78.4605 68.0323 78.8603 67.443 79.3847 66.9843C79.909 66.5256 80.5401 66.2131 81.2169 66.077C81.8937 65.9409 82.5934 65.9858 83.2483 66.2073C83.9032 66.4288 84.4913 66.8194 84.9555 67.3415C85.4198 67.8635 85.7447 68.4993 85.8987 69.1874C86.0528 69.8755 86.0308 70.5927 85.8349 71.2695C85.6389 71.9464 85.2758 72.5601 84.7804 73.0513C84.285 73.5425 83.6742 73.8946 83.007 74.0737Z"/><path fill="#0F7173" d="M45.9963 93L50 103.291L49.996 103.331C49.5969 107.284 43.4447 110.945 38.3539 113.32C36.6747 114.101 34.7624 114.214 33.0038 113.634C31.2452 113.055 29.7713 111.826 28.8803 110.197C28.2311 108.991 27.9308 107.627 28.0134 106.259C28.096 104.891 28.5582 103.573 29.3478 102.454L33.3898 96.7717L45.9963 93Z"/><path fill="#0F7173" d="M22.6291 112.541L24.8099 120.282L26.0839 129.228L26.4769 131.979L26.4864 132.037L28.9088 134.307L28.8377 135.019L28.6483 136.918L28.3334 140.299C39.5177 149.648 53.1012 155.773 67.5884 157.999C67.5908 158.001 67.5908 157.999 67.5908 157.999C69.5254 157.453 71.0432 156.859 71.6541 156.427C71.8957 156.259 72.0046 156.11 71.9999 155.958C71.9738 154.947 69.0637 151.318 68.6232 150.774L67.4677 146.057L65.1093 145.133L65.6918 141.814L62.5377 138.531L62.4477 135.152L62.4312 135.057L61.4319 129.263L59.4381 117.725L59.2345 116.544L59.4192 107.432L59.4737 104.672L59.5376 101.524C59.5544 100.715 59.4941 99.9059 59.3576 99.1076C59.2566 98.5063 59.111 97.9131 58.9219 97.3329C58.3965 95.717 57.5529 94.2193 56.4396 92.9254C55.3263 91.6316 53.965 90.5671 52.4339 89.7928C52.3131 89.7321 52.1923 89.6737 52.0692 89.6154C52.0692 89.6154 52.0692 89.613 52.0668 89.6154C51.1197 89.1739 50.1219 88.8469 49.0951 88.6416L48.7968 88.1186L45.8748 83L36.9194 83.2265L31.5774 91.4718L27.1186 95.8361C24.935 97.9776 23.3683 100.653 22.5793 103.589C21.7904 106.525 21.8075 109.614 22.6291 112.541Z"/><path fill="#FFB6B6" d="M42 80C35.3726 80 30 74.8513 30 68.5C30 62.1487 35.3726 57 42 57C48.6274 57 54 62.1487 54 68.5C54 74.8513 48.6274 80 42 80Z"/><path fill="#2F2E41" d="M43.4452 79.9919C41.6016 80.0203 39.759 79.8933 37.9374 79.6123C36.1319 79.2501 32.0926 76.3304 30.9666 74.5735C30.13 73.2681 29.595 71.2297 29.2935 69.7496C28.8874 67.791 28.9029 65.7701 29.3389 63.8178C29.775 61.8655 30.6219 60.0252 31.8248 58.4163C32.2872 57.7433 32.9253 57.2061 33.6717 56.8614C33.7379 56.8359 33.806 56.8133 33.8748 56.794C34.9624 56.5117 35.9398 55.9152 36.6813 55.081C36.825 54.9123 36.981 54.7541 37.1478 54.6074C37.9859 53.9098 38.9794 53.4178 40.0472 53.1714C41.7707 52.7164 44.2651 53.1681 47.4608 54.5151C49.0663 55.1919 50.8222 54.947 52.1729 54.6579C52.2487 54.6435 52.327 54.6489 52.4 54.6736C52.473 54.6982 52.5382 54.7413 52.5891 54.7986C53.1638 55.3307 53.9214 55.6286 54.7096 55.6323C55.1924 55.6533 55.699 56.3126 56.3112 57.1725C56.4502 57.3677 56.6123 57.5955 56.7292 57.7341L56.7449 57.4679L57.018 57.7648C57.4473 58.2316 57.7498 58.7979 57.8975 59.411C58.0452 60.0241 58.0331 60.6641 57.8625 61.2714C57.6919 61.8787 57.3682 62.4336 56.9217 62.8843C56.4752 63.335 55.9202 63.6669 55.3086 63.8491C54.823 63.9766 54.3254 64.0548 53.8236 64.0826C53.5197 64.1095 53.2053 64.1374 52.904 64.189C51.937 64.3843 51.0379 64.8236 50.2945 65.464C49.551 66.1044 48.9886 66.924 48.6622 67.8427C48.585 68.0551 48.4593 68.2471 48.2949 68.404C48.1306 68.5609 47.9318 68.6784 47.7141 68.7475C47.4963 68.8166 47.2654 68.8354 47.0391 68.8025C46.8128 68.7695 46.5972 68.6858 46.409 68.5576C46.0951 68.3166 45.7268 68.1539 45.3355 68.0837C44.9442 68.0134 44.5414 68.0375 44.1615 68.1539C43.8333 68.334 43.5778 68.6199 43.4378 68.9637C43.2677 69.3467 42.9859 69.6711 42.6281 69.8954C41.4046 70.5177 41.3202 73.2742 41.7597 75.5722C42.1833 77.7872 43.0206 79.3896 43.7959 79.4688C44.3928 79.5297 44.461 79.5715 44.5042 79.6756L44.5428 79.7688L44.4758 79.856C44.1462 79.9739 43.7946 80.0202 43.4452 79.9919Z"/><path fill="#FFB6B6" d="M51 112.656L55.5376 104C62.1239 104.43 75.1959 111.717 75.1959 111.717L99.9285 116.734C100.661 116.465 101.455 116.385 102.23 116.502C103.006 116.62 103.735 116.93 104.345 117.403C104.955 117.876 105.424 118.494 105.704 119.196C105.985 119.897 106.068 120.657 105.944 121.398C105.821 122.14 105.495 122.837 105 123.42C104.505 124.003 103.858 124.451 103.125 124.719C102.392 124.987 101.597 125.065 100.822 124.946C100.047 124.827 99.319 124.514 98.7103 124.04L67.2489 121.882L51 112.656Z"/><path fill="#0F7173" d="M52.8811 114L41.3205 105.085L39.2841 97.4703C38.8896 95.9738 38.9063 94.3927 39.3323 92.9056C39.7583 91.4185 40.5766 90.0846 41.6949 89.0548C43.2197 87.6694 45.1947 86.9365 47.2204 87.0043C49.2462 87.0721 51.1715 87.9356 52.6071 89.4201C56.9576 93.9261 61.9196 100.212 60.8537 104.571L60.8429 104.615L52.8811 114Z"/><path fill="#fff" d="M139.329 102.24C139.343 102.262 139.357 102.284 139.373 102.309C139.833 102.277 140.294 102.276 140.755 102.306C141.017 102.323 141.28 102.35 141.542 102.387C141.872 102.436 142.18 102.59 142.427 102.829C142.673 103.068 142.846 103.38 142.922 103.725C142.999 104.07 142.976 104.432 142.856 104.763C142.737 105.094 142.526 105.378 142.252 105.58L142.224 105.599C142.203 105.614 142.187 105.626 142.167 105.641C145.231 108.536 149.209 110.091 153.305 109.996C154.335 107.364 155.235 104.676 156 101.943C154.748 100.692 153.215 99.8046 151.548 99.366C148.208 98.5078 144.481 99.4763 141.139 99.1232C139.532 98.954 138.415 100.82 139.329 102.24Z"/><path fill="#fff" d="M135.206 76.096C135.215 76.1224 135.225 76.1512 135.237 76.18C135.509 76.1969 135.78 76.2257 136.052 76.2617C136.394 76.3096 136.712 76.4602 136.967 76.6939C137.222 76.9276 137.401 77.2334 137.48 77.5712C137.56 77.909 137.536 78.2631 137.412 78.5871C137.288 78.9111 137.07 79.1899 136.787 79.3868L136.758 79.4084C137.208 80.1492 137.713 80.8543 138.269 81.5175C139.843 83.3615 141.778 84.858 143.953 85.9133C146.128 86.9686 148.495 87.5598 150.908 87.65C151.065 87.6548 151.218 87.6596 151.372 87.6596C151.774 91.2824 152.643 94.837 153.957 98.2335C154.455 99.5188 155.022 100.776 155.654 102C155.774 101.592 155.889 101.181 156 100.768C155.971 100.712 155.945 100.66 155.919 100.604C155.289 99.2941 154.733 97.9492 154.252 96.5761C153.859 95.4495 153.516 94.3085 153.223 93.1531C151.638 86.878 151.553 80.3136 152.975 73.9989C154.261 72.1871 154.964 70.0217 154.992 67.7944C155.003 66.9925 154.899 66.1931 154.684 65.4211C154.5 65.5436 154.307 65.6589 154.117 65.767C154.057 65.8007 153.995 65.8343 153.933 65.8679L153.912 65.8799C153.7 65.9954 153.459 66.0467 153.219 66.0276C152.979 66.0085 152.75 65.9199 152.558 65.7724C152.367 65.6249 152.222 65.4248 152.141 65.1963C152.06 64.9677 152.047 64.7205 152.102 64.4843C152.135 64.3378 152.171 64.1913 152.205 64.0447C152.257 63.8189 152.312 63.5931 152.362 63.3673C152.37 63.3448 152.377 63.3215 152.381 63.2977C152.441 63.0407 152.503 62.786 152.562 62.529C152.087 62.2364 151.551 62.0588 150.996 62.0102C149.086 61.8564 147.322 63.4682 146.9 65.3491C146.471 67.2323 147.184 69.2356 148.371 70.7489C149.389 72.0437 150.726 73.0357 152.119 73.9197C152.088 74.0638 152.052 74.2055 152.021 74.3473C151.465 76.9803 151.164 79.6617 151.125 82.3534C150.276 79.8024 148.438 77.1289 146.774 75.6372C144.878 73.9389 142.38 72.9468 140.053 71.8131C137.261 70.4511 134.166 73.1486 135.206 76.096Z"/><path fill="#fff" d="M9.16101 113.266C8.78306 113.759 8.39153 114.249 8 114.742C9.34867 117.587 10.8648 120.345 12.5399 123C12.6644 122.909 12.7889 122.819 12.9133 122.728C12.933 122.717 12.9519 122.705 12.9699 122.691C13.4339 122.351 13.9001 122.017 14.364 121.677V121.675C14.7468 120.337 14.9605 118.954 15 117.56C14.7607 117.503 14.5441 117.373 14.3795 117.186C14.2149 116.999 14.1104 116.764 14.08 116.514C14.0496 116.264 14.0948 116.01 14.2096 115.787C14.3244 115.564 14.5032 115.383 14.7216 115.268C14.7827 115.158 14.8257 115.079 14.8868 114.968C14.8846 114.94 14.8801 114.91 14.8778 114.882C14.5225 111.978 10.9195 110.964 9.16101 113.266Z"/><path fill="#fff" d="M4.78882 102.28C4.50504 103.047 4.24646 103.824 4.01313 104.609C4.17395 105.074 4.33871 105.538 4.5074 106C4.57125 105.756 4.63747 105.511 4.70606 105.267C5.09074 103.909 5.55262 102.573 6.08952 101.265C6.52939 100.193 7.01656 99.1425 7.55103 98.1149C10.4573 92.5322 14.6687 87.7079 19.8391 84.0384C21.9758 83.5522 23.9097 82.4332 25.38 80.8322C25.9104 80.2569 26.354 79.6097 26.6973 78.9103C26.4797 78.8801 26.2622 78.8382 26.0493 78.794C25.9831 78.78 25.9145 78.7637 25.8483 78.7498L25.8223 78.7451C25.5896 78.692 25.3775 78.574 25.2114 78.4051C25.0453 78.2362 24.9324 78.0237 24.8862 77.7931C24.8399 77.5626 24.8624 77.3238 24.9509 77.1055C25.0393 76.8872 25.19 76.6987 25.3848 76.5627C25.5054 76.4766 25.6284 76.3928 25.749 76.3091C25.9334 76.1765 26.1203 76.0508 26.3071 75.9205C26.3268 75.9085 26.3457 75.8952 26.3638 75.881C26.5767 75.7321 26.7895 75.5878 27 75.4366C26.8367 74.9181 26.5543 74.4436 26.1747 74.0499C24.8527 72.7074 22.4925 72.7376 20.9506 73.8312C19.4063 74.9247 18.6306 76.8396 18.5313 78.7056C18.4438 80.304 18.7938 81.8862 19.2549 83.4288C19.1391 83.5125 19.0185 83.5916 18.9026 83.6777C16.7735 85.2302 14.8043 86.9844 13.0234 88.9151C14.0522 86.514 14.4258 83.3822 14.1586 81.2254C13.8535 78.7684 12.6403 76.4347 11.647 74.1104C10.4575 71.3183 6.39932 71.2811 5.2547 74.0917C5.24288 74.1197 5.23106 74.1453 5.22161 74.1732C5.41316 74.3616 5.59762 74.5571 5.77498 74.7595C5.99768 75.0146 6.1369 75.3298 6.17441 75.6641C6.21192 75.9983 6.14597 76.3358 5.9852 76.6326C5.82444 76.9293 5.57635 77.1713 5.27342 77.327C4.97049 77.4827 4.62684 77.5447 4.28746 77.505L4.25199 77.5004C4.1045 78.3298 4.0207 79.169 4.00131 80.0109C3.97196 82.3661 4.43742 84.702 5.36852 86.872C6.29961 89.042 7.67627 90.9994 9.41221 92.6215C9.52572 92.7262 9.63688 92.8286 9.75275 92.9287C8.65721 94.4614 7.67331 96.0685 6.80845 97.7379C6.04073 99.2094 5.36624 100.726 4.78882 102.28Z"/></svg>