<svg width="169" height="150" viewBox="0 0 169 150" fill="none" xmlns="http://www.w3.org/2000/svg">
  <g clip-path="url(#clip0_120_960)">
    <path d="M154.113 51.3164C154.269 52.1892 154.416 53.0664 154.552 53.948H108.143V51.3164H154.113Z" fill="#E6E6E6"/>
    <path d="M151.826 44.8509C150.876 42.032 149.769 39.2747 148.509 36.5932C148.122 35.7665 147.719 34.948 147.302 34.1378C147.233 33.9988 147.16 33.8597 147.087 33.7207V51.9937H152.185V45.9383L151.826 44.8509Z" fill="#E6E6E6"/>
    <path d="M148.509 36.5941H147.087V34.1387H147.302C147.72 34.948 148.122 35.7665 148.509 36.5941Z" fill="#CCCCCC"/>
    <path d="M151.826 44.8516H147.087V47.307H152.185V45.939L151.826 44.8516Z" fill="#CCCCCC"/>
    <path d="M144.326 30.7891H139.228V51.9927H144.326V30.7891Z" fill="#E6E6E6"/>
    <path d="M144.326 34.1387H139.228V36.5938H144.326V34.1387Z" fill="#CCCCCC"/>
    <path d="M144.326 44.8516H139.228V47.3067H144.326V44.8516Z" fill="#CCCCCC"/>
    <path d="M134.096 30.666H115.81C115.528 30.6665 115.258 30.7843 115.058 30.9937C114.859 31.2032 114.747 31.4871 114.746 31.7833V50.9997C114.747 51.109 114.762 51.2176 114.791 51.3225C114.858 51.5521 114.992 51.7532 115.176 51.8962C115.359 52.0393 115.581 52.1166 115.81 52.1169H134.096C134.325 52.1167 134.547 52.0393 134.73 51.8963C134.914 51.7532 135.049 51.5521 135.115 51.3225C135.144 51.2177 135.159 51.109 135.16 50.9997V31.7833C135.159 31.4871 135.047 31.2032 134.848 30.9937C134.649 30.7843 134.378 30.6665 134.096 30.666Z" fill="#E6E6E6"/>
    <path d="M132.797 32.0332H117.109C116.827 32.0337 116.557 32.1515 116.358 32.3609C116.158 32.5704 116.046 32.8543 116.046 33.1504V49.6359C116.046 49.932 116.158 50.2159 116.358 50.4254C116.557 50.6348 116.827 50.7526 117.109 50.7531H132.797C133.079 50.7526 133.349 50.6348 133.548 50.4254C133.748 50.2159 133.86 49.932 133.86 49.6359V33.1504C133.86 32.8543 133.748 32.5704 133.548 32.3609C133.349 32.1515 133.079 32.0337 132.797 32.0332Z" fill="white"/>
    <path d="M130.061 34.9082H119.845C119.563 34.9087 119.293 35.0265 119.094 35.2359C118.894 35.4454 118.782 35.7293 118.782 36.0254V46.7608C118.782 47.057 118.894 47.3409 119.094 47.5503C119.293 47.7598 119.563 47.8776 119.845 47.8781H130.061C130.343 47.8765 130.612 47.7583 130.811 47.5491C131.01 47.3399 131.123 47.0567 131.124 46.7608V36.0254C131.124 35.7293 131.012 35.4454 130.812 35.2359C130.613 35.0265 130.343 34.9087 130.061 34.9082Z" fill="#CCCCCC"/>
    <path d="M129.431 44.8674L127.273 40.9399C127.232 40.8644 127.172 40.8018 127.1 40.7582C127.029 40.7146 126.947 40.6917 126.864 40.6917C126.781 40.6917 126.7 40.7146 126.628 40.7582C126.556 40.8018 126.496 40.8644 126.455 40.9399L124.879 43.8078L122.813 40.0471C122.771 39.9716 122.712 39.9089 122.64 39.8654C122.568 39.8218 122.487 39.7988 122.404 39.7988C122.321 39.7988 122.239 39.8218 122.167 39.8654C122.095 39.9089 122.036 39.9716 121.994 40.0471L119.836 43.9746L117.27 48.6469H122.221L121.73 49.5397H131.998L129.431 44.8674Z" fill="white"/>
    <path d="M128.67 38.8259C129.491 38.8259 130.156 38.1264 130.156 37.2635C130.156 36.4007 129.491 35.7012 128.67 35.7012C127.849 35.7012 127.183 36.4007 127.183 37.2635C127.183 38.1264 127.849 38.8259 128.67 38.8259Z" fill="white"/>
    <path d="M156.154 68.6722C156.138 67.7089 156.101 66.7505 156.045 65.7972C156.022 65.3403 155.994 64.886 155.958 64.4316H145.983C145.701 64.4321 145.431 64.5499 145.232 64.7594C145.032 64.9688 144.92 65.2527 144.92 65.5489V84.7653C144.919 84.8532 144.929 84.9409 144.95 85.026C145.006 85.2697 145.138 85.4867 145.326 85.642C145.513 85.7973 145.744 85.882 145.983 85.8826H155.178C155.226 85.5995 155.271 85.3115 155.311 85.026C155.337 84.8572 155.363 84.6859 155.386 84.517C155.443 84.1124 155.497 83.7077 155.547 83.303C155.618 82.7518 155.682 82.1982 155.738 81.642C155.946 79.6484 156.08 77.6332 156.14 75.5965V75.5941C156.161 74.8269 156.172 74.0564 156.173 73.2826V70.3033C156.173 69.7571 156.168 69.2134 156.154 68.6722Z" fill="#E6E6E6"/>
    <path d="M156.155 68.6739C156.138 67.7105 156.102 66.7522 156.046 65.7988H147.283C147.001 65.7993 146.731 65.9171 146.531 66.1266C146.332 66.336 146.22 66.6199 146.219 66.9161V83.4015C146.22 83.6977 146.332 83.9816 146.531 84.191C146.731 84.4004 147.001 84.5183 147.283 84.5187H155.387C155.443 84.114 155.498 83.7094 155.547 83.3047C155.618 82.7535 155.682 82.1998 155.739 81.6437C155.947 79.6501 156.08 77.6349 156.14 75.5982V75.5957C156.162 74.8286 156.173 74.0581 156.173 73.2843V70.305C156.173 69.7588 156.169 69.2151 156.155 68.6739Z" fill="white"/>
    <path d="M156.154 68.6738H150.018C149.736 68.6743 149.466 68.7921 149.267 69.0016C149.068 69.211 148.956 69.4949 148.955 69.7911V80.5265C148.956 80.8226 149.068 81.1065 149.267 81.316C149.466 81.5254 149.736 81.6432 150.018 81.6437H155.738C155.946 79.6501 156.08 77.6349 156.14 75.5982V75.5957C156.161 74.8285 156.172 74.0581 156.173 73.2843V70.305C156.173 69.7588 156.168 69.2151 156.154 68.6738Z" fill="#CCCCCC"/>
    <path d="M156.14 75.5971C156.081 77.633 155.947 79.6481 155.738 81.6426C155.682 82.1987 155.618 82.7524 155.547 83.3036H151.904L152.395 82.4123H147.443L148.955 79.6589L150.009 77.7397L152.168 73.812C152.21 73.7362 152.269 73.6732 152.341 73.6294C152.413 73.5856 152.494 73.5625 152.577 73.5625C152.66 73.5625 152.742 73.5856 152.814 73.6294C152.885 73.6732 152.945 73.7362 152.986 73.812L155.053 77.5734L156.14 75.5971Z" fill="white"/>
    <path d="M138.231 20.0785H95.4456V17.623H136.109C136.832 18.425 137.54 19.2435 138.231 20.0785Z" fill="#E6E6E6"/>
    <path d="M119.526 3.04883C121.269 4.05682 122.969 5.13681 124.624 6.28881V18.2904H119.526V3.04883Z" fill="#E6E6E6"/>
    <path d="M124.623 11.1484H119.526V13.6036H124.623V11.1484Z" fill="#CCCCCC"/>
    <path d="M131.567 12.5963V18.2917H126.469V8.30859C127.657 9.21977 128.819 10.1674 129.954 11.1513C130.497 11.6231 131.035 12.1047 131.567 12.5963Z" fill="#E6E6E6"/>
    <path d="M131.567 12.5953V13.6033H126.469V11.1504H129.954C130.497 11.6221 131.035 12.1038 131.567 12.5953Z" fill="#CCCCCC"/>
    <path d="M113.405 0.312828C114.754 0.950879 116.081 1.63115 117.384 2.35364L116.335 4.57818L112.85 11.9792L111.813 14.179L110.19 17.6225L109.833 18.3798L108.38 17.6225L105.266 16.0013L107.243 11.8005H107.246L108.281 9.60078L111.768 2.19971L112.793 0.024829L112.805 0L113.405 0.312828Z" fill="#E6E6E6"/>
    <path d="M117.373 2.37599L116.335 4.57818L111.768 2.19971L112.794 0.0248275L112.806 0L113.406 0.312826L117.373 2.37599Z" fill="#CCCCCC"/>
    <path d="M108.28 9.60246L107.244 11.8027L111.812 14.1795L112.849 11.9792L108.28 9.60246Z" fill="#CCCCCC"/>
    <path d="M154.99 85.0879C154.958 85.3429 154.923 85.6001 154.886 85.8529C154.822 86.3318 154.751 86.8064 154.675 87.2809H108.143V85.0879H154.99Z" fill="#E6E6E6"/>
    <path d="M136.104 64.4922H131.006V85.6958H136.104V64.4922Z" fill="#E6E6E6"/>
    <path d="M136.104 67.8418H131.006V70.297H136.104V67.8418Z" fill="#CCCCCC"/>
    <path d="M136.104 78.5547H131.006V81.0098H136.104V78.5547Z" fill="#CCCCCC"/>
    <path d="M143.962 64.4922H138.865V85.6958H143.962V64.4922Z" fill="#E6E6E6"/>
    <path d="M143.962 67.8418H138.865V70.297H143.962V67.8418Z" fill="#CCCCCC"/>
    <path d="M143.962 78.5547H138.865V81.0098H143.962V78.5547Z" fill="#CCCCCC"/>
    <path d="M126.614 64.4059L117.661 83.4082L122.229 85.7849L131.182 66.7826L126.614 64.4059Z" fill="#E6E6E6"/>
    <path d="M125.2 67.4052L124.164 69.6055L128.732 71.9822L129.769 69.7819L125.2 67.4052Z" fill="#CCCCCC"/>
    <path d="M120.677 77.0068L119.64 79.207L124.209 81.5838L125.245 79.3835L120.677 77.0068Z" fill="#CCCCCC"/>
    <path d="M69.1781 94.4896C69.3911 94.6184 69.5942 94.7647 69.7854 94.927L90.8198 88.0484L92.0059 82.5645L100.116 83.3638L98.9138 93.2864C98.8167 94.088 98.4748 94.8349 97.9393 95.415C97.4039 95.995 96.7039 96.3768 95.9443 96.5032L71.19 100.622C70.8289 101.541 70.2098 102.324 69.4151 102.865C68.6205 103.406 67.6879 103.68 66.7414 103.65C65.7949 103.621 64.8795 103.289 64.1167 102.7C63.3539 102.11 62.7801 101.291 62.4714 100.35C62.1628 99.4092 62.134 98.3921 62.3889 97.4338C62.6438 96.4755 63.1703 95.6215 63.8983 94.9853C64.6264 94.3491 65.5215 93.9609 66.4647 93.8724C67.4078 93.7838 68.3542 93.9991 69.1781 94.4896Z" fill="#FFB8B8"/>
    <path d="M103.864 86.6532L103.724 84.1506V84.1481L103.687 83.4629L103.276 76.0941C103.399 74.5579 102.937 73.0331 101.993 71.8535C101.048 70.6739 99.6974 69.9356 98.236 69.8003C97.8156 69.7607 97.3922 69.7724 96.9744 69.8351C95.733 70.0195 94.5873 70.6392 93.7232 71.5937C92.859 72.5482 92.327 73.7815 92.2135 75.0935L91.3606 78.8226L89.8698 85.3448C89.7642 85.8011 89.8079 86.2815 89.994 86.7085C90.18 87.1355 90.4975 87.4842 90.8953 87.6984C91.1249 87.8254 91.3763 87.903 91.6347 87.9268L94.1203 88.1602L96.5136 88.3837L99.2755 88.6419L99.4741 88.6592L99.9843 88.7089L101.693 88.8678H101.697C101.983 88.892 102.27 88.8522 102.539 88.7512C102.809 88.6502 103.055 88.4902 103.261 88.2819C103.412 88.1279 103.538 87.9503 103.637 87.7555C103.809 87.4176 103.888 87.0357 103.864 86.6532Z" fill="#0F7173"/>
    <path d="M126.946 56.3074C126.946 64.8046 119.469 63.5194 110.246 63.5194C101.022 63.5194 93.5452 64.8046 93.5452 56.3074C93.5452 47.8101 97.1975 32.748 110.246 32.748C123.743 32.748 126.946 47.8101 126.946 56.3074Z" fill="#2F2E41"/>
    <path d="M118.136 60.0455C122.525 55.4338 122.525 47.9568 118.136 43.3451C113.747 38.7334 106.632 38.7334 102.243 43.3451C97.8548 47.9568 97.8548 55.4338 102.243 60.0455C106.632 64.6572 113.747 64.6572 118.136 60.0455Z" fill="#FFB8B8"/>
    <path d="M126.009 68.4689C125.793 68.2499 125.563 68.0458 125.322 67.8581C123.794 66.6452 121.874 66.1111 119.975 66.3709L99.2661 69.1243C97.3692 69.3718 95.6387 70.3858 94.4412 71.9514C93.2437 73.517 92.6736 75.5111 92.8515 77.511C92.9106 78.2062 92.9768 78.9386 93.05 79.7008C93.1446 80.6566 93.2508 81.6597 93.3737 82.6975C93.5768 84.4428 93.825 86.285 94.1203 88.1595C94.3778 89.7733 94.6708 91.4094 95.0063 93.0257C95.1032 93.4924 95.204 93.9575 95.3087 94.421C95.3085 94.4223 95.3087 94.4237 95.3091 94.425C95.3095 94.4263 95.3102 94.4275 95.3111 94.4284C95.3229 94.4855 95.3346 94.5426 95.3488 94.5973C95.3482 94.6016 95.3491 94.606 95.3513 94.6097C95.4978 95.2552 95.6514 95.8932 95.812 96.5239C95.8734 96.7572 95.9325 96.9881 95.9938 97.2165C96.1593 97.8372 96.3342 98.4455 96.5137 99.0438C97.8627 103.495 99.6465 107.287 102.002 109.303C102.033 109.332 102.064 109.357 102.097 109.384L102.191 109.461L102.328 109.417L102.909 109.236L103.406 109.077L109.87 107.033L111.479 106.524L116.648 104.888H116.651L121.378 103.394L121.955 103.21L126.016 101.926L126.146 100.332L126.321 98.2171L126.425 96.9459L127.247 86.9206L127.727 81.0712L128.247 74.7204C128.343 73.5688 128.192 72.4091 127.805 71.327C127.418 70.245 126.804 69.2682 126.009 68.4689Z" fill="#2F2E41"/>
    <path d="M137.589 116.979C137.534 116.812 137.482 116.646 137.428 116.482C134.999 109.034 131.417 103.401 126.146 100.332C126.144 100.332 126.144 100.329 126.141 100.329L126.052 100.277L121.459 101.948L120.892 102.154L120.301 102.37L120.294 102.373L115.994 103.937L115.987 103.939L112.613 105.166H112.611L109.489 106.3H109.487L108.762 106.566L103.306 108.55L102.673 108.781L102.106 108.987L102.019 109.019L102.002 109.302L101.612 116.482L101.586 116.979L101.1 125.939L87.7834 149.999H95.9939C99.6989 150 103.399 149.704 107.061 149.113L117.435 137.365C117.522 137.27 117.632 137.202 117.753 137.168C117.874 137.135 118.001 137.136 118.121 137.173C118.242 137.21 118.35 137.28 118.435 137.377C118.519 137.474 118.577 137.593 118.602 137.722L119.745 140.569C128.501 135.306 137.463 124.341 139.009 122.587C138.556 120.545 138.169 118.818 137.589 116.979Z" fill="#2F2E41"/>
    <path d="M97.2056 50.538H101.65L103.611 44.7683L104.003 50.538H106.128L107.272 47.1723L107.5 50.538H123.286C123.286 48.8963 122.978 47.2708 122.38 45.7541C121.782 44.2374 120.906 42.8593 119.801 41.6985C118.697 40.5377 117.385 39.6169 115.942 38.9887C114.499 38.3605 112.952 38.0371 111.39 38.0371H109.102C105.947 38.0371 102.921 39.3542 100.69 41.6985C98.4589 44.0429 97.2056 47.2225 97.2056 50.538Z" fill="#2F2E41"/>
    <path d="M69.8662 113.104C69.1405 113.424 68.3568 113.574 67.5703 113.541C66.7838 113.509 66.0136 113.296 65.314 112.917C64.6144 112.538 64.0023 112.003 63.5209 111.348C63.0396 110.694 62.7006 109.936 62.5279 109.13L43.5166 106.867L49.8894 98.8477L66.9658 102.226C68.2751 102.011 69.614 102.308 70.7287 103.061C71.8434 103.814 72.6566 104.97 73.0141 106.311C73.3716 107.652 73.2486 109.084 72.6684 110.336C72.0882 111.588 71.0912 112.573 69.8662 113.104Z" fill="#FFB8B8"/>
    <path d="M59.6161 98.2595L51.5806 96.75L50.9971 96.6407C50.5308 96.5532 50.0873 96.363 49.6959 96.0826C49.3045 95.8021 48.974 95.4379 48.7261 95.0137C48.4782 94.5895 48.3185 94.115 48.2575 93.6214C48.1965 93.1277 48.2356 92.6261 48.3722 92.1495L52.3178 78.3727L52.4359 77.963C52.9285 76.212 52.8408 74.337 52.1871 72.6452C51.5334 70.9533 50.3524 69.5448 48.8376 68.6503C47.8122 68.0519 46.6692 67.7102 45.4977 67.6516C44.3261 67.5931 43.1575 67.8193 42.0827 68.3127C41.0078 68.806 40.0558 69.5533 39.3006 70.4963C38.5454 71.4393 38.0074 72.5527 37.7284 73.7498L32.6959 95.3323L32.5093 96.1318C32.1578 97.6377 32.1195 99.2056 32.3969 100.729C32.6744 102.252 33.2611 103.694 34.117 104.957C34.973 106.22 36.078 107.274 37.3569 108.048C38.6357 108.821 40.0583 109.296 41.5275 109.439C41.544 109.442 41.5582 109.442 41.5748 109.444L44.5872 109.725L48.495 110.09L53.4094 110.549L57.9953 110.979C58.596 111.036 59.1952 110.854 59.674 110.468C60.1528 110.083 60.4762 109.522 60.5801 108.898C60.5871 108.863 60.5918 108.829 60.5966 108.794L61.57 101.157L61.5795 101.087C61.6634 100.441 61.5058 99.7851 61.1398 99.2579C60.7737 98.7307 60.2277 98.3729 59.6161 98.2595Z" fill="#CCCCCC"/>
    <path d="M47.2361 40.3949C44.0284 47.0221 41.5003 53.8574 34.4248 53.8574C31.0271 53.8574 27.7685 52.439 25.3659 49.9143C22.9633 47.3896 21.6135 43.9654 21.6135 40.3949C21.6135 32.9598 27.3498 27.0255 34.4248 26.9325C41.6156 26.8378 53.2066 28.0598 47.2361 40.3949Z" fill="#2F2E41"/>
    <path d="M55.2829 127.092L54.9922 124.043L54.7748 124.055L16.573 125.989L16.6722 129.075L16.8401 134.361C22.7512 139.093 29.3156 142.848 36.3059 145.496L36.5541 143.475C36.5758 143.311 36.6509 143.159 36.7669 143.046C36.8828 142.933 37.0324 142.865 37.1903 142.855C37.3482 142.844 37.5047 142.891 37.6333 142.988C37.7619 143.085 37.8547 143.226 37.896 143.386L38.6497 146.338C44.7391 148.402 51.0627 149.605 57.4541 149.916L55.2829 127.092Z" fill="#2F2E41"/>
    <path d="M43.0016 50.6608C47.3903 46.0491 47.3903 38.572 43.0016 33.9603C38.613 29.3486 31.4976 29.3486 27.1089 33.9603C22.7203 38.572 22.7203 46.0491 27.1089 50.6608C31.4976 55.2725 38.613 55.2725 43.0016 50.6608Z" fill="#FFB8B8"/>
    <path d="M57.4779 124.25L55.2499 116.98L55.212 116.856L55.0986 116.484L54.4631 114.413C54.2575 113.74 54.0614 113.065 53.8795 112.387C53.7117 111.776 53.555 111.164 53.4093 110.55C53.2015 109.696 53.0125 108.838 52.8423 107.978C52.2658 105.085 51.8813 102.155 51.6917 99.2062C51.6397 98.3894 51.6026 97.5709 51.5806 96.7508C51.4422 91.7239 51.8729 86.6975 52.8636 81.7774C53.726 77.5227 53.2654 73.0895 51.5495 69.1307C49.8336 65.1718 46.9533 61.8967 43.3326 59.7877C40.9568 58.4079 38.3272 57.5791 35.6209 57.3571C35.4342 57.3422 35.2476 57.3298 35.0586 57.3174C32.1998 57.1275 29.3369 57.6148 26.6813 58.7433C24.0257 59.8717 21.6452 61.6125 19.7155 63.837C18.6819 65.0201 17.7842 66.3267 17.0409 67.73C14.9784 71.6349 14.2041 76.1474 14.8389 80.5633L17.4945 99.3006L16.8898 107.188L16.1762 116.484L16.1384 116.98L15.3776 126.891C15.3415 127.353 15.448 127.815 15.6812 128.209C15.9143 128.602 16.2619 128.906 16.6723 129.076C16.9127 129.177 17.1694 129.229 17.4284 129.228C17.4663 129.228 17.5017 129.228 17.5395 129.225L55.283 127.092L55.6279 127.073C55.9428 127.055 56.2496 126.962 56.5248 126.801C56.7999 126.639 57.036 126.413 57.2148 126.14C57.3937 125.867 57.5104 125.555 57.556 125.227C57.6016 124.899 57.5749 124.565 57.4779 124.25Z" fill="#CCCCCC"/>
    <path d="M46.9803 35.6362C44.4123 37.4961 41.3643 38.4859 38.2454 38.4728C39.358 39.2834 40.6245 39.831 41.9578 40.0778C37.8111 41.0125 33.5254 41.0378 29.3689 40.1521C28.445 39.9964 27.5535 39.6747 26.7335 39.2009C25.9354 38.6919 25.2678 37.8812 25.1068 36.9149C24.8306 35.2568 26.0601 33.7504 27.3378 32.7352C29.2941 31.2046 31.5497 30.15 33.9414 29.6478C36.3331 29.1455 38.8011 29.2082 41.1669 29.8313C42.7117 30.2509 44.2593 30.9599 45.2627 32.2635C46.2661 33.5672 46.5633 35.577 45.6073 36.9194L46.9803 35.6362Z" fill="#2F2E41"/>
    <path d="M47.5549 110.646C46.836 110.983 46.0556 111.15 45.2686 111.136C44.4816 111.121 43.7072 110.926 42.9999 110.563C42.2927 110.2 41.6697 109.678 41.175 109.035C40.6802 108.392 40.3257 107.642 40.1364 106.84L21.083 105.01L27.2891 96.8477L44.4311 99.8364C45.7357 99.5916 47.0803 99.8582 48.2103 100.586C49.3403 101.313 50.1771 102.451 50.5622 103.783C50.9472 105.116 50.8538 106.55 50.2995 107.815C49.7453 109.08 48.7687 110.087 47.5549 110.646Z" fill="#FFB8B8"/>
    <path d="M37.0031 96.0407L32.696 95.3331L28.351 94.618C27.8831 94.5412 27.4359 94.3612 27.0389 94.0899C26.6418 93.8186 26.3039 93.462 26.0473 93.0437C25.7907 92.6254 25.6212 92.1548 25.55 91.6627C25.4787 91.1707 25.5074 90.6684 25.634 90.1888L29.4048 75.913C29.8611 74.1512 29.7347 72.2787 29.0462 70.6022C28.3577 68.9257 27.148 67.5445 25.6151 66.6847C24.5795 66.1041 23.4295 65.785 22.2562 65.7527C21.0829 65.7204 19.9186 65.9757 18.8555 66.4985C17.7892 67.013 16.8511 67.7806 16.1152 68.7409C15.3792 69.7013 14.8655 70.828 14.6145 72.0325L9.85852 94.5287C9.53813 96.0461 9.5335 97.6184 9.84494 99.138C10.1564 100.657 10.7765 102.088 11.663 103.333C12.5494 104.577 13.6812 105.606 14.9809 106.348C16.2807 107.09 17.7176 107.528 19.1934 107.633L35.6446 108.792C36.2462 108.835 36.8412 108.639 37.3119 108.244C37.7827 107.848 38.0949 107.281 38.1868 106.654C38.1939 106.62 38.1962 106.585 38.2009 106.55L39.0161 98.8933L39.0231 98.8238C39.0934 98.1756 38.9224 97.524 38.5459 97.0052C38.1694 96.4865 37.6166 96.1409 37.0031 96.0407Z" fill="#CCCCCC"/>
    <path d="M109.886 84.1733L108.9 84.7386L96.7528 91.703L95.7669 92.2683C95.2885 92.5434 94.9334 93.0066 94.7796 93.5563C94.6258 94.1061 94.6859 94.6975 94.9465 95.2009L103.992 112.622C104.254 113.124 104.694 113.498 105.218 113.659C105.741 113.821 106.304 113.758 106.783 113.484L106.785 113.482L120.899 105.39L120.901 105.389C121.38 105.114 121.735 104.651 121.889 104.101C122.042 103.551 121.982 102.96 121.722 102.456L112.676 85.0355C112.415 84.5327 111.974 84.1596 111.451 83.998C110.927 83.8364 110.365 83.8994 109.886 84.1733Z" fill="#E6E6E6"/>
    <path d="M110.169 84.7187L109.001 85.3882L97.2182 92.1441L96.0504 92.8137C95.7097 93.0095 95.4569 93.3394 95.3474 93.7309C95.2378 94.1224 95.2806 94.5436 95.4662 94.902L104.512 112.323C104.698 112.681 105.012 112.947 105.385 113.062C105.757 113.177 106.158 113.132 106.499 112.937L106.502 112.935L120.615 104.843L120.618 104.842C120.958 104.646 121.211 104.316 121.321 103.925C121.43 103.533 121.387 103.112 121.202 102.753L112.156 85.3326C111.97 84.9746 111.656 84.7089 111.284 84.5938C110.911 84.4787 110.51 84.5236 110.169 84.7187Z" fill="white"/>
    <path d="M110.501 89.6366C110.457 89.553 110.383 89.4909 110.296 89.464C110.209 89.437 110.115 89.4473 110.035 89.4926L109.565 89.7632L104.771 92.5116C104.692 92.5576 104.633 92.6348 104.608 92.7263C104.582 92.8177 104.592 92.916 104.636 92.9996C104.679 93.0833 104.752 93.1455 104.839 93.1727C104.926 93.1998 105.02 93.1898 105.099 93.1447L110.364 90.1257C110.443 90.0795 110.502 90.0023 110.528 89.9107C110.553 89.8191 110.544 89.7206 110.501 89.6366Z" fill="#E6E6E6"/>
    <path d="M112.294 89.9912C112.272 89.9498 112.243 89.9132 112.209 89.8836C112.174 89.854 112.133 89.832 112.09 89.8189C112.047 89.8057 112.002 89.8017 111.958 89.8069C111.913 89.8122 111.87 89.8267 111.831 89.8497L105.326 93.5788C105.287 93.6014 105.252 93.632 105.224 93.6688C105.196 93.7056 105.175 93.7478 105.162 93.7931C105.15 93.8384 105.146 93.8859 105.15 93.9328C105.155 93.9798 105.169 94.0252 105.19 94.0666C105.212 94.108 105.241 94.1446 105.276 94.1742C105.311 94.2037 105.351 94.2258 105.394 94.239C105.438 94.2523 105.483 94.2565 105.527 94.2514C105.572 94.2463 105.615 94.232 105.655 94.2094L105.957 94.0356L107.85 92.9506H107.852L112.157 90.4803C112.197 90.4579 112.232 90.4275 112.26 90.3907C112.289 90.3539 112.31 90.3115 112.323 90.2659C112.336 90.2204 112.34 90.1727 112.335 90.1255C112.33 90.0783 112.316 90.0327 112.294 89.9912Z" fill="#E6E6E6"/>
    <path d="M105.225 95.9357L103.16 91.9558C103.138 91.9158 103.103 91.8864 103.061 91.8738C103.019 91.8613 102.974 91.8667 102.936 91.8888L101.934 92.4623L101.414 92.7602L98.6237 94.3591L98.0826 94.6694C98.0446 94.692 98.0166 94.7295 98.0046 94.7736C97.9927 94.8178 97.9978 94.8651 98.0188 94.9053L98.1512 95.161L100.084 98.8852C100.105 98.9249 100.14 98.9543 100.182 98.9669C100.223 98.9794 100.268 98.9741 100.306 98.9522L103.637 97.043L104.157 96.745L105.159 96.1715C105.178 96.1607 105.195 96.146 105.209 96.1282C105.222 96.1105 105.232 96.09 105.239 96.0681C105.245 96.0462 105.247 96.0232 105.244 96.0004C105.242 95.9777 105.235 95.9557 105.225 95.9357Z" fill="#E6E6E6"/>
    <path d="M113.111 94.6873C113.068 94.6038 112.995 94.5418 112.908 94.5148C112.821 94.4878 112.728 94.4981 112.648 94.5433L105.508 98.6374C105.445 98.6737 105.395 98.7299 105.364 98.7981C105.333 98.8662 105.323 98.9429 105.336 99.0172C105.341 99.0557 105.353 99.0928 105.371 99.1265C105.389 99.1608 105.412 99.1918 105.44 99.2183L105.442 99.2208C105.495 99.2708 105.561 99.3024 105.632 99.3113C105.703 99.3201 105.774 99.3059 105.837 99.2705L112.977 95.1764C113.016 95.1537 113.051 95.123 113.079 95.086C113.107 95.0491 113.128 95.0067 113.141 94.9613C113.153 94.9158 113.157 94.8682 113.152 94.8212C113.147 94.7742 113.133 94.7287 113.111 94.6873Z" fill="#E6E6E6"/>
    <path d="M114.907 95.0418C114.885 95.0003 114.856 94.9638 114.821 94.9343C114.786 94.9048 114.745 94.8828 114.702 94.8696C114.659 94.8565 114.614 94.8524 114.569 94.8577C114.524 94.8629 114.481 94.8774 114.441 94.9002L106.061 99.7044C105.998 99.7393 105.947 99.7946 105.916 99.862C105.885 99.9295 105.876 100.006 105.889 100.079V100.082C105.894 100.12 105.906 100.157 105.924 100.191C105.942 100.227 105.966 100.258 105.995 100.285C106.047 100.336 106.114 100.369 106.185 100.378C106.255 100.386 106.327 100.372 106.39 100.335L114.77 95.5309C114.85 95.4849 114.909 95.4077 114.934 95.316C114.96 95.2244 114.95 95.1258 114.907 95.0418Z" fill="#E6E6E6"/>
    <path d="M103.117 102.622C103.919 102.622 104.57 101.939 104.57 101.095C104.57 100.252 103.919 99.5684 103.117 99.5684C102.314 99.5684 101.664 100.252 101.664 101.095C101.664 101.939 102.314 102.622 103.117 102.622Z" fill="#E6E6E6"/>
    <path d="M114.138 77.4683L113.152 78.0335L101.006 84.998L100.02 85.5633C99.5412 85.8383 99.1861 86.3015 99.0323 86.8513C98.8785 87.401 98.9385 87.9925 99.1992 88.4958L108.245 105.917C108.506 106.419 108.947 106.792 109.47 106.954C109.994 107.116 110.556 107.053 111.035 106.779L111.038 106.777L125.151 98.6852L125.154 98.6838C125.632 98.4088 125.987 97.9455 126.141 97.3958C126.295 96.846 126.235 96.2546 125.974 95.7512L116.929 78.3304C116.667 77.8277 116.226 77.4546 115.703 77.2929C115.18 77.1313 114.617 77.1944 114.138 77.4683Z" fill="#CCCCCC"/>
    <path d="M114.422 78.0155L113.254 78.6851L101.471 85.441L100.303 86.1105C99.9627 86.3064 99.7098 86.6363 99.6003 87.0278C99.4908 87.4193 99.5335 87.8404 99.7191 88.1989L108.765 105.62C108.951 105.978 109.265 106.243 109.637 106.359C110.01 106.474 110.411 106.429 110.752 106.234L110.754 106.232L124.868 98.1401L124.871 98.1387C125.211 97.9428 125.464 97.6129 125.574 97.2214C125.683 96.8299 125.64 96.4088 125.455 96.0503L116.409 78.6295C116.223 78.2715 115.909 78.0058 115.536 77.8907C115.164 77.7756 114.763 77.8205 114.422 78.0155Z" fill="white"/>
    <path d="M114.754 82.9334C114.71 82.8498 114.636 82.7878 114.549 82.7608C114.462 82.7339 114.368 82.7442 114.288 82.7894L111.864 84.1798L111.188 84.5671L109.024 85.8085C108.945 85.8545 108.886 85.9317 108.861 86.0232C108.835 86.1146 108.845 86.2129 108.889 86.2965C108.932 86.3802 109.005 86.4424 109.092 86.4695C109.179 86.4967 109.273 86.4867 109.352 86.4416L111.904 84.9792L112.438 84.6714L114.616 83.4225C114.696 83.3764 114.755 83.2992 114.781 83.2076C114.806 83.116 114.797 83.0175 114.754 82.9334Z" fill="#CCCCCC"/>
    <path d="M116.547 83.2881C116.525 83.2466 116.496 83.2101 116.461 83.1805C116.427 83.1509 116.386 83.1289 116.343 83.1157C116.3 83.1026 116.255 83.0985 116.211 83.1038C116.166 83.1091 116.123 83.1236 116.084 83.1465L112.703 85.0856L112.183 85.3835L109.579 86.8756C109.54 86.8983 109.505 86.9289 109.477 86.9657C109.449 87.0025 109.428 87.0447 109.415 87.09C109.403 87.1353 109.399 87.1828 109.403 87.2297C109.408 87.2766 109.422 87.3221 109.443 87.3635C109.465 87.4049 109.494 87.4414 109.529 87.471C109.564 87.5006 109.604 87.5227 109.647 87.5359C109.69 87.5492 109.736 87.5534 109.78 87.5483C109.825 87.5432 109.868 87.5289 109.908 87.5062L112.511 86.0141L113.031 85.7162L116.41 83.7772C116.45 83.7548 116.485 83.7244 116.513 83.6876C116.542 83.6508 116.563 83.6084 116.576 83.5628C116.589 83.5173 116.593 83.4695 116.588 83.4224C116.583 83.3752 116.569 83.3295 116.547 83.2881Z" fill="#CCCCCC"/>
    <path d="M109.478 89.2325L107.831 86.0596L107.547 85.5134L107.413 85.2527C107.391 85.2127 107.356 85.1833 107.314 85.1707C107.272 85.1582 107.227 85.1635 107.188 85.1857L103.845 87.1023L102.335 87.9663C102.297 87.9889 102.269 88.0263 102.257 88.0705C102.245 88.1147 102.25 88.162 102.272 88.2022L102.406 88.4604L102.553 88.7459L102.69 89.0066V89.0091L104.336 92.1821C104.357 92.2218 104.393 92.2512 104.434 92.2637C104.476 92.2763 104.521 92.271 104.559 92.2491L109.411 89.4684C109.431 89.4576 109.448 89.4429 109.461 89.4251C109.475 89.4074 109.485 89.3869 109.491 89.365C109.498 89.3431 109.499 89.32 109.497 89.2973C109.495 89.2746 109.488 89.2526 109.478 89.2325Z" fill="#0F7173"/>
    <path d="M117.364 87.9842C117.321 87.9007 117.248 87.8386 117.161 87.8116C117.074 87.7847 116.981 87.7949 116.901 87.8402L114.768 89.0642L114.248 89.3621L112.188 90.5414L109.761 91.9343C109.722 91.9569 109.687 91.9876 109.658 92.0244C109.63 92.0612 109.609 92.1036 109.596 92.149C109.584 92.1944 109.579 92.242 109.584 92.2891C109.589 92.3362 109.603 92.3818 109.624 92.4234C109.646 92.465 109.675 92.5017 109.71 92.5314C109.745 92.5611 109.785 92.5833 109.828 92.5967C109.872 92.61 109.917 92.6143 109.962 92.6093C110.007 92.6043 110.05 92.59 110.09 92.5674L114.576 89.9952L115.096 89.6973L117.23 88.4733C117.269 88.4506 117.304 88.4198 117.332 88.3829C117.36 88.346 117.381 88.3036 117.394 88.2582C117.406 88.2127 117.41 88.1651 117.405 88.1181C117.4 88.0711 117.386 88.0256 117.364 87.9842Z" fill="#CCCCCC"/>
    <path d="M119.16 88.3386C119.138 88.2972 119.109 88.2607 119.074 88.2312C119.039 88.2016 118.998 88.1797 118.955 88.1665C118.912 88.1534 118.866 88.1493 118.822 88.1546C118.777 88.1598 118.734 88.1743 118.694 88.1971L115.323 90.1312L114.803 90.4291L110.314 93.0012C110.274 93.0238 110.239 93.0543 110.211 93.0911C110.183 93.1279 110.162 93.1702 110.149 93.2156C110.136 93.261 110.132 93.3086 110.137 93.3556C110.142 93.4027 110.155 93.4483 110.177 93.4898C110.198 93.5314 110.228 93.568 110.263 93.5976C110.298 93.6273 110.338 93.6493 110.381 93.6625C110.425 93.6757 110.47 93.6798 110.515 93.6745C110.56 93.6693 110.603 93.6548 110.642 93.6318L115.129 91.0597L115.649 90.7618L119.023 88.8277C119.102 88.7818 119.162 88.7045 119.187 88.6129C119.213 88.5212 119.203 88.4227 119.16 88.3386Z" fill="#CCCCCC"/>
    <path d="M107.37 95.9192C108.172 95.9192 108.823 95.2356 108.823 94.3922C108.823 93.5489 108.172 92.8652 107.37 92.8652C106.567 92.8652 105.917 93.5489 105.917 94.3922C105.917 95.2356 106.567 95.9192 107.37 95.9192Z" fill="#CCCCCC"/>
    <path d="M108.346 102.977C108.59 103.002 108.833 103.048 109.071 103.113L125.55 87.7511L124.484 82.2399L132.189 79.4629L134.978 89.0267C135.203 89.7993 135.184 90.6279 134.923 91.388C134.662 92.1481 134.174 92.7988 133.531 93.2423L112.58 107.697C112.611 108.691 112.353 109.672 111.84 110.509C111.328 111.345 110.585 111.998 109.711 112.38C108.837 112.763 107.872 112.856 106.946 112.648C106.02 112.441 105.177 111.942 104.527 111.218C103.877 110.494 103.453 109.579 103.31 108.595C103.167 107.612 103.313 106.606 103.727 105.711C104.142 104.817 104.806 104.076 105.631 103.588C106.456 103.099 107.403 102.886 108.346 102.977Z" fill="#FFB8B8"/>
    <path d="M136.894 80.838L132.225 71.4681C131.745 70.043 130.756 68.8699 129.468 68.1963C128.18 67.5228 126.693 67.4015 125.322 67.8582C125.269 67.8731 125.22 67.8905 125.168 67.9103C123.778 68.4209 122.638 69.4901 121.997 70.8832C121.357 72.2764 121.268 73.8796 121.751 75.3412L123.625 85.6967C123.679 85.9931 123.793 86.2739 123.959 86.5199C124.125 86.7658 124.34 86.9711 124.589 87.1218C124.861 87.2889 125.167 87.3844 125.482 87.3999C125.741 87.4171 126.001 87.3791 126.245 87.2881L127.247 86.9207L133.678 84.5671L135.781 83.7974C136.052 83.6977 136.3 83.5379 136.507 83.3287C136.714 83.1195 136.876 82.8659 136.982 82.5851C137.087 82.3044 137.134 82.003 137.119 81.7015C137.104 81.4 137.027 81.1055 136.894 80.838Z" fill="#0F7173"/>
    <path d="M144.01 116.979H-10.2715C-10.3342 116.979 -10.3943 116.953 -10.4386 116.906C-10.4829 116.86 -10.5078 116.797 -10.5078 116.731C-10.5078 116.665 -10.4829 116.602 -10.4386 116.555C-10.3943 116.509 -10.3342 116.482 -10.2715 116.482H144.01C144.073 116.482 144.133 116.509 144.177 116.555C144.221 116.602 144.246 116.665 144.246 116.731C144.246 116.797 144.221 116.86 144.177 116.906C144.133 116.953 144.073 116.979 144.01 116.979Z" fill="#3F3D56"/>
    <path d="M26.8152 112.387V112.511C26.816 113.353 27.0493 114.176 27.4867 114.881C27.9241 115.586 28.5469 116.143 29.2795 116.483C29.8049 116.73 30.3743 116.857 30.9498 116.856H69.1068V112.387H26.8152Z" fill="#3F3D56"/>
    <path d="M95.7481 82.9338C95.1426 81.6204 94.2103 80.5034 93.05 79.7013C92.524 79.3354 91.9565 79.0401 91.3607 78.8224C90.5488 78.5245 89.695 78.3726 88.835 78.373H52.2138C50.178 78.3755 48.2263 79.2264 46.7868 80.7391C45.3473 82.2518 44.5375 84.3027 44.5352 86.442V108.787C44.5345 109.1 44.5519 109.414 44.5872 109.725C44.6391 110.191 44.7292 110.651 44.8565 111.101C44.9827 111.543 45.1456 111.974 45.3432 112.387C45.9792 113.73 46.9593 114.859 48.1731 115.649C49.3869 116.438 50.7863 116.856 52.2138 116.856H88.835C89.8435 116.856 90.8422 116.648 91.774 116.242C92.7057 115.837 93.5524 115.243 94.2655 114.493C94.9786 113.744 95.5442 112.854 95.9299 111.875C96.3157 110.896 96.514 109.846 96.5137 108.787V86.442C96.5154 85.2267 96.2536 84.0269 95.7481 82.9338Z" fill="#3F3D56"/>
    <path d="M72.5327 99.5993C73.5766 99.5993 74.4228 98.7101 74.4228 97.6131C74.4228 96.5162 73.5766 95.627 72.5327 95.627C71.4888 95.627 70.6426 96.5162 70.6426 97.6131C70.6426 98.7101 71.4888 99.5993 72.5327 99.5993Z" fill="white"/>
  </g>
  <defs>
    <clipPath id="clip0_120_960">
      <rect width="169" height="150" fill="white"/>
    </clipPath>
  </defs>
</svg>